<?xml version="1.0" encoding="UTF-8"?>
<!DOCTYPE svg PUBLIC "-//W3C//DTD SVG 1.1//EN" "http://www.w3.org/Graphics/SVG/1.1/DTD/svg11.dtd">
<!-- Creator: CorelDRAW (Versión OEM) -->
<svg xmlns="http://www.w3.org/2000/svg" xml:space="preserve" width="89.9576mm" height="319.925mm" version="1.1" style="shape-rendering:geometricPrecision; text-rendering:geometricPrecision; image-rendering:optimizeQuality; fill-rule:evenodd; clip-rule:evenodd"
viewBox="0 0 1410.66 5016.87"
 xmlns:xlink="http://www.w3.org/1999/xlink"
 xmlns:xodm="http://www.corel.com/coreldraw/odm/2003">
 <defs>
  <style type="text/css">
   <![CDATA[
    .str0 {stroke:#239DD8;stroke-width:2.77;stroke-miterlimit:22.9256}
    .str2 {stroke:#279BD7;stroke-width:2.77;stroke-miterlimit:22.9256}
    .str1 {stroke:#239DD8;stroke-width:2.77;stroke-miterlimit:22.9256;stroke-dasharray:26.550158 26.550158 26.550158 26.550158 26.550158 26.550158 26.550158 26.550158 26.550158 26.550158}
    .fil1 {fill:none}
    .fil4 {fill:none;fill-rule:nonzero}
    .fil6 {fill:black}
    .fil9 {fill:#239DD8}
    .fil16 {fill:#254558}
    .fil21 {fill:#27B460}
    .fil17 {fill:#29945A}
    .fil22 {fill:#2AA85E}
    .fil10 {fill:#2DB266}
    .fil14 {fill:#5CBB61}
    .fil19 {fill:#84C55E}
    .fil20 {fill:#B0D355}
    .fil11 {fill:#B5D454}
    .fil18 {fill:#D6E04D}
    .fil7 {fill:#EE4143}
    .fil15 {fill:#F47C40}
    .fil12 {fill:#F6EC48}
    .fil13 {fill:#FCB83F}
    .fil0 {fill:#FEFEFE}
    .fil2 {fill:black;fill-rule:nonzero}
    .fil8 {fill:#239DD8;fill-rule:nonzero}
    .fil23 {fill:#319FD2;fill-rule:nonzero}
    .fil5 {fill:#A9ABAE;fill-rule:nonzero}
    .fil3 {fill:#FEFEFE;fill-rule:nonzero}
   ]]>
  </style>
 </defs>
 <g id="Capa_x0020_1">
  <metadata id="CorelCorpID_0Corel-Layer"/>
  <polygon class="fil0" points="1410.66,5014.96 -0,5014.96 -0,0 1410.66,0 "/>
  <path class="fil1 str0" d="M1237.1 2680.47l-1067.15 0c-30.09,0 -54.47,-24.06 -54.47,-53.73l0 -2057.68c0,-29.67 24.38,-53.73 54.47,-53.73l1067.15 0c30.08,0 54.48,24.06 54.48,53.73l0 2057.68c0,29.67 -24.39,53.73 -54.48,53.73z"/>
  <polygon class="fil2" points="-0,5016.87 1410.66,5016.87 1410.66,4870.12 -0,4870.12 "/>
  <polygon class="fil3" points="1.32,3367.11 1410.66,3367.11 1410.66,2965.85 1.32,2965.85 "/>
  <path class="fil4 str1" d="M1374.07 4850.01l-1334.17 0c-12.64,0 -22.89,-11.81 -22.89,-26.38l0 -1754.26c0,-14.57 10.25,-26.39 22.89,-26.39l1334.17 0c12.65,0 22.9,11.81 22.9,26.39l0 1754.26c0,14.57 -10.25,26.38 -22.9,26.38z"/>
  <polygon class="fil3" points="503.57,4930.02 489.57,4972.94 479.53,4972.94 479.01,4972.94 473.35,4955.69 467.68,4972.94 458.92,4972.94 457.12,4972.94 443.04,4930.02 454.89,4930.02 463.22,4959.38 468.8,4941.87 464.94,4930.02 474.8,4930.02 483.73,4958.26 491.81,4930.02 "/>
  <polygon class="fil3" points="565.78,4930.02 551.78,4972.94 541.74,4972.94 541.23,4972.94 535.56,4955.69 529.89,4972.94 521.13,4972.94 519.33,4972.94 505.25,4930.02 517.1,4930.02 525.43,4959.38 531.01,4941.87 527.15,4930.02 537.02,4930.02 545.94,4958.26 554.02,4930.02 "/>
  <polygon class="fil3" points="627.99,4930.02 614,4972.94 603.95,4972.94 603.44,4972.94 597.77,4955.69 592.1,4972.94 583.35,4972.94 581.54,4972.94 567.47,4930.02 579.31,4930.02 587.64,4959.38 593.22,4941.87 589.36,4930.02 599.23,4930.02 608.16,4958.26 616.23,4930.02 "/>
  <polygon class="fil3" points="626.51,4960.67 638.7,4960.67 638.7,4972.94 626.51,4972.94 "/>
  <polygon class="fil3" points="672.42,4972.94 664.35,4960.32 656.37,4972.94 644.53,4972.94 658.43,4950.96 645.21,4930.02 657.05,4930.02 664.35,4941.61 671.74,4930.02 683.58,4930.02 670.28,4950.96 684.27,4972.94 "/>
  <path class="fil3" d="M724.6 4951.48c0,-7.21 -5.07,-12.1 -11.93,-12.1 -6.78,0 -11.84,4.9 -11.84,12.1 0,7.22 5.06,12.1 11.84,12.1 6.87,0 11.93,-4.89 11.93,-12.1zm11.08 0c0,12.8 -9.44,22.67 -20.95,22.67 -6.26,0 -10.9,-2.4 -13.9,-6.27l0 5.07 -11.07 0 0 -60.09 11.07 0 0 22.23c3,-3.86 7.64,-6.27 13.9,-6.27 11.51,0 20.95,9.87 20.95,22.66z"/>
  <path class="fil3" d="M766.3 4929.16l0 12.36c-5.76,-0.69 -11.76,1.89 -11.76,10.22l0 21.2 -11.08 0 0 -42.92 11.08 0 0 6.43c2.15,-5.06 6.52,-7.29 11.76,-7.29z"/>
  <path class="fil3" d="M772.38 4930.02l11.07 0 0 42.92 -11.07 0 0 -42.92zm0 -17.17l11.07 0 0 11.16 -11.07 0 0 -11.16z"/>
  <polygon class="fil3" points="793.92,4960.67 806.11,4960.67 806.11,4972.94 793.92,4972.94 "/>
  <path class="fil3" d="M833.66 4974.14c-13.05,0 -22.66,-9.87 -22.66,-22.67 0,-12.78 9.61,-22.66 22.66,-22.66 10.64,0 19.49,7.04 21.46,16.83l-11.67 0c-1.54,-3.61 -5.24,-5.93 -9.79,-5.93 -6.52,0 -11.59,4.9 -11.59,11.76 0,6.79 5.07,11.68 11.59,11.68 4.55,0 8.33,-2.23 9.79,-5.92l11.67 0c-1.97,9.87 -10.82,16.91 -21.46,16.91z"/>
  <path class="fil3" d="M893.9 4951.48c0,-6.95 -5.07,-11.85 -11.67,-11.85 -6.53,0 -11.59,4.9 -11.59,11.85 0,6.95 5.06,11.85 11.59,11.85 6.61,0 11.67,-4.9 11.67,-11.85zm-34.34 0c0,-12.79 10.04,-22.66 22.66,-22.66 12.62,0 22.75,9.87 22.75,22.66 0,12.8 -10.13,22.67 -22.75,22.67 -12.62,0 -22.66,-9.87 -22.66,-22.67z"/>
  <path class="fil3" d="M969.6 4944.01l0 28.93 -11.08 0 0 -28.07c0,-4.29 -2.49,-5.75 -5.4,-5.75 -3,0 -6.36,1.63 -6.36,7.21l0 26.61 -11.07 0 0 -28.07c0,-4.29 -2.58,-5.75 -5.5,-5.75 -3,0 -6.35,1.63 -6.35,7.21l0 26.61 -11.08 0 0 -42.92 11.08 0 0 4.2c2.32,-3.51 5.92,-5.41 10.3,-5.41 4.38,0 8.07,1.98 10.3,5.67 2.92,-3.6 6.78,-5.67 11.85,-5.67 8.07,0 13.3,5.32 13.3,15.2z"/>
  <g id="_3222916882272">
   <path class="fil5" d="M440.33 3904.81l2.25 0 0 -4.65 -1.86 0c-4.34,0 -5.65,-2.25 -5.65,-6.43l0 -39.89c0,-5.19 2.32,-6.35 5.65,-6.35l1.86 0 0 -4.65 -2.25 0c-8.52,0 -10.92,4.1 -10.92,11l0 39.89c0,8.75 4.18,11.08 10.92,11.08z"/>
   <path class="fil5" d="M460.47 3897.84c7.82,0 12.08,-4.88 12.08,-12.93l0 -7.2 -5.73 0 0 7.59c0,4.65 -2.4,7.05 -6.2,7.05 -3.79,0 -6.2,-2.4 -6.2,-7.05l0 -30.67c0,-4.65 2.4,-7.05 6.2,-7.05 3.79,0 6.2,2.4 6.2,7.05l0 5.96 5.73 0 0 -5.58c0,-8.13 -4.26,-12.93 -12.08,-12.93 -7.75,0 -12.08,4.8 -12.08,12.93l0 29.89c0,8.05 4.34,12.93 12.08,12.93z"/>
   <path class="fil5" d="M489.28 3897.84c7.36,0 11.46,-4.57 11.46,-12.63l0 -15.33c0,-8.05 -4.1,-12.55 -11.46,-12.55 -7.43,0 -11.46,4.49 -11.46,12.55l0 15.33c0,8.06 4.03,12.63 11.46,12.63zm0 -5.19c-4.03,0 -5.65,-2.63 -5.65,-6.89l0 -16.42c0,-4.18 1.63,-6.82 5.65,-6.82 4.03,0 5.58,2.63 5.58,6.82l0 16.42c0,4.26 -1.63,6.89 -5.58,6.89z"/>
   <polygon class="fil5" points="507.32,3897.06 513.13,3897.06 513.13,3842.85 507.32,3842.85 "/>
   <path class="fil5" d="M531.34 3857.33c-7.51,0 -11.54,4.49 -11.54,12.55l0 15.33c0,8.06 4.03,12.63 11.54,12.63 7.43,0 11.54,-4.57 11.54,-12.63l0 -0.62 -5.65 0 0 1.16c0,4.72 -2.01,6.89 -5.81,6.89 -3.79,0 -5.73,-2.17 -5.73,-6.89l0 -7.28 17.19 0 0 -8.6c0,-8.05 -4.11,-12.55 -11.54,-12.55zm-5.66 16.34l0 -4.34c0,-4.65 1.94,-6.82 5.66,-6.82 3.71,0 5.81,2.17 5.81,6.82l0 4.34 -11.46 0z"/>
   <path class="fil5" d="M571.53 3897.84c6.97,0 10.84,-4.18 10.84,-10.84 0,-6.97 -4.8,-9.52 -9.14,-11.77 -3.71,-1.86 -6.97,-3.64 -6.97,-7.59 0,-3.56 2.25,-5.27 4.96,-5.27 2.94,0 4.96,1.7 4.96,5.65l0 0.93 5.5 0 0 -0.77c0,-6.82 -4.18,-10.84 -10.53,-10.84 -6.66,0 -10.53,4.03 -10.53,10.38 0,7.2 4.88,9.68 9.22,12 3.56,1.78 6.74,3.56 6.74,7.36 0,3.95 -2.17,5.65 -5.34,5.65 -3.18,0 -5.34,-1.78 -5.34,-5.96l0 -1.47 -5.65 0 0 1.32c0,7.05 4.18,11.23 11.31,11.23z"/>
   <path class="fil5" d="M604.68 3858.11l0 25.87c0,5.81 -2.63,8.67 -6.12,8.67 -3.41,0 -4.88,-2.32 -4.88,-6.82l0 -27.73 -5.89 0 0 28.42c0,7.82 3.25,11.31 8.98,11.31 3.95,0 7.05,-2.17 8.6,-5.96l0.08 5.19 5.03 0 0 -38.96 -5.81 0z"/>
   <path class="fil5" d="M639.92 3897.06c-0.54,-2.25 -0.85,-5.73 -0.85,-10.61l0 -17.35c0,-7.75 -3.33,-11.77 -10.77,-11.77 -6.97,0 -11,4.03 -11,11.31l0 0.85 5.5 0 0 -1.16c0,-3.87 2.01,-5.96 5.42,-5.96 3.33,0 5.04,1.94 5.04,5.81l0 0.93c0,2.63 -0.85,3.41 -7.36,6.35 -7.05,3.33 -9.68,6.74 -9.68,12.78 0,5.89 3.33,9.6 8.67,9.6 4.34,0 7.51,-2.17 9.06,-6.04 0.15,2.48 0.39,4.49 0.62,5.27l5.35 0zm-13.01 -4.34c-3.18,0 -4.8,-1.94 -4.8,-5.34 0,-3.41 1.63,-5.73 5.5,-7.67 3.33,-1.7 4.88,-2.63 5.66,-3.64l0 7.82c0,5.58 -2.4,8.83 -6.35,8.83z"/>
   <path class="fil5" d="M669.73 3857.33c-7.51,0 -11.54,4.49 -11.54,12.55l0 15.33c0,8.06 4.03,12.63 11.54,12.63 7.43,0 11.54,-4.57 11.54,-12.63l0 -0.62 -5.65 0 0 1.16c0,4.72 -2.02,6.89 -5.81,6.89 -3.79,0 -5.73,-2.17 -5.73,-6.89l0 -7.28 17.19 0 0 -8.6c0,-8.05 -4.11,-12.55 -11.54,-12.55zm-5.65 16.34l0 -4.34c0,-4.65 1.94,-6.82 5.65,-6.82 3.72,0 5.81,2.17 5.81,6.82l0 4.34 -11.46 0z"/>
   <path class="fil5" d="M702.88 3863.06l0 -4.96 -7.04 0 0 -11.23 -5.04 0 -0.62 11.23 -5.04 0 0 4.96 4.8 0 0 25.87c0,5.96 2.79,8.91 8.6,8.91 1.7,0 2.94,-0.16 4.33,-0.77l0 -5.03c-1.16,0.46 -2.24,0.62 -3.25,0.62 -2.79,0 -3.79,-1.24 -3.79,-4.34l0 -25.25 7.04 0z"/>
   <path class="fil5" d="M708.15 3852.53l5.81 0 0 -8.36 -5.81 0 0 8.36zm0 44.53l5.81 0 0 -38.96 -5.81 0 0 38.96z"/>
   <path class="fil5" d="M739.44 3858.11l-0.77 5.5c-1.55,-3.95 -4.72,-6.27 -8.75,-6.27 -5.73,0 -9.14,3.49 -9.14,11.23l0 17.97c0,7.75 3.41,11.31 9.14,11.31 3.41,0 6.27,-1.7 7.98,-4.65l0 15.88 5.81 0 0 -50.96 -4.26 0zm-7.82 34.54c-3.56,0 -4.96,-2.56 -4.96,-6.58l0 -17.04c0,-3.95 1.39,-6.5 4.96,-6.5 3.56,0 6.28,2.94 6.28,8.67l0 12.78c0,5.73 -2.71,8.67 -6.28,8.67z"/>
   <path class="fil5" d="M767.71 3858.11l0 25.87c0,5.81 -2.63,8.67 -6.12,8.67 -3.41,0 -4.88,-2.32 -4.88,-6.82l0 -27.73 -5.89 0 0 28.42c0,7.82 3.25,11.31 8.98,11.31 3.95,0 7.05,-2.17 8.59,-5.96l0.08 5.19 5.03 0 0 -38.96 -5.81 0z"/>
   <path class="fil5" d="M791.72 3857.33c-7.51,0 -11.54,4.49 -11.54,12.55l0 15.33c0,8.06 4.03,12.63 11.54,12.63 7.43,0 11.54,-4.57 11.54,-12.63l0 -0.62 -5.65 0 0 1.16c0,4.72 -2.02,6.89 -5.81,6.89 -3.79,0 -5.73,-2.17 -5.73,-6.89l0 -7.28 17.19 0 0 -8.6c0,-8.05 -4.11,-12.55 -11.54,-12.55zm-5.65 16.34l0 -4.34c0,-4.65 1.94,-6.82 5.65,-6.82 3.72,0 5.81,2.17 5.81,6.82l0 4.34 -11.46 0z"/>
   <path class="fil5" d="M824.86 3863.06l0 -4.96 -7.05 0 0 -11.23 -5.03 0 -0.62 11.23 -5.04 0 0 4.96 4.8 0 0 25.87c0,5.96 2.79,8.91 8.6,8.91 1.7,0 2.94,-0.16 4.34,-0.77l0 -5.03c-1.16,0.46 -2.25,0.62 -3.25,0.62 -2.79,0 -3.79,-1.24 -3.79,-4.34l0 -25.25 7.05 0z"/>
   <path class="fil5" d="M852.13 3897.06c-0.54,-2.25 -0.85,-5.73 -0.85,-10.61l0 -17.35c0,-7.75 -3.33,-11.77 -10.77,-11.77 -6.97,0 -11,4.03 -11,11.31l0 0.85 5.5 0 0 -1.16c0,-3.87 2.01,-5.96 5.42,-5.96 3.33,0 5.03,1.94 5.03,5.81l0 0.93c0,2.63 -0.85,3.41 -7.36,6.35 -7.05,3.33 -9.68,6.74 -9.68,12.78 0,5.89 3.33,9.6 8.67,9.6 4.34,0 7.51,-2.17 9.06,-6.04 0.16,2.48 0.39,4.49 0.62,5.27l5.34 0zm-13.01 -4.34c-3.18,0 -4.8,-1.94 -4.8,-5.34 0,-3.41 1.63,-5.73 5.5,-7.67 3.33,-1.7 4.88,-2.63 5.65,-3.64l0 7.82c0,5.58 -2.4,8.83 -6.35,8.83z"/>
   <path class="fil5" d="M893.17 3897.06c-0.54,-2.25 -0.85,-5.73 -0.85,-10.61l0 -17.35c0,-7.75 -3.33,-11.77 -10.77,-11.77 -6.97,0 -11,4.03 -11,11.31l0 0.85 5.5 0 0 -1.16c0,-3.87 2.01,-5.96 5.42,-5.96 3.33,0 5.04,1.94 5.04,5.81l0 0.93c0,2.63 -0.85,3.41 -7.36,6.35 -7.05,3.33 -9.68,6.74 -9.68,12.78 0,5.89 3.33,9.6 8.67,9.6 4.34,0 7.51,-2.17 9.06,-6.04 0.16,2.48 0.39,4.49 0.62,5.27l5.34 0zm-13.01 -4.34c-3.18,0 -4.8,-1.94 -4.8,-5.34 0,-3.41 1.63,-5.73 5.5,-7.67 3.33,-1.7 4.88,-2.63 5.65,-3.64l0 7.82c0,5.58 -2.4,8.83 -6.35,8.83z"/>
   <path class="fil5" d="M917.65 3858.11l-0.77 5.5c-1.55,-3.95 -4.72,-6.27 -8.75,-6.27 -5.73,0 -9.14,3.49 -9.14,11.23l0 17.97c0,7.75 3.41,11.31 9.14,11.31 3.41,0 6.27,-1.7 7.98,-4.65l0 15.88 5.81 0 0 -50.96 -4.26 0zm-7.82 34.54c-3.56,0 -4.96,-2.56 -4.96,-6.58l0 -17.04c0,-3.95 1.39,-6.5 4.96,-6.5 3.56,0 6.27,2.94 6.27,8.67l0 12.78c0,5.73 -2.71,8.67 -6.27,8.67z"/>
   <path class="fil5" d="M945.92 3858.11l0 25.87c0,5.81 -2.63,8.67 -6.12,8.67 -3.41,0 -4.88,-2.32 -4.88,-6.82l0 -27.73 -5.89 0 0 28.42c0,7.82 3.25,11.31 8.98,11.31 3.95,0 7.05,-2.17 8.6,-5.96l0.08 5.19 5.03 0 0 -38.96 -5.81 0z"/>
   <path class="fil5" d="M959.16 3852.53l5.81 0 0 -8.36 -5.81 0 0 8.36zm0 44.53l5.81 0 0 -38.96 -5.81 0 0 38.96z"/>
   <path class="fil5" d="M971.4 3904.81l2.25 0c8.52,0 10.92,-4.03 10.92,-11.08l0 -39.89c0,-8.52 -4.03,-11 -10.92,-11l-2.25 0 0 4.65 1.86 0c4.34,0 5.73,2.17 5.73,6.35l0 39.89c0,5.19 -2.25,6.43 -5.73,6.43l-1.86 0 0 4.65z"/>
   <path class="fil5" d="M431.38 3977.86l2.25 0 0 -4.65 -1.86 0c-4.34,0 -5.65,-2.25 -5.65,-6.43l0 -39.89c0,-5.19 2.32,-6.35 5.65,-6.35l1.86 0 0 -4.65 -2.25 0c-8.52,0 -10.92,4.1 -10.92,11l0 39.89c0,8.75 4.18,11.08 10.92,11.08z"/>
   <path class="fil5" d="M440.06 3970.12l6.04 0 0 -23.31 5.81 0c8.36,0 12.24,-4.34 12.24,-13.09l0 -4.65c0,-8.75 -3.87,-13.17 -12.24,-13.17l-11.85 0 0 54.21zm6.04 -28.81l0 -19.9 5.81 0c4.26,0 6.19,1.94 6.19,7.28l0 5.34c0,5.34 -1.94,7.28 -6.19,7.28l-5.81 0z"/>
   <path class="fil5" d="M480.49 3930.39c-7.51,0 -11.54,4.49 -11.54,12.55l0 15.33c0,8.06 4.03,12.63 11.54,12.63 7.43,0 11.54,-4.57 11.54,-12.63l0 -0.62 -5.65 0 0 1.16c0,4.72 -2.01,6.89 -5.81,6.89 -3.79,0 -5.73,-2.17 -5.73,-6.89l0 -7.28 17.2 0 0 -8.6c0,-8.05 -4.11,-12.55 -11.54,-12.55zm-5.66 16.34l0 -4.34c0,-4.65 1.94,-6.82 5.66,-6.82 3.72,0 5.81,2.17 5.81,6.82l0 4.34 -11.46 0z"/>
   <path class="fil5" d="M515.65 3931.16l-0.08 5.19c-1.55,-3.79 -4.65,-5.96 -8.67,-5.96 -5.65,0 -9.06,3.49 -9.06,11.23l0 16.26c0,7.74 3.41,11.31 9.06,11.31 3.48,0 6.27,-1.7 7.98,-4.65l0 7.13c0,4.41 -1.86,6.35 -5.65,6.35 -3.64,0 -5.5,-1.78 -5.5,-4.88l0 -0.54 -5.58 0 0 0.31c0,6.43 3.79,9.99 11.15,9.99 8.36,0 11.38,-4.26 11.38,-11.62l0 -40.12 -5.04 0zm-6.97 32.84c-3.64,0 -5.03,-2.56 -5.03,-6.58l0 -15.33c0,-3.95 1.39,-6.5 5.03,-6.5 3.49,0 6.2,2.94 6.2,8.67l0 11.08c0,5.73 -2.71,8.67 -6.2,8.67z"/>
   <path class="fil5" d="M544.69 3931.16l0 25.87c0,5.81 -2.63,8.67 -6.12,8.67 -3.41,0 -4.88,-2.32 -4.88,-6.82l0 -27.73 -5.89 0 0 28.42c0,7.82 3.25,11.31 8.98,11.31 3.95,0 7.05,-2.17 8.59,-5.96l0.08 5.19 5.03 0 0 -38.96 -5.81 0z"/>
   <path class="fil5" d="M568.7 3930.39c-7.51,0 -11.54,4.49 -11.54,12.55l0 15.33c0,8.06 4.03,12.63 11.54,12.63 7.43,0 11.54,-4.57 11.54,-12.63l0 -0.62 -5.65 0 0 1.16c0,4.72 -2.01,6.89 -5.81,6.89 -3.79,0 -5.73,-2.17 -5.73,-6.89l0 -7.28 17.2 0 0 -8.6c0,-8.05 -4.11,-12.55 -11.54,-12.55zm-5.66 16.34l0 -4.34c0,-4.65 1.94,-6.82 5.66,-6.82 3.72,0 5.81,2.17 5.81,6.82l0 4.34 -11.46 0z"/>
   <path class="fil5" d="M608.9 3970.89c6.97,0 10.84,-4.18 10.84,-10.84 0,-6.97 -4.8,-9.52 -9.14,-11.77 -3.72,-1.86 -6.97,-3.64 -6.97,-7.59 0,-3.56 2.25,-5.27 4.96,-5.27 2.94,0 4.96,1.7 4.96,5.65l0 0.93 5.5 0 0 -0.77c0,-6.82 -4.18,-10.84 -10.53,-10.84 -6.66,0 -10.53,4.03 -10.53,10.38 0,7.2 4.88,9.68 9.22,12 3.56,1.78 6.74,3.56 6.74,7.36 0,3.95 -2.17,5.65 -5.34,5.65 -3.18,0 -5.34,-1.78 -5.34,-5.96l0 -1.47 -5.65 0 0 1.32c0,7.05 4.18,11.23 11.31,11.23z"/>
   <path class="fil5" d="M642.05 3931.16l0 25.87c0,5.81 -2.63,8.67 -6.12,8.67 -3.41,0 -4.88,-2.32 -4.88,-6.82l0 -27.73 -5.89 0 0 28.42c0,7.82 3.25,11.31 8.98,11.31 3.95,0 7.05,-2.17 8.6,-5.96l0.08 5.19 5.03 0 0 -38.96 -5.81 0z"/>
   <path class="fil5" d="M678.68 3930.39c-7.51,0 -11.54,4.49 -11.54,12.55l0 15.33c0,8.06 4.03,12.63 11.54,12.63 7.43,0 11.54,-4.57 11.54,-12.63l0 -0.62 -5.65 0 0 1.16c0,4.72 -2.01,6.89 -5.81,6.89 -3.79,0 -5.73,-2.17 -5.73,-6.89l0 -7.28 17.19 0 0 -8.6c0,-8.05 -4.11,-12.55 -11.54,-12.55zm-5.66 16.34l0 -4.34c0,-4.65 1.94,-6.82 5.66,-6.82 3.71,0 5.81,2.17 5.81,6.82l0 4.34 -11.46 0z"/>
   <path class="fil5" d="M711.83 3936.12l0 -4.96 -7.05 0 0 -11.23 -5.03 0 -0.62 11.23 -5.04 0 0 4.96 4.8 0 0 25.87c0,5.96 2.79,8.91 8.6,8.91 1.7,0 2.94,-0.16 4.34,-0.77l0 -5.03c-1.16,0.46 -2.25,0.62 -3.25,0.62 -2.79,0 -3.79,-1.24 -3.79,-4.34l0 -25.25 7.05 0z"/>
   <path class="fil5" d="M717.09 3925.58l5.81 0 0 -8.36 -5.81 0 0 8.36zm0 44.54l5.81 0 0 -38.96 -5.81 0 0 38.96z"/>
   <path class="fil5" d="M748.38 3931.16l-0.78 5.5c-1.55,-3.95 -4.72,-6.27 -8.75,-6.27 -5.73,0 -9.14,3.49 -9.14,11.23l0 17.97c0,7.75 3.41,11.31 9.14,11.31 3.41,0 6.27,-1.7 7.98,-4.65l0 15.88 5.81 0 0 -50.96 -4.26 0zm-7.82 34.54c-3.56,0 -4.96,-2.56 -4.96,-6.58l0 -17.04c0,-3.95 1.39,-6.5 4.96,-6.5 3.56,0 6.27,2.94 6.27,8.67l0 12.78c0,5.73 -2.71,8.67 -6.27,8.67z"/>
   <path class="fil5" d="M776.65 3931.16l0 25.87c0,5.81 -2.63,8.67 -6.12,8.67 -3.41,0 -4.88,-2.32 -4.88,-6.82l0 -27.73 -5.89 0 0 28.42c0,7.82 3.25,11.31 8.98,11.31 3.95,0 7.05,-2.17 8.6,-5.96l0.08 5.19 5.03 0 0 -38.96 -5.81 0z"/>
   <path class="fil5" d="M800.66 3930.39c-7.51,0 -11.54,4.49 -11.54,12.55l0 15.33c0,8.06 4.03,12.63 11.54,12.63 7.43,0 11.54,-4.57 11.54,-12.63l0 -0.62 -5.65 0 0 1.16c0,4.72 -2.01,6.89 -5.81,6.89 -3.79,0 -5.73,-2.17 -5.73,-6.89l0 -7.28 17.19 0 0 -8.6c0,-8.05 -4.11,-12.55 -11.54,-12.55zm-5.65 16.34l0 -4.34c0,-4.65 1.94,-6.82 5.65,-6.82 3.72,0 5.81,2.17 5.81,6.82l0 4.34 -11.46 0z"/>
   <path class="fil5" d="M833.81 3936.12l0 -4.96 -7.05 0 0 -11.23 -5.03 0 -0.62 11.23 -5.04 0 0 4.96 4.8 0 0 25.87c0,5.96 2.79,8.91 8.6,8.91 1.7,0 2.94,-0.16 4.34,-0.77l0 -5.03c-1.16,0.46 -2.25,0.62 -3.25,0.62 -2.79,0 -3.79,-1.24 -3.79,-4.34l0 -25.25 7.05 0z"/>
   <path class="fil5" d="M861.07 3970.12c-0.54,-2.25 -0.85,-5.73 -0.85,-10.61l0 -17.35c0,-7.75 -3.33,-11.77 -10.77,-11.77 -6.97,0 -11,4.03 -11,11.31l0 0.85 5.5 0 0 -1.16c0,-3.87 2.02,-5.96 5.42,-5.96 3.33,0 5.04,1.94 5.04,5.81l0 0.93c0,2.63 -0.85,3.41 -7.36,6.35 -7.05,3.33 -9.68,6.74 -9.68,12.78 0,5.89 3.33,9.6 8.67,9.6 4.34,0 7.51,-2.17 9.06,-6.04 0.15,2.48 0.39,4.49 0.62,5.27l5.34 0zm-13.01 -4.34c-3.18,0 -4.8,-1.94 -4.8,-5.34 0,-3.41 1.63,-5.73 5.5,-7.67 3.33,-1.7 4.88,-2.63 5.65,-3.64l0 7.82c0,5.58 -2.4,8.83 -6.35,8.83z"/>
   <path class="fil5" d="M902.12 3970.12c-0.54,-2.25 -0.85,-5.73 -0.85,-10.61l0 -17.35c0,-7.75 -3.33,-11.77 -10.76,-11.77 -6.97,0 -11,4.03 -11,11.31l0 0.85 5.5 0 0 -1.16c0,-3.87 2.01,-5.96 5.42,-5.96 3.33,0 5.04,1.94 5.04,5.81l0 0.93c0,2.63 -0.85,3.41 -7.36,6.35 -7.05,3.33 -9.68,6.74 -9.68,12.78 0,5.89 3.33,9.6 8.67,9.6 4.34,0 7.51,-2.17 9.06,-6.04 0.15,2.48 0.39,4.49 0.62,5.27l5.34 0zm-13.01 -4.34c-3.18,0 -4.8,-1.94 -4.8,-5.34 0,-3.41 1.62,-5.73 5.5,-7.67 3.33,-1.7 4.88,-2.63 5.65,-3.64l0 7.82c0,5.58 -2.4,8.83 -6.35,8.83z"/>
   <path class="fil5" d="M926.59 3931.16l-0.77 5.5c-1.55,-3.95 -4.72,-6.27 -8.75,-6.27 -5.73,0 -9.14,3.49 -9.14,11.23l0 17.97c0,7.75 3.41,11.31 9.14,11.31 3.41,0 6.27,-1.7 7.98,-4.65l0 15.88 5.81 0 0 -50.96 -4.26 0zm-7.82 34.54c-3.56,0 -4.96,-2.56 -4.96,-6.58l0 -17.04c0,-3.95 1.39,-6.5 4.96,-6.5 3.56,0 6.27,2.94 6.27,8.67l0 12.78c0,5.73 -2.71,8.67 -6.27,8.67z"/>
   <path class="fil5" d="M954.86 3931.16l0 25.87c0,5.81 -2.63,8.67 -6.12,8.67 -3.41,0 -4.88,-2.32 -4.88,-6.82l0 -27.73 -5.89 0 0 28.42c0,7.82 3.25,11.31 8.98,11.31 3.95,0 7.05,-2.17 8.6,-5.96l0.08 5.19 5.04 0 0 -38.96 -5.81 0z"/>
   <path class="fil5" d="M968.11 3925.58l5.81 0 0 -8.36 -5.81 0 0 8.36zm0 44.54l5.81 0 0 -38.96 -5.81 0 0 38.96z"/>
   <path class="fil5" d="M980.34 3977.86l2.25 0c8.52,0 10.92,-4.03 10.92,-11.08l0 -39.89c0,-8.52 -4.03,-11 -10.92,-11l-2.25 0 0 4.65 1.86 0c4.34,0 5.73,2.17 5.73,6.35l0 39.89c0,5.19 -2.25,6.43 -5.73,6.43l-1.86 0 0 4.65z"/>
   <path class="fil5" d="M457.25 4050.92l2.24 0 0 -4.65 -1.86 0c-4.34,0 -5.65,-2.25 -5.65,-6.43l0 -39.89c0,-5.19 2.32,-6.35 5.65,-6.35l1.86 0 0 -4.65 -2.24 0c-8.52,0 -10.92,4.1 -10.92,11l0 39.89c0,8.75 4.18,11.08 10.92,11.08z"/>
   <path class="fil5" d="M477.39 4043.95c7.82,0 12.08,-4.88 12.08,-12.93l0 -7.2 -5.73 0 0 7.59c0,4.65 -2.4,7.05 -6.19,7.05 -3.8,0 -6.2,-2.4 -6.2,-7.05l0 -30.67c0,-4.65 2.4,-7.05 6.2,-7.05 3.79,0 6.19,2.4 6.19,7.05l0 5.96 5.73 0 0 -5.58c0,-8.13 -4.26,-12.93 -12.08,-12.93 -7.75,0 -12.08,4.8 -12.08,12.93l0 29.89c0,8.05 4.34,12.93 12.08,12.93z"/>
   <path class="fil5" d="M512.09 4004.22l0 25.87c0,5.81 -2.63,8.67 -6.12,8.67 -3.41,0 -4.88,-2.32 -4.88,-6.82l0 -27.73 -5.89 0 0 28.42c0,7.82 3.26,11.31 8.99,11.31 3.95,0 7.05,-2.17 8.6,-5.96l0.08 5.19 5.04 0 0 -38.96 -5.81 0z"/>
   <path class="fil5" d="M535.01 4043.95c6.97,0 10.84,-4.18 10.84,-10.84 0,-6.97 -4.8,-9.52 -9.14,-11.77 -3.72,-1.86 -6.97,-3.64 -6.97,-7.59 0,-3.56 2.25,-5.27 4.96,-5.27 2.94,0 4.96,1.7 4.96,5.65l0 0.93 5.5 0 0 -0.77c0,-6.82 -4.18,-10.84 -10.53,-10.84 -6.66,0 -10.53,4.03 -10.53,10.38 0,7.2 4.88,9.68 9.22,12 3.56,1.78 6.74,3.56 6.74,7.36 0,3.95 -2.17,5.65 -5.34,5.65 -3.18,0 -5.34,-1.78 -5.34,-5.96l0 -1.47 -5.65 0 0 1.32c0,7.05 4.18,11.23 11.31,11.23z"/>
   <path class="fil5" d="M566.46 4009.17l0 -4.96 -7.05 0 0 -11.23 -5.03 0 -0.62 11.23 -5.04 0 0 4.96 4.8 0 0 25.87c0,5.96 2.79,8.91 8.6,8.91 1.7,0 2.94,-0.16 4.34,-0.77l0 -5.03c-1.16,0.46 -2.25,0.62 -3.25,0.62 -2.79,0 -3.79,-1.24 -3.79,-4.34l0 -25.25 7.05 0z"/>
   <path class="fil5" d="M582.33 4043.95c7.36,0 11.46,-4.57 11.46,-12.63l0 -15.33c0,-8.05 -4.11,-12.55 -11.46,-12.55 -7.43,0 -11.46,4.49 -11.46,12.55l0 15.33c0,8.06 4.03,12.63 11.46,12.63zm0 -5.19c-4.03,0 -5.65,-2.63 -5.65,-6.89l0 -16.42c0,-4.18 1.63,-6.82 5.65,-6.82 4.03,0 5.58,2.63 5.58,6.82l0 16.42c0,4.26 -1.63,6.89 -5.58,6.89z"/>
   <path class="fil5" d="M630.2 4003.44c-3.79,0 -6.74,2.09 -8.29,5.73 -1.24,-3.95 -4.03,-5.73 -8.06,-5.73 -3.87,0 -6.82,2.17 -8.36,5.89l-0.08 -5.11 -5.03 0 0 38.96 5.81 0 0 -25.87c0,-5.73 2.48,-8.67 5.88,-8.67 3.33,0 4.65,2.4 4.65,6.12l0 28.42 5.89 0 0 -25.87c0,-5.73 2.48,-8.67 5.89,-8.67 3.33,0 4.64,2.4 4.64,6.12l0 28.42 5.81 0 0 -28.81c0,-7.51 -3.25,-10.92 -8.75,-10.92z"/>
   <path class="fil5" d="M656.84 4003.44c-7.51,0 -11.54,4.49 -11.54,12.55l0 15.33c0,8.06 4.03,12.63 11.54,12.63 7.43,0 11.54,-4.57 11.54,-12.63l0 -0.62 -5.65 0 0 1.16c0,4.72 -2.01,6.89 -5.81,6.89 -3.8,0 -5.73,-2.17 -5.73,-6.89l0 -7.28 17.19 0 0 -8.6c0,-8.05 -4.11,-12.55 -11.54,-12.55zm-5.65 16.34l0 -4.34c0,-4.65 1.94,-6.82 5.65,-6.82 3.72,0 5.81,2.17 5.81,6.82l0 4.34 -11.46 0z"/>
   <path class="fil5" d="M687.97 4003.44c-4.1,0 -6.81,2.32 -8.13,7.2l-0.08 -6.43 -5.03 0 0 38.96 5.81 0 0 -22.69c0,-7.51 2.56,-11.23 7.59,-11.23 0.85,0 1.63,0.08 2.4,0.39l0 -5.73c-0.77,-0.39 -1.55,-0.47 -2.56,-0.47z"/>
   <polygon class="fil5" points="707.8,4043.17 729.33,4043.17 729.33,4037.67 713.84,4037.67 713.84,3988.96 707.8,3988.96 "/>
   <path class="fil5" d="M757.6 4043.17c-0.54,-2.25 -0.85,-5.73 -0.85,-10.61l0 -17.35c0,-7.75 -3.33,-11.77 -10.76,-11.77 -6.97,0 -11,4.03 -11,11.31l0 0.85 5.5 0 0 -1.16c0,-3.87 2.02,-5.96 5.42,-5.96 3.33,0 5.04,1.94 5.04,5.81l0 0.93c0,2.63 -0.85,3.41 -7.36,6.35 -7.05,3.33 -9.68,6.74 -9.68,12.78 0,5.89 3.33,9.6 8.67,9.6 4.34,0 7.51,-2.17 9.06,-6.04 0.16,2.48 0.39,4.49 0.62,5.27l5.34 0zm-13.01 -4.34c-3.18,0 -4.8,-1.94 -4.8,-5.34 0,-3.41 1.63,-5.73 5.5,-7.67 3.33,-1.7 4.88,-2.63 5.65,-3.64l0 7.82c0,5.58 -2.4,8.83 -6.35,8.83z"/>
   <path class="fil5" d="M777.81 4003.44c-3.41,0 -6.27,1.7 -7.98,4.65l0 -19.13 -5.81 0 0 54.21 4.26 0 0.77 -5.5c1.55,3.95 4.72,6.27 8.75,6.27 5.73,0 9.14,-3.56 9.14,-11.31l0 -17.97c0,-7.75 -3.41,-11.23 -9.14,-11.23zm3.33 28.73c0,4.03 -1.47,6.58 -5.04,6.58 -3.56,0 -6.27,-2.94 -6.27,-8.67l0 -12.78c0,-5.73 2.71,-8.67 6.27,-8.67 3.56,0 5.04,2.55 5.04,6.5l0 17.04z"/>
   <path class="fil5" d="M804.54 4003.44c-7.51,0 -11.54,4.49 -11.54,12.55l0 15.33c0,8.06 4.03,12.63 11.54,12.63 7.43,0 11.54,-4.57 11.54,-12.63l0 -0.62 -5.65 0 0 1.16c0,4.72 -2.01,6.89 -5.81,6.89 -3.79,0 -5.73,-2.17 -5.73,-6.89l0 -7.28 17.19 0 0 -8.6c0,-8.05 -4.11,-12.55 -11.54,-12.55zm-5.66 16.34l0 -4.34c0,-4.65 1.94,-6.82 5.66,-6.82 3.71,0 5.81,2.17 5.81,6.82l0 4.34 -11.46 0z"/>
   <polygon class="fil5" points="822.43,4043.17 828.24,4043.17 828.24,3988.96 822.43,3988.96 "/>
   <path class="fil5" d="M862 4003.44c-3.49,0 -6.2,1.63 -7.9,4.49l0 -18.97 -5.81 0 0 54.21 5.81 0 0 -25.87c0,-5.81 2.63,-8.67 6.12,-8.67 3.41,0 4.88,2.32 4.88,6.82l0 27.73 5.89 0 0 -28.5c0,-7.75 -3.25,-11.23 -8.98,-11.23z"/>
   <path class="fil5" d="M888.88 4003.44c-7.51,0 -11.54,4.49 -11.54,12.55l0 15.33c0,8.06 4.03,12.63 11.54,12.63 7.43,0 11.54,-4.57 11.54,-12.63l0 -0.62 -5.65 0 0 1.16c0,4.72 -2.01,6.89 -5.81,6.89 -3.79,0 -5.73,-2.17 -5.73,-6.89l0 -7.28 17.19 0 0 -8.6c0,-8.05 -4.11,-12.55 -11.54,-12.55zm-5.65 16.34l0 -4.34c0,-4.65 1.94,-6.82 5.65,-6.82 3.72,0 5.81,2.17 5.81,6.82l0 4.34 -11.46 0z"/>
   <path class="fil5" d="M920.01 4003.44c-4.1,0 -6.82,2.32 -8.13,7.2l-0.08 -6.43 -5.04 0 0 38.96 5.81 0 0 -22.69c0,-7.51 2.55,-11.23 7.59,-11.23 0.85,0 1.63,0.08 2.4,0.39l0 -5.73c-0.77,-0.39 -1.55,-0.47 -2.55,-0.47z"/>
   <path class="fil5" d="M937.59 4003.44c-7.51,0 -11.54,4.49 -11.54,12.55l0 15.33c0,8.06 4.03,12.63 11.54,12.63 7.43,0 11.54,-4.57 11.54,-12.63l0 -0.62 -5.66 0 0 1.16c0,4.72 -2.01,6.89 -5.81,6.89 -3.79,0 -5.73,-2.17 -5.73,-6.89l0 -7.28 17.19 0 0 -8.6c0,-8.05 -4.11,-12.55 -11.54,-12.55zm-5.65 16.34l0 -4.34c0,-4.65 1.94,-6.82 5.65,-6.82 3.72,0 5.81,2.17 5.81,6.82l0 4.34 -11.46 0z"/>
   <path class="fil5" d="M954.48 4050.92l2.25 0c8.52,0 10.92,-4.03 10.92,-11.08l0 -39.89c0,-8.52 -4.03,-11 -10.92,-11l-2.25 0 0 4.65 1.86 0c4.34,0 5.73,2.17 5.73,6.35l0 39.89c0,5.19 -2.25,6.43 -5.73,6.43l-1.86 0 0 4.65z"/>
  </g>
  <polygon class="fil2" points="0.66,485.33 1410,485.33 1410,341.09 0.66,341.09 "/>
  <polygon class="fil2" points="1.32,3013.04 1410.66,3013.04 1410.66,2703.12 1.32,2703.12 "/>
  <path class="fil6" d="M894.67 108.74l9.87 -25.02 22.64 0 3.93 0 -0.02 0.04c18.92,0.48 25.19,5.83 22.65,12.47 -2.53,6.64 -15.97,12.36 -35.8,12.51l-0 0 -0.81 0 -22.47 0zm-292.77 50.58l9.87 -25.02 22.56 0 3.94 0 -0.02 0.03c18.92,0.49 25.19,5.84 22.65,12.47 -2.53,6.64 -15.96,12.36 -35.8,12.51l-0 0.01 -0.8 0 -22.4 0zm19.97 -50.58l9.87 -25.02 22.64 0 3.94 0 -0.02 0.04c18.92,0.48 25.19,5.83 22.65,12.47 -2.53,6.64 -15.97,12.36 -35.8,12.51l-0.01 0 -0.81 0 -22.47 0zm21.76 86.27l2.69 0 0.02 -0.02c66.34,-0.5 110.13,-13.03 118.6,-35.23 7.99,-20.96 -8.91,-32.11 -30.8,-37.99 30.46,-5.34 50.23,-13.98 55.56,-27.96 8.48,-22.21 -12.48,-40.09 -75.74,-41.71l0.07 -0.12 -13.16 0 -56.62 0 0 -0.01 -69.57 0 -107.38 67.02 50.2 76 126.12 0.01 -0 0zm397.89 -0.01l13.62 0 89.81 0 56.46 -143.02 -103.43 0 -52.8 133.76 -57.5 -53.43c39.75,-5.26 65.13,-15.65 74.83,-38.5 9.29,-21.88 -12.49,-40.09 -75.74,-41.71l0.07 -0.12 -13.15 0 -160.04 -0.01 -56.47 143.02 103.44 0 21.01 -53.22 57.27 53.22 102.62 0z"/>
  <polygon class="fil7" points="384.56,195 487.99,195 437.79,118.99 545.17,51.98 441.74,51.98 407.6,73.29 393.53,51.98 290.09,51.98 334.36,118.99 212.57,195 316,195 364.55,164.7 "/>
  <polygon class="fil6" points="792.69,1743.9 731.04,1855.52 792.69,1959.57 1151.21,1959.57 1184.41,1959.57 1184.41,1902.7 1184.41,1799.3 1184.41,1744.07 "/>
  <path class="fil8" d="M906.19 1168.59l7.21 1.82c-1.51,5.91 -4.23,10.43 -8.15,13.54 -3.93,3.1 -8.72,4.66 -14.39,4.66 -5.88,0 -10.64,-1.19 -14.32,-3.58 -3.68,-2.39 -6.48,-5.85 -8.4,-10.38 -1.92,-4.53 -2.87,-9.39 -2.87,-14.59 0,-5.67 1.08,-10.61 3.25,-14.84 2.17,-4.22 5.25,-7.42 9.24,-9.61 4,-2.2 8.4,-3.29 13.21,-3.29 5.45,0 10.03,1.39 13.74,4.16 3.72,2.77 6.31,6.67 7.77,11.7l-7.09 1.67c-1.26,-3.96 -3.1,-6.84 -5.5,-8.65 -2.4,-1.81 -5.42,-2.71 -9.06,-2.71 -4.18,0 -7.69,1 -10.49,3.01 -2.81,2 -4.79,4.7 -5.93,8.08 -1.14,3.38 -1.71,6.87 -1.71,10.46 0,4.63 0.68,8.67 2.03,12.13 1.34,3.45 3.45,6.03 6.29,7.75 2.85,1.71 5.93,2.56 9.25,2.56 4.04,0 7.45,-1.16 10.25,-3.49 2.8,-2.33 4.69,-5.78 5.68,-10.36z"/>
  <path class="fil8" d="M874.25 1090.36l13.55 0c2.33,0 3.96,-0.08 4.91,-0.26 1.66,-0.3 3.05,-0.79 4.16,-1.48 1.11,-0.69 2.03,-1.7 2.74,-3.03 0.72,-1.32 1.08,-2.85 1.08,-4.59 0,-2.03 -0.51,-3.79 -1.56,-5.29 -1.03,-1.5 -2.48,-2.55 -4.33,-3.16 -1.84,-0.61 -4.5,-0.91 -7.97,-0.91l-12.59 0 0 18.72zm0 -25.14l11.77 0c3.19,0 5.48,-0.21 6.87,-0.63 1.83,-0.55 3.21,-1.45 4.14,-2.71 0.93,-1.26 1.39,-2.85 1.39,-4.76 0,-1.8 -0.43,-3.4 -1.29,-4.77 -0.87,-1.37 -2.11,-2.31 -3.72,-2.82 -1.61,-0.51 -4.36,-0.76 -8.27,-0.76l-10.89 0 0 16.46zm-7.21 31.57l0 -54.45 20.43 0c4.16,0 7.5,0.55 10.01,1.65 2.52,1.1 4.49,2.8 5.91,5.09 1.42,2.29 2.13,4.69 2.13,7.19 0,2.32 -0.63,4.52 -1.89,6.57 -1.26,2.05 -3.17,3.72 -5.73,4.98 3.29,0.97 5.83,2.61 7.59,4.94 1.78,2.32 2.66,5.07 2.66,8.24 0,2.56 -0.54,4.92 -1.61,7.11 -1.07,2.19 -2.41,3.88 -4,5.07 -1.58,1.18 -3.57,2.09 -5.96,2.69 -2.39,0.61 -5.32,0.91 -8.79,0.91l-20.76 0z"/>
  <polygon class="fil8" points="867.49,1366.41 867.49,1311.96 906.86,1311.96 906.86,1318.39 874.7,1318.39 874.7,1335.06 904.82,1335.06 904.82,1341.45 874.7,1341.45 874.7,1359.99 908.13,1359.99 908.13,1366.41 "/>
  <polygon class="fil8" points="867.72,1457.39 867.72,1402.93 904.45,1402.93 904.45,1409.36 874.92,1409.36 874.92,1426.22 900.47,1426.22 900.47,1432.65 874.92,1432.65 874.92,1457.39 "/>
  <path class="fil8" d="M892.82 1526.65l0 -6.38 23.07 -0.04 0 20.2c-3.55,2.83 -7.19,4.95 -10.96,6.37 -3.76,1.42 -7.62,2.13 -11.58,2.13 -5.35,0 -10.21,-1.15 -14.58,-3.44 -4.37,-2.29 -7.67,-5.59 -9.9,-9.94 -2.23,-4.33 -3.35,-9.17 -3.35,-14.52 0,-5.3 1.11,-10.24 3.32,-14.83 2.22,-4.6 5.41,-8.01 9.57,-10.24 4.15,-2.23 8.95,-3.34 14.37,-3.34 3.94,0 7.5,0.64 10.68,1.91 3.18,1.28 5.68,3.05 7.48,5.33 1.81,2.28 3.18,5.25 4.12,8.91l-6.49 1.79c-0.82,-2.78 -1.84,-4.96 -3.05,-6.54 -1.21,-1.59 -2.94,-2.85 -5.2,-3.81 -2.25,-0.96 -4.75,-1.43 -7.5,-1.43 -3.29,0 -6.13,0.5 -8.54,1.51 -2.41,1 -4.34,2.32 -5.81,3.95 -1.47,1.63 -2.61,3.43 -3.43,5.39 -1.39,3.36 -2.08,7.02 -2.08,10.95 0,4.85 0.84,8.92 2.51,12.18 1.67,3.27 4.11,5.7 7.3,7.28 3.19,1.59 6.58,2.38 10.18,2.38 3.11,0 6.16,-0.6 9.13,-1.8 2.97,-1.19 5.23,-2.48 6.76,-3.85l0 -10.14 -16.01 0z"/>
  <path class="fil8" d="M874.55 1272.23l11.63 0c3.58,0 6.4,-0.33 8.45,-1 2.04,-0.67 3.67,-1.61 4.88,-2.82 1.7,-1.71 3.04,-4.01 3.99,-6.89 0.96,-2.88 1.43,-6.38 1.43,-10.49 0,-5.7 -0.93,-10.07 -2.81,-13.13 -1.87,-3.05 -4.14,-5.11 -6.82,-6.15 -1.94,-0.74 -5.04,-1.12 -9.32,-1.12l-11.44 0 0 41.6zm-7.21 6.43l0 -54.45 18.76 0c4.24,0 7.47,0.26 9.69,0.78 3.12,0.72 5.79,2.02 7.98,3.9 2.88,2.43 5.02,5.53 6.44,9.31 1.43,3.77 2.14,8.09 2.14,12.94 0,4.13 -0.49,7.8 -1.46,10.99 -0.96,3.19 -2.2,5.84 -3.71,7.93 -1.51,2.1 -3.16,3.74 -4.96,4.94 -1.79,1.21 -3.96,2.11 -6.5,2.73 -2.54,0.62 -5.45,0.93 -8.75,0.93l-19.65 0z"/>
  <path class="fil8" d="M877.07 983.66l18.46 0 -5.68 -15.08c-1.73,-4.58 -3.02,-8.34 -3.86,-11.29 -0.7,3.49 -1.67,6.96 -2.94,10.4l-5.98 15.97zm-15.71 22.36l20.91 -54.45 7.77 0 22.28 54.45 -8.2 0 -6.36 -16.49 -22.77 0 -5.97 16.49 -7.66 0z"/>
  <path class="fil9" d="M1032.92 704.69c12.94,0 23.46,31.74 23.46,70.73 0,39.16 -10.52,70.73 -23.46,70.73 -12.94,0 -23.46,-31.57 -23.46,-70.73 0,-38.99 10.52,-70.73 23.46,-70.73zm-46.06 -1.55l20.01 0 0 6.9 -20.01 0 0 -6.9zm-4.83 15.35l18.98 0 0 7.94 -18.98 0 0 -7.94zm-4.14 19.67l18.11 0 0 8.45 -18.11 0 0 -8.45zm-3.11 22.95l20.36 0 0 8.45 -20.36 0 0 -8.45zm0.86 22.94l18.29 0 0 8.11 -18.29 0 0 -8.11zm3.28 22.95l15.53 0 0 5.35 -15.53 0 0 -5.35zm3.11 20.01l15.01 0 0 3.45 -15.01 0 0 -3.45zm6.21 16.22l14.49 0 0 4.49 -14.49 0 0 -4.49zm6.21 12.76l13.63 0 0 3.97 -13.63 0 0 -3.97zm1.38 -166.65l17.42 0 0 6.21 -17.42 0 0 -6.21zm39.68 181.65l-0.35 0 -41.4 0c-18.63,-17.08 -31.05,-43.13 -31.57,-95.4 -0.69,-52.44 11.56,-81.6 33.47,-95.92 10.87,-6.04 38.81,-2.07 47.27,4.48 15.52,9.66 27.08,47.27 27.08,92.13 0,52.1 -15.35,94.19 -34.5,94.71zm-40.54 -194.42c-46.93,22.26 -59,141.12 -12.08,193.05l-21.22 0c-4.14,-2.42 -7.93,-5.52 -11.39,-9.14l10.53 0 0 -2.07 -12.25 0c-3.11,-3.45 -5.87,-7.25 -8.28,-11.56l8.11 0 0 -2.58 -9.66 0c-2.42,-4.49 -4.48,-9.15 -6.39,-14.15l13.8 0 0 -3.97 -15.18 0c-1.38,-4.66 -2.76,-9.31 -3.96,-14.32l14.14 0 0 -4.83 -15.01 0c-0.86,-5.18 -1.55,-10.53 -2.07,-15.7l11.91 0 0 -5.69 -12.43 0c-0.34,-6.04 -0.34,-12.08 0,-18.11l12.77 0 0 -6.21 -12.59 0c0.51,-4.49 0.86,-8.8 1.55,-13.11l15.7 0 0 -12.25 -13.46 0c0.69,-2.94 1.56,-5.69 2.25,-8.45l17.77 0 0 -9.14 -14.66 0c1.38,-3.45 2.93,-6.73 4.31,-10.01l15.53 0 0 -6.04 -12.08 0c1.72,-2.93 3.63,-5.52 5.7,-8.11l16.56 0 0 -5.52 -11.56 0c11.21,-10.87 25.7,-16.22 43.65,-12.08zm34.68 37.96c9.49,0 17.08,26.91 17.08,60.03 0,33.13 -7.59,59.86 -17.08,59.86 -9.32,0 -17.08,-26.74 -17.08,-59.86 0,-33.12 7.77,-60.03 17.08,-60.03z"/>
  <path class="fil9" d="M1056.55 667.05c-0.17,-0.82 -0.17,-1.64 -0.17,-2.46 0,-8.37 8.86,-15.09 20.18,-15.42 -0.66,-0.99 -0.82,-2.13 -0.82,-3.29 0,-6.23 7.39,-11.16 16.41,-11.16 2.78,0 5.41,0.49 7.87,1.32 1.48,-4.92 7.06,-8.37 13.62,-8.37 7.88,0 14.27,4.92 14.27,11.16l0 0.17c4.92,1.14 8.86,5.24 8.86,10.17 0,2.46 -0.98,4.75 -2.46,6.39 1.96,-0.65 4.26,-0.98 6.55,-0.98 9.36,0 16.91,5.42 16.91,11.81l0 0.66 -101.24 0z"/>
  <path class="fil8" d="M1063.76 686.09c1.8,-4.92 8.2,-10.34 21.5,-14.28l2.13 -0.33 -0.32 2.13c-1.15,13.45 -5.91,20.34 -10.51,22.97 -3.77,2.3 -7.87,1.8 -10.5,-0.49 -2.63,-2.14 -3.94,-5.74 -2.3,-10.01zm20.18 -10.67c-10.83,3.28 -15.92,7.88 -17.39,11.65 -1.15,2.95 -0.33,5.41 1.31,6.89 1.8,1.32 4.59,1.64 7.22,0.17 3.77,-2.14 7.55,-7.88 8.86,-18.7z"/>
  <path class="fil8" d="M1091.65 684.77c1.8,-4.92 8.04,-10.34 21.5,-14.11l2.13 -0.65 -0.16 2.13c-1.31,13.45 -5.9,20.51 -10.66,23.13 -3.93,2.3 -7.71,1.64 -10.34,-0.49 -2.79,-2.13 -4.1,-5.91 -2.46,-10.01zm20.35 -10.83c-11,3.45 -16.08,7.88 -17.72,11.98 -0.98,2.62 -0.17,5.08 1.47,6.56 1.8,1.48 4.6,1.8 7.23,0.16 3.77,-2.13 7.55,-7.71 9.02,-18.7z"/>
  <path class="fil8" d="M1115.78 685.92c1.96,-5.08 8.04,-10.67 21.49,-14.28l2.14 -0.65 -0.17 2.14c-1.31,13.61 -5.91,20.51 -10.66,23.13 -3.93,2.3 -7.87,1.64 -10.5,-0.5 -2.63,-2.13 -3.94,-5.9 -2.3,-9.84zm20.18 -10.83c-10.83,3.29 -15.91,7.88 -17.39,11.82 -1.15,2.79 -0.16,5.25 1.48,6.56 1.64,1.48 4.43,1.8 7.05,0.33 3.78,-2.13 7.55,-7.71 8.86,-18.7z"/>
  <path class="fil8" d="M1098.22 715.45c1.96,-4.92 8.2,-10.33 21.5,-14.11l1.96 -0.66 -0.16 2.13c-1.31,13.62 -5.74,20.51 -10.34,23.13 -3.94,2.3 -8.04,1.64 -10.66,-0.49 -2.63,-2.14 -3.94,-5.75 -2.3,-10.01zm20.19 -10.66c-10.83,3.29 -15.92,7.88 -17.4,11.82 -1.14,2.79 -0.33,5.25 1.48,6.56 1.64,1.48 4.43,1.64 7.05,0.33 3.78,-2.14 7.55,-7.88 8.86,-18.71z"/>
  <path class="fil8" d="M1072.79 715.95c1.8,-5.08 8.04,-10.66 21.5,-14.28l1.96 -0.65 -0.16 2.14c-1.31,13.61 -5.74,20.51 -10.51,23.29 -3.93,1.97 -7.87,1.64 -10.49,-0.49 -2.63,-2.3 -3.94,-5.91 -2.3,-10.01zm20.02 -10.83c-10.83,3.29 -15.92,7.88 -17.39,11.82 -0.99,2.79 -0.33,5.25 1.48,6.73 1.8,1.15 4.43,1.64 7.22,0.16 3.77,-2.13 7.55,-7.71 8.7,-18.7z"/>
  <path class="fil9" d="M928.89 843.56c-3.62,-28.98 -19.84,-44.16 -28.81,-33.64 -8.28,22.26 17.6,21.22 28.81,33.64z"/>
  <path class="fil9" d="M944.24 867.37c-17.77,-24.15 -40.02,-29.5 -42.61,-15.7 3.79,24.15 26.39,10.35 42.61,15.7z"/>
  <path class="fil9" d="M1053.1 869.1c13.63,-22.08 32.61,-28.12 35.71,-16.39 -1.73,21.04 -22.08,10.52 -35.71,16.39z"/>
  <path class="fil9" d="M1066.38 841.32c4.66,-25.88 20.19,-38.64 27.61,-28.81 6.38,20.53 -16.91,18.29 -27.61,28.81z"/>
  <polygon class="fil10" points="276.93,943.12 283.76,943.12 351.16,943.12 389.57,979.75 351.16,1016.87 283.76,1016.87 276.93,1016.87 257.07,1016.87 257.07,943.12 "/>
  <polygon class="fil11" points="344.97,1122.35 349.04,1122.35 419.2,1122.35 457.13,1159.47 419.2,1196.09 349.04,1196.09 344.97,1196.09 257.07,1196.09 257.07,1122.35 "/>
  <polygon class="fil12" points="371.02,1212.05 375.09,1212.05 445.25,1212.05 483.18,1249.16 445.25,1285.95 375.09,1285.95 371.02,1285.95 257.07,1285.95 257.07,1212.05 "/>
  <polygon class="fil13" points="388.27,1301.74 392.34,1301.74 462.51,1301.74 500.6,1338.7 462.51,1375.49 392.34,1375.49 388.27,1375.49 257.07,1375.49 257.07,1301.74 "/>
  <polygon class="fil14" points="311.12,1032.82 317.63,1032.82 385.83,1032.82 423.76,1069.93 385.83,1106.56 317.63,1106.56 311.12,1106.56 257.06,1106.56 257.06,1032.82 "/>
  <polygon class="fil7" points="455.02,1480.81 457.62,1480.81 529.25,1480.81 567.5,1517.59 529.25,1554.71 457.62,1554.71 440.2,1554.71 257.07,1554.71 257.07,1480.81 "/>
  <polygon class="fil15" points="414.48,1391.27 419.53,1391.27 488.71,1391.27 526.97,1428.06 488.71,1465.02 419.53,1465.02 414.48,1465.02 257.07,1465.02 257.07,1391.27 "/>
  <path class="fil16" d="M241.34 2495.19c-4.65,2.16 -7.3,3.49 -11.62,3.49 -13.45,0 -21.59,-8.8 -21.59,-20.09l0 -9.3c0,-11.3 8.14,-19.93 21.59,-19.93 4.32,0 6.98,0.66 11.62,2.99 1.33,0.5 2.83,1.67 1.33,3.99l-2.65 3.65c-0.83,1.33 -2.32,2.16 -4.81,1.16 -1.83,-0.83 -2.32,-1.66 -4.65,-1.66 -6.81,0 -8.3,5.32 -8.3,11.46l0 5.97c0,6.15 1.49,11.46 8.3,11.46 2.33,0 2.83,-1.16 4.65,-1.99 2.49,-1 3.65,-0.17 4.65,1l2.82 3.48c1.66,2.49 0,3.66 -1.33,4.32z"/>
  <path class="fil16" d="M276.21 2465.97c0,-3.99 -3.65,-6.98 -7.81,-6.98 -4.48,0 -7.97,2.99 -7.97,6.98l0 15.94c0,3.98 3.66,6.98 7.97,6.98 4.15,0 7.81,-2.99 7.81,-6.98l0 -15.94zm-7.81 32.38c-12.29,0 -21.92,-8.97 -21.92,-19.93l0 -9.47c0,-11.29 9.63,-19.93 21.92,-19.93 11.62,0 21.75,8.64 21.75,19.93l0 9.47c0,10.96 -9.96,19.93 -21.75,19.93z"/>
  <path class="fil16" d="M330.68 2496.69l-4.81 0c-2.66,0 -4.49,-1.49 -4.49,-4.15l0 -28.56c0,-2.66 -2.82,-4.81 -6.14,-4.81 -3.32,0 -6.15,2.32 -6.15,4.81l0 28.56c0,2.66 -1.66,4.15 -4.49,4.15l-4.98 0c-2.66,0 -4.48,-1.49 -4.48,-4.15l0 -33.21c0,-4.15 3.99,-5.48 7.31,-4.48l1.66 0.5c1.5,0.33 2.16,0.16 2.66,-0.66 2.49,-3.66 7.14,-5.32 12.79,-5.32 10.46,0 15.78,8.48 15.78,16.94l0 26.24c0,2.66 -1.66,4.15 -4.65,4.15z"/>
  <path class="fil16" d="M372.03 2464.97c0,-3.48 -3.15,-6.47 -6.98,-6.47 -4.15,0 -7.97,2.99 -7.97,6.47l0 17.61c0,3.31 3.82,5.97 7.97,5.97 3.82,0 6.98,-2.66 6.98,-5.97l0 -17.61zm-4.15 33.71c-2.99,0 -6.32,-1.66 -8.3,-3.48 -0.5,-0.5 -1.67,-0.66 -1.67,0.16l0 12.46c0,1.83 -0.99,3.82 -3.32,4.65l-5.31 1.17c-2.32,0.82 -5.65,-0.66 -5.65,-4.49l0 -49.98c0,-4.32 3.32,-5.81 6.64,-4.82l1.5 0.34c1.99,0.16 2.16,-0.34 2.99,-1 3.49,-2.65 7.97,-4.32 13.12,-4.32 11.79,0 18.09,6.8 18.09,16.27l0 16.95c0,10.45 -7.8,16.1 -18.09,16.1z"/>
  <path class="fil16" d="M414.37 2459c-4.65,0 -8.64,3.15 -8.64,6.48l0 1.83c0,2.16 2.66,3.15 3.82,3.15l6.48 0c2.99,0 5.14,-1.99 5.14,-5.64 0,-3.66 -3.16,-5.81 -6.81,-5.81zm4.49 19.43l-9.8 0c-1.33,0 -2.65,0.5 -2.65,1.66 0,3.98 2.49,8.29 8.13,8.29 2.32,0 7.31,-1.65 9.14,-2.65 2.49,-0.83 3.98,-0.17 5.31,1.33l2.49 3.32c1.67,2.16 -0.33,3.82 -1.66,4.48 -4.65,2 -11.95,3.82 -16.11,3.82 -13.61,0 -21.75,-8.8 -21.75,-20.09l0 -7.97c0,-12.12 8.64,-21.25 21.75,-21.25 10.46,0 19.09,5.32 19.09,13.62l0 4.15c0,5.15 -6.47,11.29 -13.94,11.29z"/>
  <path class="fil16" d="M464.69 2458.5l-6.48 0c-1,0 -1,0.5 -1,1.16l0 25.57c0,1.83 1.33,2.16 4.15,2.16 2.99,0 4.15,1.16 4.15,3.15l0 2.99c0,1.99 -0.49,2.49 -3.81,3.15l-5.65 0c-6.47,0 -12.78,-3.15 -12.78,-9.29l0 -26.74c0,-1.33 -0.17,-2.16 -1.5,-2.16l-2.16 0c-3.65,0 -4.15,-4.82 -2.16,-5.98 1.33,-1 4.81,-1.66 6.81,-3.65 2.99,-2.66 3.48,-2.83 4.65,-6.31 0.83,-2.33 3.82,-2.33 4.65,-1.99l2.16 0.83c1.49,0.66 2.49,1.83 2.49,3.82 0,2.81 0.83,4.81 5.65,4.81l0.83 0c2.49,0 4.98,2.32 4.98,4.32 0,1.99 -2.32,4.15 -4.98,4.15z"/>
  <path class="fil17" d="M313.41 2227.68l0 0.66 0.5 0c22.42,-5.81 45.17,7.48 51.14,29.89 5.48,19.76 -4.65,41.19 -23.58,49.48l-0.32 0.17 0.32 0.34c2.16,1.65 4.15,3.31 5.65,5.15l0.33 0.17c7.97,8.13 18.77,12.62 30.22,12.62 11.46,0 22.26,-4.49 30.22,-12.62 16.44,-16.44 16.61,-43.34 0.34,-60.12 0.16,0.17 -0.34,-0.5 -0.34,-0.5 -24.57,-24.74 -60.77,-34.37 -94.49,-25.24z"/>
  <path class="fil18" d="M435.79 2316.35c-2.99,5.31 -6.64,10.13 -10.79,14.28 -25.91,26.07 -68.25,26.24 -94.32,0.5l-0.33 -0.34c-1.49,-1.49 -3.15,-2.99 -4.82,-4.15l-0.33 -0.33 -0.17 0.5c-4.82,33.88 16.44,66.09 49.48,74.89 5.64,1.49 11.62,2.32 17.93,2.32 0.33,-0.17 5.81,-2.82 15.78,-12.79 19.42,-19.59 29.72,-46.83 28.06,-74.72l0 -1 -0.5 0.83z"/>
  <path class="fil19" d="M328.02 2312.36c-5.14,2.16 -10.13,4.98 -14.62,8.3l-0.49 0.34 0.66 0.16c4.15,1.33 7.97,3.32 11.62,5.81l0.33 0.49 0 -0.66c0.5,-2.49 1,-4.98 1.49,-7.47l0.17 -0.17c0.49,-2.15 0.82,-4.32 1.16,-6.47l0 -0.5 -0.34 0.16z"/>
  <path class="fil20" d="M313.41 2320.67c-17.6,12.79 -27.73,33.54 -27.73,54.8 0,5.81 0.83,11.79 2.33,17.44 1.66,5.81 3.98,11.29 7.14,16.61l0.17 0.33 1.49 0.66 1.99 1 2.49 1.16 1.82 0.66 2.65 1 1.83 0.66 3.16 0.83 1.33 0.5c13.12,3.65 27.06,4.65 40.52,2.66l2.99 -0.34c13.12,-2.32 25.58,-7.3 37.03,-14.78l0.84 -0.5 -1 0c-6.15,0 -12.12,-0.83 -17.77,-2.33 -32.72,-8.63 -53.8,-40.52 -49.16,-74.23l0 -0.16c-3.65,-2.65 -7.47,-4.82 -11.78,-6.15l-0.17 0 -0.16 0.17 0 -0z"/>
  <path class="fil21" d="M327.02 2299.58c1,4.31 1.16,8.64 0.67,13.12l0 0.66 0.5 -0.33c2.49,-1 4.65,-1.83 7.31,-2.49l0.16 0c2.16,-0.66 4.16,-1.33 6.15,-2.32l0.33 -0.17 -0.17 -0.33c-4.48,-3.48 -9.29,-6.15 -14.44,-8.47l-0.66 -0.33 0.16 0.66z"/>
  <path class="fil22" d="M313.91 2227.68l-0.5 0 -0.5 0 -1.16 0.5 -1.65 0.5 -2.83 0.83 -1.82 0.83 -2.66 0.83 -2.15 0.83 -2.16 1 -2.32 1.17 -2.16 1 -2.15 1.16 -0.34 0.17 -1.49 1 -2.49 1.33 -0.17 0.16 -1.49 1 -2.32 1.49 -1.67 1.16 -2.32 1.83 -1.49 1.16 -2.32 1.83 -1.33 1.16 -2.32 2.32 -1 0.84 -2.66 2.49 -0.66 0.99 -2.65 2.99c-5.98,6.81 -10.79,14.28 -14.61,22.58l-0.33 0.5 -0.66 1.16 -0.33 1.16 -0.34 0.5 -1.33 3.48 -0.16 0.33c-1,2.82 -1.82,5.81 -2.66,8.8l0.67 0.16 0 -0.16c6.14,-22.08 29.23,-35.37 51.31,-29.56 15.45,4.32 27.23,16.61 30.39,32.38l0.17 0.17c5.15,2.16 9.96,5.15 14.28,8.47l0 0.16 0.34 -0.16c19.1,-8.47 29.39,-30.06 23.91,-50.32 -6.14,-22.42 -29.23,-36.04 -51.81,-30.22z"/>
  <path class="fil14" d="M252.3 2313.03c-3.99,4.32 -7.64,9.13 -10.79,14.44l-0.16 0 0 0.17 0.16 2.32 0.16 1.99 0.33 2.99 0.17 1.83 0.66 2.82 0.33 1.83 0.5 3.15 0.5 1.33 0.83 3.49 0.33 1c2.66,8.8 6.64,17.27 11.46,24.91 0.17,0 0.17,0.17 0.17,0.17l1.99 2.82 0.16 0.5 0.84 1.16 1 1.33 0.33 0.33 2.32 2.82 0.17 0.34c1.83,2.15 3.82,4.32 5.97,6.48l0.5 -0.34 -0.17 -0.33c-15.94,-16.44 -15.94,-43.01 0.33,-59.29 11.3,-11.29 27.9,-15.28 43.18,-10.13l0.16 -0.17c4.49,-3.16 9.3,-5.98 14.45,-7.97l0.17 -0.17 0 -0.16c0.5,-4.48 0.33,-8.97 -0.66,-13.28l0 -0.17 -0.17 0c-25.41,-11.29 -55.63,-5.65 -75.22,13.78l-0 0z"/>
  <path class="fil21" d="M244.66 2296.59l0 0.17c-2.16,8.3 -3.32,16.77 -3.32,25.41 0,1.83 0,3.65 0.17,5.48l0 1.16 0.5 -1.16c2.99,-5.32 6.65,-9.96 10.8,-14.11 19.26,-19.26 49.32,-24.91 74.39,-13.79l0.66 0.17 -0.17 -0.5c-3.32,-16.11 -15.11,-28.56 -30.89,-32.72 -22.59,-5.97 -45.67,7.31 -52.15,29.89l0 0z"/>
  <path class="fil19" d="M269.9 2330.96c-8.14,8.3 -12.45,19.26 -12.45,30.22 0,10.63 4.15,21.59 12.28,29.89 -0.16,-0.17 0,0.17 0,0.17 7.48,7.47 16.11,13.61 25.41,18.44l1 0.49 -0.66 -1c-2.99,-5.31 -5.32,-10.79 -6.8,-16.44 -7.14,-26.4 2.81,-55.29 25.07,-71.73l0.5 -0.33 -0.5 -0.17c-15.45,-4.98 -32.21,-1.16 -43.84,10.47l0 -0z"/>
  <path class="fil3" d="M327.3 1168.88l7.19 1.81c-1.51,5.9 -4.22,10.4 -8.13,13.5 -3.92,3.1 -8.7,4.65 -14.35,4.65 -5.85,0 -10.61,-1.19 -14.28,-3.57 -3.66,-2.38 -6.46,-5.84 -8.36,-10.36 -1.91,-4.52 -2.88,-9.37 -2.88,-14.55 0,-5.65 1.08,-10.59 3.24,-14.8 2.16,-4.21 5.23,-7.41 9.22,-9.59 3.99,-2.19 8.38,-3.28 13.17,-3.28 5.43,0 10,1.38 13.7,4.15 3.71,2.77 6.28,6.66 7.74,11.67l-7.07 1.67c-1.26,-3.95 -3.09,-6.83 -5.48,-8.63 -2.4,-1.8 -5.41,-2.71 -9.04,-2.71 -4.17,0 -7.66,1 -10.47,3 -2.8,2 -4.77,4.69 -5.9,8.05 -1.14,3.37 -1.7,6.85 -1.7,10.43 0,4.61 0.67,8.65 2.01,12.09 1.34,3.44 3.44,6.02 6.29,7.72 2.84,1.7 5.91,2.56 9.22,2.56 4.02,0 7.44,-1.16 10.23,-3.48 2.78,-2.32 4.67,-5.76 5.67,-10.33z"/>
  <path class="fil3" d="M295.44 1090.86l13.51 0c2.32,0 3.95,-0.09 4.89,-0.26 1.65,-0.3 3.04,-0.79 4.15,-1.48 1.11,-0.69 2.02,-1.7 2.74,-3.02 0.72,-1.32 1.08,-2.85 1.08,-4.57 0,-2.03 -0.52,-3.78 -1.56,-5.28 -1.03,-1.49 -2.47,-2.54 -4.31,-3.14 -1.84,-0.61 -4.48,-0.91 -7.94,-0.91l-12.56 0 0 18.67zm0 -25.08l11.74 0c3.18,0 5.47,-0.21 6.85,-0.63 1.82,-0.54 3.2,-1.44 4.13,-2.7 0.92,-1.26 1.39,-2.84 1.39,-4.75 0,-1.8 -0.43,-3.39 -1.29,-4.76 -0.86,-1.37 -2.1,-2.31 -3.71,-2.82 -1.6,-0.5 -4.35,-0.76 -8.25,-0.76l-10.85 0 0 16.41zm-7.19 31.48l0 -54.3 20.38 0c4.15,0 7.47,0.55 9.98,1.65 2.51,1.1 4.48,2.79 5.89,5.07 1.42,2.28 2.13,4.67 2.13,7.17 0,2.32 -0.63,4.5 -1.88,6.56 -1.26,2.05 -3.16,3.7 -5.7,4.96 3.28,0.96 5.8,2.61 7.57,4.92 1.76,2.32 2.64,5.07 2.64,8.23 0,2.54 -0.53,4.91 -1.61,7.09 -1.07,2.19 -2.4,3.87 -3.98,5.06 -1.58,1.18 -3.56,2.08 -5.95,2.68 -2.37,0.61 -5.3,0.91 -8.76,0.91l-20.71 0z"/>
  <polygon class="fil3" points="288.7,1366.16 288.7,1311.86 327.96,1311.86 327.96,1318.27 295.89,1318.27 295.89,1334.9 325.93,1334.9 325.93,1341.27 295.89,1341.27 295.89,1359.75 329.22,1359.75 329.22,1366.16 "/>
  <polygon class="fil3" points="288.92,1456.88 288.92,1402.58 325.56,1402.58 325.56,1408.99 296.11,1408.99 296.11,1425.81 321.59,1425.81 321.59,1432.22 296.11,1432.22 296.11,1456.88 "/>
  <path class="fil3" d="M313.96 1525.96l0 -6.37 23 -0.04 0 20.15c-3.53,2.81 -7.17,4.93 -10.92,6.36 -3.76,1.42 -7.6,2.13 -11.55,2.13 -5.34,0 -10.19,-1.14 -14.54,-3.43 -4.36,-2.28 -7.65,-5.58 -9.87,-9.91 -2.23,-4.32 -3.34,-9.15 -3.34,-14.48 0,-5.28 1.11,-10.21 3.32,-14.8 2.21,-4.58 5.39,-7.98 9.54,-10.2 4.15,-2.22 8.93,-3.34 14.33,-3.34 3.93,0 7.47,0.64 10.65,1.91 3.17,1.27 5.66,3.04 7.47,5.31 1.8,2.27 3.17,5.24 4.11,8.89l-6.48 1.78c-0.82,-2.77 -1.83,-4.94 -3.04,-6.52 -1.21,-1.58 -2.93,-2.84 -5.18,-3.79 -2.25,-0.95 -4.75,-1.42 -7.49,-1.42 -3.28,0 -6.12,0.5 -8.51,1.5 -2.4,1 -4.33,2.31 -5.8,3.94 -1.47,1.63 -2.61,3.42 -3.42,5.38 -1.39,3.35 -2.08,7 -2.08,10.92 0,4.84 0.84,8.9 2.51,12.15 1.67,3.26 4.09,5.68 7.28,7.26 3.18,1.58 6.56,2.37 10.15,2.37 3.11,0 6.15,-0.6 9.11,-1.8 2.97,-1.19 5.21,-2.48 6.74,-3.83l0 -10.11 -15.97 0z"/>
  <path class="fil3" d="M295.73 1272.23l11.6 0c3.57,0 6.38,-0.33 8.42,-1 2.04,-0.66 3.66,-1.6 4.87,-2.81 1.7,-1.71 3.03,-3.99 3.98,-6.88 0.95,-2.88 1.43,-6.36 1.43,-10.46 0,-5.68 -0.93,-10.05 -2.8,-13.09 -1.86,-3.05 -4.13,-5.09 -6.8,-6.13 -1.93,-0.74 -5.02,-1.11 -9.3,-1.11l-11.41 0 0 41.49zm-7.18 6.41l0 -54.3 18.71 0c4.23,0 7.45,0.26 9.66,0.77 3.11,0.72 5.76,2.01 7.97,3.9 2.86,2.42 5.01,5.51 6.43,9.28 1.41,3.76 2.12,8.06 2.12,12.91 0,4.12 -0.48,7.78 -1.44,10.96 -0.96,3.19 -2.2,5.82 -3.7,7.9 -1.51,2.09 -3.16,3.73 -4.95,4.93 -1.79,1.19 -3.95,2.1 -6.48,2.72 -2.53,0.62 -5.44,0.93 -8.73,0.93l-19.59 0z"/>
  <path class="fil3" d="M298.26 984.45l18.41 0 -5.66 -15.04c-1.73,-4.57 -3.01,-8.33 -3.86,-11.26 -0.69,3.48 -1.66,6.94 -2.93,10.37l-5.96 15.93zm-15.67 22.3l20.86 -54.3 7.74 0 22.23 54.3 -8.19 0 -6.34 -16.45 -22.7 0 -5.97 16.45 -7.63 0z"/>
  <path class="fil8" d="M266.64 2040.57l0 0 917.07 -1.63 0 -375 -917.07 0c-12.3,0 -23.41,4.89 -31.67,12.71 -8.08,7.82 -12.96,18.74 -12.96,30.46l0 290.13 0 0.16c0,11.73 4.88,22.64 12.96,30.47 8.09,7.82 19.2,12.71 31.67,12.71l0 -0zm0 17.11l0 0c-17.18,0 -32.67,-6.85 -43.96,-17.92 -11.11,-10.75 -18.19,-25.74 -18.36,-42.36l0 -0.16 0 -290.13c0,-16.61 7.08,-31.6 18.36,-42.52 11.29,-11.08 26.78,-17.92 43.96,-17.92l926.01 0 8.76 0 0 8.63 0 391.95 0 8.64 -8.76 0 -926.01 1.63 0 0.16 0 0z"/>
  <path class="fil9" d="M532.98 706.26c12.56,0 22.77,30.81 22.77,68.65 0,38.01 -10.21,68.65 -22.77,68.65 -12.56,0 -22.6,-30.64 -22.6,-68.65 0,-37.85 10.05,-68.65 22.6,-68.65zm-44.54 -1.5l19.42 0 0 6.7 -19.42 0 0 -6.7zm-4.86 14.9l18.42 0 0 7.71 -18.42 0 0 -7.71zm-3.85 19.09l17.58 0 0 8.2 -17.58 0 0 -8.2zm-3.18 22.27l19.75 0 0 8.2 -19.75 0 0 -8.2zm1 22.27l17.75 0 0 7.87 -17.75 0 0 -7.87zm3.01 22.27l15.07 0 0 5.19 -15.07 0 0 -5.19zm3.02 19.42l14.57 0 0 3.35 -14.57 0 0 -3.35zm6.03 15.74l14.06 0 0 4.35 -14.06 0 0 -4.35zm6.02 12.39l13.4 0 0 3.85 -13.4 0 0 -3.85zm1.5 -161.75l16.75 0 0 6.03 -16.75 0 0 -6.03zm38.35 176.32l-0.33 0 -40.19 0c-18.09,-16.58 -30.14,-41.87 -30.64,-92.6 -0.67,-50.9 11.22,-79.2 32.65,-93.1 10.38,-5.86 37.51,-2.01 45.88,4.35 15.07,9.38 26.29,45.88 26.29,89.42 0,50.56 -15.07,91.42 -33.66,91.93zm-39.18 -188.71c-45.54,21.6 -57.26,136.97 -11.88,187.38l-20.6 0c-4.02,-2.35 -7.7,-5.36 -11.05,-8.88l10.21 0 0 -2.01 -11.89 0c-2.84,-3.35 -5.69,-7.03 -8.04,-11.22l7.87 0 0 -2.51 -9.38 0c-2.34,-4.35 -4.35,-8.87 -6.2,-13.73l13.39 0 0 -3.85 -14.57 0c-1.51,-4.52 -2.85,-9.05 -3.85,-13.9l13.73 0 0 -4.69 -14.73 0c-0.84,-5.02 -1.51,-10.21 -2.01,-15.23l11.55 0 0 -5.53 -11.88 0c-0.34,-5.86 -0.5,-11.72 -0.17,-17.58l12.55 0 0 -6.03 -12.22 0c0.34,-4.35 0.67,-8.54 1.34,-12.73l15.23 0 0 -11.88 -12.89 0c0.5,-2.85 1.34,-5.53 2.18,-8.2l17.25 0 0 -8.88 -14.41 0c1.35,-3.35 2.85,-6.53 4.35,-9.71l14.91 0 0 -5.86 -11.72 0c1.84,-2.84 3.51,-5.35 5.53,-7.87l16.24 0 0 -5.36 -11.21 0c10.71,-10.55 24.78,-15.74 42.36,-11.72zm33.49 36.84c9.05,0 16.41,26.12 16.41,58.27 0,32.15 -7.37,58.1 -16.41,58.1 -9.2,0 -16.57,-25.96 -16.57,-58.1 0,-32.15 7.37,-58.27 16.57,-58.27z"/>
  <path class="fil9" d="M590.58 668.94l39.18 0 0 26.62 -39.18 0 0 -26.62zm-9.54 -4.52c18.42,-11.56 37.84,-10.88 58.1,0l0 30.3c6.7,1.17 15.07,4.69 16.24,10.05l2.34 29.14c0.17,12.73 14.57,14.23 15.07,2.18 0.34,-15.24 -3.68,-31.64 -9.05,-42.86 -4.52,-11.89 -10.55,-21.77 -20.76,-25.62l-0.67 -8.54 9.38 -0.33c9.54,5.86 18.75,12.39 25.29,22.27l-0.84 10.05 5.35 41.86c0.84,27.8 -19.92,26.8 -34.15,7.2l0 -31.31c-0.84,-2.68 -4.35,-4.52 -8.2,-4.69l0 46.21 3.69 0 0 9.88 -65.47 0 0 -9.88 3.69 0 0 -85.9z"/>
  <path class="fil8" d="M824.41 660.85l0 0 1.51 914.04 358.03 0 0 -914.04c0,-11.72 -5.2,-22.63 -13.25,-30.44 -7.89,-7.81 -19.13,-12.7 -31.38,-12.7l-270.46 0 -0.17 0c-12.25,0 -23.32,4.72 -31.38,12.7 -8.05,7.82 -12.92,18.56 -12.92,30.44l0 0zm-17.62 0l0 0c0,-16.6 7.05,-31.58 18.29,-42.65 11.24,-10.75 26.67,-17.59 43.63,-17.59l0 -0.16 0.17 0 270.46 0c17.12,0 32.72,6.84 43.96,17.75 11.07,11.07 18.12,26.05 18.12,42.65l0 922.5 0 8.63 -8.72 0 -375.48 0 -8.72 0 0 -8.63 -1.68 -922.5 -0 0z"/>
  <path class="fil2" d="M1007.4 2181.16l15.11 0 0 0.17c0,0.17 0.17,0.34 0.17,0.51l0 0.34c0,0.17 0.17,0.34 0.17,0.68l0 0.67c0,0.17 0,0.51 0.17,0.85 0,0.17 0,0.34 0.17,0.85l0 0.68 0 0.18c0.5,-0.51 1.18,-1.36 2.04,-2.04 0.68,-0.68 1.53,-1.18 2.55,-1.69 0.85,-0.68 2.04,-1.02 3.05,-1.36 1.19,-0.17 2.38,-0.17 3.9,-0.17l1.36 0 1.53 0c0.51,0 1.02,0.17 1.7,0.34 0.68,0.17 1.18,0.34 1.69,0.51 1.02,0.34 2.04,0.85 3.06,1.35 1.02,0.68 2.04,1.36 2.88,2.21 1.02,0.85 1.7,1.86 2.21,3.23 0.34,1.35 0.68,2.72 0.68,4.41l0 27.84 -14.6 0 0 -23.76c0,-1.02 0,-2.21 -0.51,-3.05 -0.17,-1.02 -0.68,-1.7 -1.36,-2.38 -0.5,-0.34 -1.19,-0.85 -1.86,-1.19 -0.68,-0.34 -1.36,-0.51 -2.04,-0.51l-0.17 0 -0.17 0c-0.68,0 -1.35,0.17 -2.21,0.51 -0.5,0.34 -1.18,0.85 -1.86,1.19 -0.68,0.68 -1.02,1.36 -1.53,2.21 -0.16,0.85 -0.34,1.7 -0.34,2.72l0 24.27 -15.27 0 0 -31.06 0 -0.67 0 -0.68 0 -0.85 0 -0.68 0 -1.53c-0.17,-0.51 -0.17,-0.85 -0.34,-1.36l0 -1.01c0,-0.34 0,-0.68 -0.17,-0.68l0 -0.68 0 -0.17 0 -0.17zm-22.91 21.38c-0.5,0 -0.68,0 -1.18,0.17l-1.02 0 -1.02 0 -1.01 0c-0.85,0.17 -1.7,0.51 -2.38,0.68 -0.85,0 -1.7,0.34 -2.38,0.68 -1.01,0.34 -1.53,0.68 -2.04,1.01 -0.34,0.68 -0.68,1.19 -0.68,1.7l0 0.17c0,0 -0.17,0 -0.17,0.17l0 0.18 0 0.34 0 0.17 0 0.17c0,0.68 0.17,1.19 0.51,1.87 0.17,0.68 0.51,1.18 1.19,1.69 0.68,0.68 1.18,1.02 1.86,1.36 0.68,0.34 1.19,0.51 2.04,0.51l0.5 0c0,0 0.17,0 0.51,-0.17l0.34 -0.17c0.34,0 0.34,0 0.68,-0.17 0.16,-0.17 0.51,-0.34 0.85,-0.51 0.34,-0.17 0.51,-0.34 0.85,-0.68 0.34,-0.51 0.68,-0.85 1.02,-1.36 0.17,-0.34 0.34,-0.85 0.68,-1.36 0.17,-0.51 0.17,-1.02 0.34,-1.53 0.17,-0.51 0.17,-1.02 0.34,-1.53l0 -0.34c0,-0.17 0,-0.51 0.17,-0.51l0 -0.33 0 -0.51 0 -0.85 0 -0.85zm0 13.41c-0.17,0 -0.17,0.17 -0.34,0.17 0,0.18 -0.17,0.18 -0.17,0.18l0 0.5c0,0 -0.18,0 -0.18,0.18 0,0.17 -0.17,0.17 -0.5,0.33 0,0.34 -0.17,0.34 -0.34,0.51 -0.51,0.51 -1.02,1.19 -1.52,1.52 -0.68,0.51 -1.53,0.85 -2.38,1.36 -0.68,0.34 -1.7,0.68 -2.72,0.85 -1.19,0.17 -2.38,0.34 -3.57,0.34 -2.54,0 -4.58,-0.34 -6.28,-0.68 -2.04,-0.51 -3.39,-1.19 -4.41,-2.04 -1.02,-1.02 -1.86,-2.04 -2.55,-3.06 -0.68,-0.85 -1.02,-2.04 -1.36,-3.22 -0.18,-0.34 -0.18,-0.68 -0.34,-1.19l0 -1.02c-0.17,-0.34 -0.17,-0.68 -0.17,-1.02l0 -1.02c0.17,-2.72 0.85,-5.09 2.21,-6.79 1.7,-1.69 3.56,-3.05 6.28,-3.9 2.72,-1.02 5.6,-1.53 8.65,-2.04 3.06,-0.51 6.28,-0.68 9.67,-0.68 0,-1.02 -0.17,-2.04 -0.34,-2.89 -0.17,-1.01 -0.17,-1.69 -0.34,-2.55 -0.17,-0.85 -0.67,-1.35 -1.35,-1.86 -0.51,-0.34 -1.36,-0.51 -2.2,-0.51 -1.02,0 -1.53,0.17 -2.21,0.34 -0.68,0.17 -1.01,0.51 -1.36,1.02 -0.34,0.34 -0.51,0.85 -0.85,1.19 -0.17,0.68 -0.34,1.19 -0.34,1.53l0 0.34 0 0.17c-0.17,0.17 -0.17,0.17 -0.17,0.34l0 0.18 0 0.5 0 0.51 -14.6 -0.17c0,-2.21 0.51,-4.25 1.36,-5.78 0.85,-1.7 2.37,-3.05 4.41,-3.9 1.7,-1.02 3.74,-1.87 6.11,-2.38 2.2,-0.51 4.75,-0.51 7.64,-0.51 2.2,0 4.58,0 6.61,0.51 2.21,0.51 4.24,1.19 5.94,2.04 1.86,1.02 3.22,2.21 4.08,3.57 1.01,1.36 1.35,2.88 1.35,4.58l0 20.03 0 2.04c0.17,0.85 0.17,1.36 0.17,2.38 0.17,0.68 0.17,1.36 0.34,2.2 0.17,0.86 0.34,1.7 0.85,2.55l-14.6 0 -0.16 0 0 -0.34c0,-0.17 0,-0.17 -0.17,-0.34l0 -0.5c0,-0.18 0,-0.34 -0.18,-0.51l0 -1.02 0 -1.01 0 -1.02zm-58.38 -34.12l15.27 0 0 0.34 0 0.34c0,0.17 0.18,0.34 0.18,0.51l0 0.85c0,0.34 0.16,0.68 0.16,0.85 0,0.51 0,0.85 0.16,1.36l0 0.5 0 0.85 0 0.34 0 0.85c0.34,-1.53 1.02,-2.72 1.87,-3.91 0.68,-1.02 1.87,-1.7 2.89,-2.37 1.18,-0.51 2.37,-1.02 3.91,-1.19 1.35,-0.34 3.05,-0.34 4.58,-0.34l0 12.56 -0.34 0 -0.34 0 -0.51 0 -0.17 0 -0.51 0c-0.17,0 -0.17,0 -0.34,-0.17l-0.51 0 -0.17 0c-1.52,0 -2.88,0.17 -4.07,0.68 -1.19,0.34 -2.38,1.01 -3.23,1.69 -1.02,0.85 -1.87,1.7 -2.38,3.06 -0.34,1.02 -0.68,2.37 -0.68,3.9l0 18.16 -15.1 0 0 -29.87 0 -1.7 0 -1.36 0 -0.34 0 -0.34c-0.17,-0.17 -0.17,-0.17 -0.17,-0.34l0 -0.34c0,0 -0.17,-0.34 -0.17,-0.51l0 -0.85c0,-0.34 -0.17,-0.67 -0.17,-1.19 0,-0.51 0,-1.19 -0.17,-2.04zm-50.92 0l15.1 0 0 22.41 0 0.51 0 0.17 0 0.34c0,0.17 0,0.34 0.17,0.34 0,0.85 0.18,1.7 0.34,2.37 0.17,0.85 0.51,1.53 0.85,2.21 0.51,0.68 0.85,1.19 1.53,1.53 0.5,0.51 1.18,0.68 2.04,0.68 1.35,0 2.55,-0.17 3.39,-0.68 0.85,-0.51 1.53,-1.18 2.04,-2.04 0.17,-1.02 0.51,-2.04 0.85,-3.05 0.34,-1.02 0.34,-2.21 0.34,-3.4l0 -21.39 14.6 0 0 29.7 0 1.02 0 0.85 0 0.51c0,0.17 0,0.34 0.17,0.51l0 0.51 0 0.51 0 0.17 0 0.34 0 0.17 0 0.34 0 0.34 0.17 0.18 0 0.17 0 0.17 0 1.36c0,0.51 0,0.85 0.16,1.19l0 0.34 0 0.34 0 0.17 -14.59 0 0 -0.17 0 -0.51c-0.17,0 -0.17,-0.17 -0.17,-0.5l0 -0.51c-0.17,-0.34 -0.17,-0.51 -0.34,-0.86l0 -0.67 0 -0.85c-0.68,0.68 -1.19,1.35 -2.04,2.04 -0.68,0.51 -1.53,1.19 -2.38,1.7 -0.85,0.51 -1.86,0.85 -3.05,1.19 -1.18,0.17 -2.55,0.34 -4.07,0.34 -2.72,0 -5.09,-0.34 -6.96,-1.02 -1.87,-0.68 -3.56,-1.7 -4.75,-3.23 -1.02,-1.53 -1.87,-3.05 -2.55,-4.75 -0.51,-1.7 -0.85,-3.4 -0.85,-5.43l0 -25.63zm-23.77 17.48l0 -0.17 0 -0.34 0 -0.17 0 -0.34 0 -0.18c0,-1.18 -0.34,-2.2 -0.67,-3.23 -0.34,-1.01 -0.86,-1.86 -1.36,-2.88 -0.68,-0.85 -1.36,-1.53 -2.21,-2.04 -0.85,-0.51 -1.7,-0.85 -2.88,-0.85 -0.18,0 -0.34,0.18 -0.68,0.18l-0.68 0c-0.17,0 -0.51,0.17 -0.85,0.33 -0.17,0.17 -0.51,0.17 -0.67,0.34 -0.51,0.34 -1.02,0.68 -1.7,1.36 -0.51,0.51 -0.85,1.01 -1.53,1.86 -0.34,0.68 -0.68,1.69 -0.85,2.88 -0.34,1.19 -0.34,2.55 -0.34,4.08 0,1.69 0.17,3.23 0.51,4.59 0.51,1.01 0.85,2.2 1.53,3.05 0.68,1.02 1.53,1.7 2.38,2.04 0.85,0.5 1.86,0.68 2.89,0.68 1.36,0 2.55,-0.34 3.39,-0.85 1.02,-0.51 1.7,-1.02 2.2,-2.04 0.68,-1.19 1.02,-2.38 1.19,-3.56 0.34,-1.36 0.34,-2.89 0.34,-4.59l0 -0.17zm0 14.09c-0.34,1.02 -1.02,1.86 -1.86,2.55 -0.51,0.68 -1.53,1.19 -2.38,1.7 -0.85,0.5 -1.87,0.85 -2.88,1.02 -1.02,0.51 -1.87,0.68 -3.06,0.68 -0.17,0 -0.34,0.18 -0.68,0.18l-0.51 0 -0.51 0 -0.68 0c-2.55,0 -4.92,-0.34 -6.96,-1.37 -2.2,-1.01 -4.24,-2.2 -5.77,-4.24 -1.69,-1.87 -2.88,-3.91 -3.73,-6.28 -0.85,-2.21 -1.19,-4.75 -1.19,-7.47 0,-2.89 0.34,-5.27 1.19,-7.63 0.85,-2.21 2.04,-4.25 3.73,-6.11 1.53,-1.87 3.57,-3.4 5.77,-4.24 2.04,-1.02 4.41,-1.36 6.96,-1.36 1.7,0 3.06,0 4.41,0.17 1.36,0.34 2.55,0.68 3.57,1.19 1.01,0.68 1.86,1.18 2.55,2.21 0.85,0.85 1.53,1.86 2.04,3.05l0 -1.19c0,-0.34 0.17,-0.68 0.17,-1.02l0 -0.85c0.16,-0.34 0.16,-0.68 0.16,-0.85 0.17,-0.17 0.17,-0.51 0.17,-0.67 0.18,-0.18 0.18,-0.34 0.18,-0.51l0 -0.17 0 -0.17 0 -0.17 14.59 0 0 34.46c0,3.23 -0.34,5.94 -1.18,8.31 -1.02,2.21 -2.21,4.07 -3.91,5.43 -1.7,1.52 -3.4,2.71 -5.43,3.56 -1.87,0.86 -3.74,1.53 -5.77,1.87 -0.17,0 -0.51,0 -0.68,0.17l-0.68 0c-0.34,0 -0.51,0.17 -0.67,0.17l-0.68 0 -1.35 0c-0.34,0.17 -0.85,0.17 -1.19,0.17l-0.34 0 -0.34 0 -0.34 0 -0.34 0 -0.17 0c0,-0.17 0,-0.17 -0.17,-0.17l-0.17 0 -0.16 0 -1.7 0c-0.68,0 -1.36,0 -1.87,-0.17 -0.51,-0.17 -0.68,-0.17 -1.19,-0.17l-0.85 0c-0.51,-0.17 -0.85,-0.17 -1.02,-0.34 -0.51,0 -0.68,0 -1.18,-0.17 -1.36,-0.34 -2.72,-0.85 -4.08,-1.53 -1.36,-0.68 -2.72,-1.35 -3.9,-2.2 -1.19,-1.02 -2.2,-2.21 -2.72,-3.57 -0.68,-1.53 -0.85,-3.23 -0.85,-5.26l14.43 0c0,0.68 0.17,1.19 0.51,1.7 0,0.51 0.34,1.02 0.68,1.53 0.34,0.34 1.02,0.85 1.7,1.02 0.67,0.17 1.53,0.68 2.54,0.68 2.04,0 3.56,-0.34 4.75,-0.85 1.19,-0.68 1.86,-1.53 2.2,-2.88 0.18,-1.19 0.51,-2.55 0.68,-3.91 0.17,-1.53 0.17,-3.05 0.17,-4.75l0 -0.34 0 -0.34 0 -0.34 0 -0.34 0 -0.17zm-50.24 -16.97c0,-1.19 0,-2.21 -0.34,-3.22 -0.34,-1.02 -0.85,-1.7 -1.53,-2.38 -0.67,-0.85 -1.53,-1.36 -2.21,-1.7 -0.84,-0.34 -1.69,-0.5 -2.54,-0.5 -0.85,0 -1.87,0.34 -2.55,0.5 -0.85,0.51 -1.52,1.19 -2.2,2.04 -0.68,0.68 -1.02,1.53 -1.35,2.37 -0.34,1.02 -0.51,1.87 -0.51,2.89l13.24 0zm0 11.54l13.91 0c-0.17,2.37 -0.85,4.41 -1.87,6.11 -1.01,1.53 -2.54,3.06 -4.24,4.41 -1.7,1.02 -3.73,1.87 -5.94,2.38 -2.37,0.68 -5.09,1.02 -7.81,1.02 -3.73,0 -6.95,-0.34 -9.5,-1.19 -2.89,-0.85 -4.92,-2.04 -6.62,-3.73 -1.7,-1.7 -3.05,-3.91 -3.9,-6.45 -0.85,-2.55 -1.36,-5.6 -1.36,-9.17 0,-3.22 0.51,-6.11 1.36,-8.49 1.02,-2.55 2.38,-4.75 4.08,-6.62 1.87,-1.86 4.24,-3.23 6.62,-4.07 2.72,-1.02 5.43,-1.36 8.66,-1.36 4.08,0 7.47,0.51 10.35,1.7 2.72,1.19 4.92,3.05 6.45,5.26 1.53,2.38 2.54,5.09 3.4,7.98 0.68,2.89 1.02,5.94 1.02,9.17l-27.84 0 0 0.85 0 0.85c0,0.34 0,0.68 0.17,1.02l0 1.19c0.34,0.68 0.51,1.18 0.85,1.7 0.34,0.5 0.67,1.01 1.01,1.52 0.51,0.51 1.19,1.02 1.87,1.19 0.68,0.17 1.7,0.34 2.72,0.34l0.17 0 0.5 0 0.18 0 0 -0.17 0.17 0 0.17 0c0.68,0 1.36,-0.17 2.04,-0.51 0.51,-0.34 1.19,-0.51 1.7,-1.19 0.51,-0.34 1.02,-0.85 1.36,-1.53 0.34,-0.51 0.34,-1.36 0.34,-2.04l0 -0.17zm-82.5 -5.43l15.95 0 0 0.68 0 0.67 0 0.34 0 0.51c0.18,0 0.18,0.17 0.18,0.33l0 0.34c0.17,0.68 0.5,1.19 0.85,1.87 0.51,0.5 0.85,1.01 1.53,1.53 0.67,0.68 1.53,1.02 2.37,1.18 1.02,0.34 2.21,0.51 3.4,0.51 1.53,0 2.55,-0.18 3.74,-0.51 1.02,-0.16 1.87,-0.51 2.54,-1.18 0.85,-0.51 1.36,-1.02 1.7,-1.7 0.51,-0.68 0.68,-1.35 0.68,-2.04l0 -0.17 0 -0.17 0 -0.34 -0.17 -0.17 0 -0.17c-0.17,-0.68 -0.51,-1.19 -0.85,-1.7 -0.68,-0.51 -1.19,-1.19 -2.03,-1.7 -0.68,-0.51 -1.53,-1.02 -2.55,-1.36 -1.02,-0.34 -2.2,-0.67 -3.74,-1.01l-0.17 0 -0.17 0 -0.17 -0.18c-4.07,-0.85 -7.46,-1.69 -10.36,-2.88 -2.71,-1.02 -4.92,-2.21 -6.45,-3.23 -1.53,-1.19 -2.71,-2.71 -3.56,-4.41 -0.68,-1.86 -1.36,-3.9 -1.36,-6.28l0 -0.34 0 -0.17 0 -0.17 0 -0.17c-0.17,-2.72 0.34,-5.26 1.53,-7.3 1.19,-2.04 3.06,-3.73 5.26,-5.27 2.21,-1.36 4.92,-2.37 7.8,-3.05 2.55,-0.86 5.6,-1.19 8.99,-1.19 4.59,0.17 8.32,0.68 11.38,1.52 3.06,0.85 5.26,2.21 6.62,3.91 1.53,1.53 2.71,3.4 3.23,5.6 0.85,1.86 1.35,4.07 1.35,6.62l-15.95 -0.17c0,-0.85 -0.18,-1.7 -0.34,-2.38 -0.34,-0.68 -0.85,-1.36 -1.53,-1.87 -0.51,-0.5 -1.35,-1.01 -2.21,-1.36 -1.02,-0.17 -2.04,-0.5 -3.23,-0.5 -1.02,0 -2.03,0.33 -2.71,0.5 -0.85,0.17 -1.53,0.68 -2.2,1.36 -0.51,0.34 -0.85,0.85 -1.19,1.37 -0.34,0.5 -0.51,1.18 -0.51,1.69l0 0.16 0 0.18 0 0.17 0 0.17c0.17,0.51 0.33,1.02 0.67,1.53 0.17,0.68 0.68,1.02 1.19,1.53 0.51,0.51 1.19,0.85 2.03,1.19 0.85,0.34 1.7,0.68 2.71,0.68 0.68,0 1.19,0.17 1.7,0.34 0.68,0.18 1.36,0.18 2.04,0.34 0.51,0.17 1.19,0.17 1.7,0.34 0.68,0.17 1.36,0.17 2.04,0.34 2.21,0.68 4.24,1.36 6.11,2.04 2.21,0.85 4.08,1.86 5.95,3.05 1.69,1.02 3.05,2.55 3.9,4.59 1.02,1.86 1.53,3.9 1.53,6.62 0,3.4 -0.68,6.28 -1.7,8.49 -1.35,2.55 -3.05,4.41 -5.43,5.94 -2.55,1.53 -5.09,2.55 -7.98,3.23 -2.72,0.68 -5.94,1.02 -9.17,1.02 -4.07,0 -7.8,-0.34 -10.69,-1.19 -3.05,-0.85 -5.6,-2.04 -7.64,-3.56 -2.03,-1.7 -3.73,-3.74 -4.75,-6.11 -1.02,-2.37 -1.53,-5.26 -1.87,-8.49z"/>
  <path class="fil2" d="M1130.45 2202.54c-0.34,0 -0.51,0 -1.02,0.17l-1.01 0 -1.02 0 -1.01 0c-0.85,0.17 -1.7,0.51 -2.55,0.68 -0.86,0 -1.7,0.34 -2.38,0.68 -0.85,0.34 -1.36,0.68 -1.7,1.02 -0.51,0.68 -0.68,1.19 -0.85,1.7l0 0.17c-0.17,0 -0.17,0 -0.17,0.17l0 0.17 0 0.34 0 0.17 0 0.17c0,0.68 0.17,1.19 0.34,1.87 0.34,0.68 0.85,1.19 1.35,1.7 0.51,0.68 1.19,1.02 1.87,1.36 0.68,0.34 1.35,0.51 2.04,0.51l0.34 0c0.34,0 0.51,0 0.67,-0.17 0,0 0.34,-0.17 0.51,-0.17 0,0 0.17,0 0.33,-0.17 0.34,-0.17 0.68,-0.34 1.02,-0.51 0.34,-0.17 0.51,-0.34 0.85,-0.68 0.34,-0.51 0.68,-0.85 1.02,-1.36 0.34,-0.34 0.51,-0.85 0.51,-1.36 0.34,-0.51 0.34,-1.02 0.5,-1.53 0.17,-0.51 0.17,-1.02 0.34,-1.53l0 -0.33 0 -0.51 0 -0.34 0 -0.51 0 -0.85 0 -0.85zm0 13.41l-0.17 0.17 0 0.17c0,0.17 -0.17,0.34 -0.17,0.51 -0.16,0 -0.16,0 -0.16,0.17 -0.17,0.17 -0.34,0.17 -0.34,0.34 -0.18,0.34 -0.18,0.34 -0.51,0.51 -0.34,0.51 -0.85,1.19 -1.52,1.52 -0.69,0.51 -1.53,0.85 -2.38,1.36 -0.85,0.34 -1.7,0.67 -2.72,0.85 -1.19,0.17 -2.38,0.34 -3.57,0.34 -2.55,0 -4.75,-0.34 -6.45,-0.68 -1.7,-0.51 -3.22,-1.19 -4.25,-2.04 -1.18,-1.02 -2.03,-2.04 -2.54,-3.06 -0.69,-0.85 -1.19,-2.04 -1.36,-3.22 -0.17,-0.34 -0.17,-0.68 -0.17,-1.19 -0.17,-0.17 -0.17,-0.51 -0.17,-1.02 -0.17,-0.34 -0.17,-0.68 -0.17,-1.02l0 -1.02c0.17,-2.72 1.02,-5.08 2.21,-6.79 1.52,-1.7 3.56,-3.05 6.28,-3.9 2.72,-1.02 5.6,-1.53 8.49,-2.04 3.06,-0.51 6.45,-0.68 9.67,-0.68 0,-1.02 0,-2.04 -0.17,-2.89 0,-1.01 -0.17,-1.69 -0.34,-2.54 -0.34,-0.85 -0.52,-1.36 -1.19,-1.87 -0.68,-0.34 -1.53,-0.5 -2.55,-0.5 -0.85,0 -1.52,0.17 -2.04,0.34 -0.51,0.17 -1.01,0.51 -1.36,1.02 -0.34,0.34 -0.68,0.85 -0.85,1.18 -0.34,0.69 -0.34,1.19 -0.51,1.53l0 0.34 0 0.17 0 0.34 0 0.17 0 0.51 0 0.51 -14.77 -0.17c0,-2.21 0.68,-4.25 1.52,-5.78 1.03,-1.7 2.38,-3.05 4.25,-3.9 1.7,-1.02 3.9,-1.87 6.28,-2.38 2.2,-0.51 4.75,-0.51 7.46,-0.51 2.55,0 4.76,0 6.96,0.51 2.03,0.51 4.08,1.19 5.78,2.04 1.86,1.02 3.22,2.21 4.08,3.57 0.84,1.35 1.52,2.88 1.52,4.58l0 20.03 0 2.04 0 2.38c0.17,0.68 0.17,1.36 0.34,2.2 0.34,0.86 0.51,1.7 0.68,2.55l-14.43 0 -0.16 0 0 -0.34 0 -0.34c0,-0.17 0,-0.34 -0.17,-0.51 0,-0.17 -0.18,-0.34 -0.18,-0.5 0,-0.51 -0.17,-0.68 -0.17,-1.02l0 -1.02 0 -1.02zm-46.68 -11.03l15.28 0c0,2.88 -0.51,5.43 -1.7,7.46 -0.85,2.21 -2.37,3.9 -4.24,5.44 -2.04,1.35 -4.07,2.37 -6.62,3.05 -2.38,0.69 -4.76,1.02 -7.47,1.02l-1.86 2.37 0.34 0c0.17,-0.17 0.34,-0.17 0.51,-0.17l0.5 0 0.51 0 0.51 0 0.34 0 0.34 0 0.17 0.17 0.17 0 0.34 0c0.85,0 1.7,0.34 2.38,0.51 0.84,0.34 1.69,0.67 2.37,1.01 0.85,0.68 1.53,1.02 1.87,1.87 0.34,0.85 0.51,1.86 0.51,2.72 0,1.02 -0.34,1.86 -0.68,2.54 -0.51,0.68 -1.35,1.36 -2.38,2.04 -0.85,0.51 -1.87,0.85 -3.05,1.02 -0.86,0.51 -2.04,0.68 -3.06,0.85 -0.34,0 -0.51,0 -0.68,0.18l-0.34 0c-0.17,0 -0.34,0.17 -0.34,0.17l-0.68 0 -0.34 0 -0.51 0 -0.17 0 -0.52 0c-1.01,0 -2.2,0 -3.05,-0.17 -1.02,0 -1.87,-0.18 -2.89,-0.34 -0.85,-0.17 -1.7,-0.34 -2.55,-0.68 -0.85,-0.17 -1.7,-0.51 -2.37,-0.85l1.86 -4.08c0.18,0 0.68,0.18 1.02,0.18 0.33,0.33 0.67,0.33 1.19,0.33 0,0 0.33,0.17 0.51,0.17 0.16,0.17 0.34,0.17 0.5,0.17 0.17,0 0.51,0 0.51,0.17l0.68 0c0.34,0 0.51,0.17 0.85,0.17 0.34,0 0.68,0.17 1.02,0.17l0.51 0c0,0 0.34,0 0.34,0.17l0.51 0 0.34 0c0.67,0 1.35,-0.17 1.86,-0.17 0.51,-0.17 1.02,-0.34 1.53,-0.34 0.34,-0.17 0.68,-0.51 0.85,-0.68 0.34,-0.34 0.51,-0.68 0.51,-1.02 0,-0.51 -0.16,-0.85 -0.33,-1.19 -0.34,-0.34 -0.68,-0.51 -1.02,-0.68 -0.34,-0.17 -0.85,-0.34 -1.36,-0.34 -0.34,0 -0.68,-0.17 -1.36,-0.17 -0.34,0 -0.67,0 -1.02,0.17l-1.19 0c-0.34,0 -0.68,0.17 -0.85,0.17 -0.34,0.17 -0.51,0.17 -0.85,0.17l-1.87 -1.87 3.74 -5.43c-2.21,-0.17 -4.08,-0.68 -5.77,-1.19 -1.7,-0.68 -3.05,-1.69 -4.08,-2.88 -1.01,-1.02 -2.04,-2.21 -2.71,-3.4 -0.85,-1.18 -1.53,-2.55 -1.87,-3.74 -0.34,-0.85 -0.51,-1.86 -0.85,-2.54 0,-0.85 -0.34,-1.7 -0.34,-2.55 0,-0.85 -0.17,-1.53 -0.17,-2.21l0 -2.04c0,-3.06 0.51,-5.94 1.52,-8.49 0.85,-2.38 2.38,-4.59 4.41,-6.28 2.21,-1.69 4.41,-3.05 6.96,-3.9 2.38,-0.85 5.26,-1.19 8.32,-1.19l1.53 0 1.53 0 1.69 0c0.51,0 1.02,0.17 1.53,0.34 1.87,0.33 3.56,0.67 5.26,1.52 1.53,0.68 3.06,1.53 4.58,2.55 1.53,1.19 2.55,2.54 3.4,4.41 0.67,1.7 1.19,3.74 1.19,6.29l-15.28 -0.18c0,-1.01 -0.17,-1.86 -0.34,-2.71 -0.17,-0.85 -0.68,-1.53 -1.02,-1.87 -0.5,-0.68 -1.02,-1.19 -1.69,-1.35 -0.85,-0.51 -1.53,-0.68 -2.38,-0.68 -0.85,0 -1.7,0.34 -2.38,0.85 -0.68,0.69 -1.18,1.37 -1.69,2.38 -0.51,1.19 -0.85,2.21 -1.19,3.57 0,1.35 -0.17,2.72 -0.17,4.24l0 0.34 0 0.51 0 0.34 0 0.34c0,1.53 0,2.72 0.17,4.07 0.34,1.19 0.51,2.54 1.01,3.73 0.18,1.19 0.85,2.04 1.53,2.55 0.68,0.51 1.53,0.85 2.72,0.85 0.85,0 1.53,-0.17 2.38,-0.51 0.67,-0.17 1.19,-0.68 1.69,-1.35 0.34,-0.68 0.85,-1.53 1.02,-2.38 0.17,-1.01 0.34,-2.2 0.34,-3.73z"/>
  <path class="fil9" d="M423.97 1775.35c15.2,0 27.74,37.43 27.74,83.71 0,46.28 -12.53,83.71 -27.74,83.71 -15.37,0 -27.74,-37.43 -27.74,-83.71 0,-46.28 12.37,-83.71 27.74,-83.71zm-54.3 -1.84l23.56 0 0 8.19 -23.56 0 0 -8.19zm-6.02 18.21l22.56 0 0 9.36 -22.56 0 0 -9.36zm-4.68 23.06l21.39 0 0 10.2 -21.39 0 0 -10.2zm-3.84 27.4l24.06 0 0 9.86 -24.06 0 0 -9.86zm1.17 26.9l21.55 0 0 9.85 -21.55 0 0 -9.85zm3.84 27.23l18.21 0 0 6.34 -18.21 0 0 -6.34zm3.51 23.73l17.71 0 0 4.18 -17.71 0 0 -4.18zm7.35 19.38l17.38 0 0 5.18 -17.38 0 0 -5.18zm7.35 14.88l16.21 0 0 4.68 -16.21 0 0 -4.68zm1.84 -197.16l20.38 0 0 7.52 -20.38 0 0 -7.52zm46.78 215.04l-0.34 0 -48.95 0c-22.22,-20.38 -36.76,-50.96 -37.43,-112.95 -0.83,-61.99 13.7,-96.41 39.59,-113.45 12.7,-7.18 45.78,-2.51 55.98,5.35 18.38,11.36 32.07,55.81 32.07,109.11 0,61.32 -18.21,111.11 -40.93,111.78l0 0.17zm-47.79 -230.07c-55.47,26.4 -69.84,166.91 -14.36,228.23l-25.23 0c-4.85,-2.84 -9.19,-6.52 -13.37,-10.69l12.36 0 0 -2.51 -14.53 0c-3.68,-4.01 -6.85,-8.52 -9.86,-13.53l9.69 0 0 -3 -11.36 0c-2.84,-5.35 -5.34,-11.03 -7.52,-16.88l16.38 0 0 -4.67 -18.05 0c-1.67,-5.52 -3.17,-11.03 -4.51,-16.88l16.87 0 0 -5.85 -18.05 0c-1,-6.02 -1.83,-12.36 -2.5,-18.54l14.2 0 0 -6.68 -14.7 0c-0.33,-7.19 -0.33,-14.37 -0.17,-21.39l15.37 0 0 -7.35 -14.87 0c0.33,-5.34 0.83,-10.52 1.67,-15.53l18.54 0 0 -14.37 -15.7 0c0.67,-3.51 1.5,-7.02 2.5,-10.19l21.05 0 0 -10.86 -17.54 0c1.67,-4.01 3.34,-7.85 5.35,-11.86l18.21 0 0 -7.02 -14.2 0c1.84,-3.34 4.18,-6.51 6.68,-9.52l19.55 0 0 -6.68 -13.7 0c13.2,-12.87 30.58,-19.05 51.8,-14.21l0 0zm40.94 45.11c11.03,0 20.05,31.58 20.05,70.84 0,39.1 -9.02,70.84 -20.05,70.84 -11.2,0 -20.22,-31.75 -20.22,-70.84 0,-39.26 9.02,-70.84 20.22,-70.84z"/>
  <polygon class="fil9" points="423.47,1835.83 452.88,1835.83 499.49,1792.05 499.49,1922.88 457.06,1879.1 423.47,1879.1 "/>
  <path class="fil3" d="M426.15 1876.43l32.04 0 38.63 39.85 0 -118.05 -42.89 40.27 -27.79 0 0 37.92zm76.02 53.05l-46.24 -47.7 -35.13 0 0 -48.62 31.03 0 50.34 -47.28 0 143.6z"/>
  <path class="fil2" d="M936.79 2494.67l-18.37 0c-0.49,0 -0.76,-0.36 -0.78,-0.76l0 -4.56c0,-0.37 0.24,-0.79 0.77,-0.79l4.12 0c0.43,0 0.77,-0.36 0.77,-0.75l0 -20.74c0,-0.45 -0.35,-0.8 -0.78,-0.8l-4.11 0c-0.46,0 -0.78,-0.37 -0.78,-0.75l0 -4.61c0,-0.4 0.33,-0.75 0.78,-0.75l18.38 0c0.41,0 0.77,0.35 0.77,0.76l0 4.6c0,0.37 -0.3,0.76 -0.75,0.76l-4.14 0c-0.44,0 -0.77,0.35 -0.77,0.76l0 20.75c0,0.43 0.34,0.77 0.76,0.77l4.13 0c0.44,0 0.77,0.35 0.77,0.76l0 4.57c0,0.39 -0.28,0.79 -0.77,0.79z"/>
  <path class="fil2" d="M976.91 2460.91l0 32.99c0,0.42 -0.33,0.77 -0.76,0.77l-6.12 0c-0.23,0 -0.42,-0.08 -0.59,-0.27l-17.5 -20.29c-0.48,-0.55 -1.34,-0.18 -1.34,0.5l0 19.28c0,0.44 -0.33,0.77 -0.78,0.77l-7.04 0c-0.45,0 -0.77,-0.38 -0.77,-0.75l0 -32.98c0,-0.42 0.33,-0.79 0.76,-0.79l6.74 0c0.25,0 0.46,0.11 0.63,0.3l16.84 19.27c0.45,0.52 1.33,0.21 1.33,-0.51l0 -18.28c0,-0.37 0.28,-0.77 0.77,-0.77l7.06 0c0.37,0 0.77,0.29 0.77,0.76z"/>
  <path class="fil2" d="M1000.48 2472.29l10.28 -11.87c0.16,-0.16 0.35,-0.25 0.6,-0.27l6.36 0c0.46,0 0.76,0.38 0.76,0.78l0 32.97c0,0.39 -0.31,0.76 -0.76,0.76l-7.05 0c-0.46,0 -0.78,-0.37 -0.78,-0.76l0 -18.72c0,-0.74 -0.88,-1.04 -1.35,-0.49l-7.96 9.24c-0.38,0.44 -0.92,0.45 -1.31,0l-7.95 -9.24c-0.53,-0.62 -1.36,-0.21 -1.36,0.5l0 18.69c0,0.44 -0.34,0.77 -0.8,0.77l-7.03 0c-0.42,0 -0.79,-0.34 -0.79,-0.76l0 -32.98c0,-0.43 0.34,-0.77 0.76,-0.77l6.35 0c0.22,0 0.43,0.06 0.61,0.27l10.26 11.87c0.28,0.32 0.84,0.38 1.16,-0.01z"/>
  <path class="fil2" d="M1048.33 2489.12l0 4.81c0,0.42 -0.37,0.75 -0.79,0.75l-23.9 0c-0.41,0 -0.75,-0.38 -0.75,-0.76l0 -32.95c0,-0.36 0.23,-0.8 0.76,-0.8l23.57 0c0.44,0 0.77,0.37 0.77,0.77l0 4.78c0,0.42 -0.35,0.77 -0.77,0.77l-14.96 0c-0.46,0 -0.78,0.35 -0.78,0.78l0 4.51c0,0.41 0.32,0.77 0.77,0.77l14.2 0c0.41,0 0.77,0.33 0.77,0.74l0 4.81c0,0.43 -0.34,0.78 -0.76,0.78l-14.21 0c-0.46,0 -0.77,0.38 -0.77,0.78l0 7.93c0,0.43 0.32,0.77 0.76,0.77l15.32 0c0.39,0 0.79,0.32 0.77,0.77z"/>
  <path class="fil2" d="M1086.06 2460.92l0 4.83c0,0.32 -0.29,0.72 -0.77,0.72l-10.97 0c-0.49,0 -0.76,0.39 -0.76,0.79l0 26.62c0,0.43 -0.33,0.79 -0.76,0.79l-7.08 0c-0.4,0 -0.76,-0.33 -0.76,-0.77l0 -26.66c0,-0.41 -0.34,-0.76 -0.77,-0.76l-10.98 0c-0.42,0 -0.75,-0.35 -0.75,-0.77l0 -4.76c0,-0.42 0.29,-0.8 0.76,-0.8l32.07 0c0.37,0 0.76,0.31 0.76,0.77z"/>
  <path class="fil2" d="M1103.38 2476.36l0.01 2.32c-0.01,0.3 -0.11,0.67 0.63,1.09 0.41,0.23 0.9,0.61 1.55,1.26 0.94,0.95 2.19,2.42 3.58,5.61 1.22,2.79 2.12,6.34 2.7,7.56 0.11,0.22 0.33,0.48 0.71,0.48l7.76 0c0.54,0 0.97,-0.53 0.71,-1.09 -0.72,-1.55 -2.63,-7.18 -4,-10.22 -1.24,-2.76 -2.73,-3.92 -3.9,-5.18 -0.51,-0.55 -0.14,-1.1 0.16,-1.28 1.6,-0.98 4.64,-3.36 4.61,-7.91 -0.02,-4.04 -3.19,-8.84 -9.28,-8.84l-17.32 0c-0.44,0 -0.77,0.34 -0.77,0.79l0 32.95c0,0.39 0.28,0.77 0.77,0.77l7.06 0c0.4,0 0.76,-0.33 0.76,-0.76l0 -26.63c0,-0.43 0.28,-0.8 0.77,-0.8l4.33 0c2.68,0 4.89,1.74 4.89,4.47 0,2.62 -2.13,4.72 -4.82,4.64 -0.82,-0.03 -0.93,0.58 -0.93,0.77z"/>
  <path class="fil2" d="M1141.24 2459.71c5.87,0 10.64,1.78 14.27,5.33 3.64,3.55 5.46,7.68 5.46,12.39 0,4.77 -1.85,8.92 -5.53,12.43 -3.7,3.51 -8.43,5.26 -14.21,5.26 -5.85,0 -10.61,-1.74 -14.28,-5.23 -3.68,-3.49 -5.52,-7.65 -5.52,-12.46 0,-4.72 1.83,-8.86 5.47,-12.4 3.65,-3.54 8.43,-5.31 14.32,-5.31zm0 28.24c3.26,0 5.88,-0.96 7.88,-2.9 1.99,-1.94 2.99,-4.48 2.99,-7.62 0,-3.16 -1,-5.7 -2.99,-7.63 -2,-1.93 -4.62,-2.89 -7.88,-2.89 -3.29,0 -5.92,0.96 -7.92,2.89 -2,1.93 -3,4.47 -3,7.63 0,3.15 1.01,5.68 3,7.62 2,1.94 4.64,2.9 7.92,2.9z"/>
  <path class="fil6" d="M1074.25 2407.37c0,2.07 1.1,3.19 3.17,3.19l40.26 0c2.08,0 3.19,1.12 3.19,3.2l0 21.45c0,2.08 -1.12,3.19 -3.19,3.19l-156.73 0c-2.07,0 -3.2,-1.11 -3.2,-3.19l0 -21.46c0,-2.07 1.12,-3.19 3.2,-3.19l40.25 0c2.07,0 3.19,-1.12 3.19,-3.19 0,-32.84 0.01,-65.64 0.01,-98.48 0,-2.08 -1.12,-3.2 -3.2,-3.2l-40.25 0c-2.07,0 -3.2,-1.12 -3.2,-3.19l0 -21.46c0,-2.07 1.13,-3.19 3.2,-3.19l156.73 0c2.08,0 3.19,1.12 3.19,3.19l0 21.46c0,2.08 -1.12,3.19 -3.19,3.19l-40.26 0c-2.07,0 -3.19,1.12 -3.19,3.2 0,32.82 0.02,65.65 0.02,98.48zm-66.65 -44.11l63.44 43.77 -0.01 -54.05 -63.42 -43.76 -0.01 54.04z"/>
  <path class="fil6" d="M733.98 2480.34c1.3,-1.49 2.97,-2.05 4.84,-2.05 2.04,0 3.71,0.55 4.83,2.05 1.3,1.29 1.86,3.34 1.86,6.13 0,2.78 -0.75,4.84 -1.86,6.14 -1.3,1.48 -2.79,2.04 -4.83,2.04 -1.86,0 -3.54,-0.56 -4.65,-2.04 -1.3,-1.3 -1.86,-3.35 -1.86,-6.14 0,-2.79 0.56,-4.83 1.67,-6.13zm-3.53 15.24c2.05,2.23 4.82,3.35 8.36,3.35 3.53,0 6.33,-1.11 8.55,-3.35 2.05,-2.24 3.16,-5.22 3.16,-9.11 0,-3.91 -1.11,-6.88 -3.16,-9.1 -2.22,-2.23 -5.01,-3.36 -8.55,-3.36 -1.86,0 -3.72,0.38 -5.21,0.93 -1.11,0.56 -2.05,1.3 -2.97,2.24 -0.93,0.93 -1.68,2.05 -2.23,3.34 -0.75,1.67 -1.11,3.72 -1.11,6.13 0,3.71 0.92,6.69 3.16,8.92z"/>
  <path class="fil6" d="M767.44 2493.53c-0.74,0.75 -1.86,1.11 -3.15,1.11 -1.87,0 -3.18,-0.55 -4.29,-1.85 -1.11,-1.3 -1.66,-3.35 -1.66,-6.51 0,-2.79 0.55,-4.84 1.66,-6.13 1.11,-1.3 2.61,-1.86 4.29,-1.86 1.3,0 2.41,0.38 3.34,0.93 0.92,0.75 1.48,1.85 1.67,2.97l4.84 -1.11c-0.57,-1.85 -1.3,-3.34 -2.42,-4.47 -1.85,-1.67 -4.27,-2.6 -7.25,-2.6 -3.35,0 -5.95,1.12 -7.99,3.35 -2.04,2.22 -3.16,5.38 -3.16,9.29 0,3.71 1.12,6.69 3.16,8.92 2.05,2.23 4.64,3.35 7.82,3.35 2.58,0 4.65,-0.75 6.31,-2.05 1.67,-1.3 2.97,-3.16 3.54,-5.76l-4.65 -1.49c-0.38,1.68 -1.12,2.97 -2.05,3.9z"/>
  <path class="fil6" d="M785.48 2478.48c1.86,0 2.97,0.19 3.53,0.19 0.74,0.18 1.48,0.56 1.85,1.11 0.55,0.56 0.74,1.3 0.74,2.22 0,0.74 0,1.3 -0.37,1.87 -0.38,0.55 -0.93,0.92 -1.68,1.11 -0.55,0.19 -1.86,0.38 -3.72,0.38l-2.6 0 0 -6.88 2.23 0zm-2.23 19.89l0 -8.93 3.15 0c2.05,0 3.72,-0.19 5.01,-0.37 0.75,-0.19 1.68,-0.57 2.43,-1.12 0.74,-0.56 1.49,-1.3 2.04,-2.41 0.55,-0.92 0.74,-2.23 0.74,-3.72 0,-1.85 -0.38,-3.34 -1.3,-4.64 -0.93,-1.12 -2.05,-1.86 -3.53,-2.24 -0.94,-0.37 -2.79,-0.37 -5.76,-0.37l-7.63 0 0 23.8 4.84 0z"/>
  <path class="fil6" d="M817.44 2478.67c0.56,0.37 0.75,1.11 1.11,2.22 0.38,0.93 0.38,2.98 0.38,5.76 0,2.79 -0.19,4.83 -0.38,5.95 -0.36,0.93 -0.55,1.48 -1.11,1.86 -0.36,0.37 -0.92,0.56 -1.3,0.56 -0.56,0 -1.12,-0.19 -1.49,-0.56 -0.55,-0.19 -0.75,-0.93 -1.11,-2.05 -0.37,-1.11 -0.37,-2.98 -0.37,-5.76 0,-2.78 0.18,-4.83 0.37,-5.95 0.37,-0.93 0.56,-1.67 1.11,-2.04 0.37,-0.38 0.93,-0.38 1.49,-0.38 0.38,0 0.94,0 1.3,0.38zm-6.88 -1.87c-1.48,2.05 -2.22,5.21 -2.22,9.85 0,4.47 0.56,7.81 2.05,9.48 1.48,1.86 3.35,2.79 5.76,2.79 2.24,0 4.09,-0.93 5.39,-2.42 1.49,-2.04 2.24,-5.38 2.24,-9.85 0,-4.46 -0.75,-7.81 -2.24,-9.85 -1.29,-1.48 -3.15,-2.41 -5.39,-2.41 -2.41,0 -4.28,0.74 -5.58,2.41z"/>
  <path class="fil6" d="M836.02 2478.67c0.57,0.37 0.76,1.11 1.12,2.22 0.19,0.93 0.37,2.98 0.37,5.76 0,2.79 -0.19,4.83 -0.37,5.95 -0.37,0.93 -0.55,1.48 -1.12,1.86 -0.37,0.37 -0.91,0.56 -1.29,0.56 -0.74,0 -1.12,-0.19 -1.48,-0.56 -0.56,-0.19 -0.94,-0.93 -1.12,-2.05 -0.38,-1.11 -0.38,-2.98 -0.38,-5.76 0,-2.78 0.19,-4.83 0.38,-5.95 0.18,-0.93 0.55,-1.67 1.12,-2.04 0.36,-0.38 0.74,-0.38 1.48,-0.38 0.38,0 0.93,0 1.29,0.38zm-6.87 -1.87c-1.49,2.05 -2.24,5.21 -2.24,9.85 0,4.47 0.56,7.81 2.06,9.48 1.48,1.86 3.34,2.79 5.76,2.79 2.24,0 4.1,-0.93 5.39,-2.42 1.49,-2.04 2.24,-5.38 2.24,-9.85 0,-4.46 -0.75,-7.81 -2.24,-9.85 -1.29,-1.48 -3.15,-2.41 -5.39,-2.41 -2.42,0 -4.28,0.74 -5.58,2.41z"/>
  <path class="fil6" d="M854.62 2478.67c0.56,0.37 0.75,1.11 1.11,2.22 0.18,0.93 0.38,2.98 0.38,5.76 0,2.79 -0.21,4.83 -0.38,5.95 -0.37,0.93 -0.55,1.48 -1.11,1.86 -0.37,0.37 -0.94,0.56 -1.49,0.56 -0.55,0 -0.92,-0.19 -1.29,-0.56 -0.56,-0.19 -0.93,-0.93 -1.11,-2.05 -0.38,-1.11 -0.38,-2.98 -0.38,-5.76 0,-2.78 0.19,-4.83 0.38,-5.95 0.19,-0.93 0.56,-1.67 1.11,-2.04 0.37,-0.38 0.75,-0.38 1.29,-0.38 0.56,0 1.13,0 1.49,0.38zm-6.87 -1.87c-1.5,2.05 -2.23,5.21 -2.23,9.85 0,4.47 0.55,7.81 2.04,9.48 1.49,1.86 3.36,2.79 5.58,2.79 2.42,0 4.29,-0.93 5.58,-2.42 1.48,-2.04 2.23,-5.38 2.23,-9.85 0,-4.46 -0.75,-7.81 -2.23,-9.85 -1.3,-1.48 -3.16,-2.41 -5.58,-2.41 -2.22,0 -4.09,0.74 -5.38,2.41z"/>
  <path class="fil6" d="M866.52 2497.06c1.49,1.31 3.16,1.87 5.39,1.87 2.78,0 5.02,-1.11 6.5,-3.17 1.12,-1.67 1.67,-3.34 1.67,-5.39 0,-2.22 -0.55,-4.27 -2.04,-5.75 -1.49,-1.51 -3.15,-2.23 -5.21,-2.23 -1.12,0 -2.05,0.37 -3.16,0.73l0.74 -4.08 8.75 0 0 -4.27 -12.08 0 -2.42 12.45 3.72 0.56c0.92,-1.12 2.23,-1.67 3.53,-1.67 1.11,0 1.86,0.37 2.59,1.11 0.57,0.74 0.94,1.86 0.94,3.34 0,1.49 -0.37,2.61 -0.94,3.54 -0.73,0.75 -1.48,1.11 -2.41,1.11 -0.93,0 -1.68,-0.37 -2.22,-0.92 -0.74,-0.56 -1.11,-1.48 -1.11,-2.41l-4.65 0.37c0.18,2.04 1.11,3.71 2.41,4.82z"/>
  <path class="fil6" d="M773.39 2350.58l-17.66 0c0,0 2.42,-20.81 17.66,-33.63l0 33.63zm-18.59 6.33l18.59 0.18 0 58.19 6.69 2.78 0.36 -115.24c-27.88,15.61 -31.6,44.8 -31.6,44.8 -4.28,19.89 2.05,33.08 2.05,33.08l6.13 -1.86c-4.09,-12.25 -2.23,-21.92 -2.23,-21.92z"/>
  <path class="fil6" d="M798.85 2348.17c0,0 -3.15,5.95 -6.51,2.79l0 -46.28c0,0 7.25,-3.54 8.92,1.66 0,0 9.29,24.18 -2.42,41.83zm-6.51 68.78l0 -58.75c0,0 4.65,-1.3 8.92,5.02 0,0 17.11,24.36 1.12,50.19 0,0 -3.16,5.2 -6.69,4.48 0,0 -2.42,0 -3.35,-0.93zm-7.06 -116.56l-0.38 120.63c2.24,0.56 8.55,3.16 8.55,3.16 11.34,3.72 16.74,-8.91 16.74,-8.91 7.44,-15.07 6.13,-32.17 3.35,-42.38 -2.98,-11.16 -10.23,-17.85 -10.23,-17.85 -1.29,-0.37 0.19,-2.41 0.19,-2.41 16.18,-26.59 3.16,-50.19 3.16,-50.19 -5.39,-11.89 -21.37,-2.05 -21.37,-2.05z"/>
  <path class="fil6" d="M817.63 2294.45l0 132.36 7.62 -0.19 -0.37 -103.53c0.37,-2.05 0.74,-0.94 0.74,-0.94l13.38 49.44 -0.18 50.57c1.68,0.38 7.43,-3.9 7.43,-3.9l-0.18 -114.87 -7.07 -3.72 0.19 43.49c-0.19,3.54 -0.74,0.37 -0.74,0.37l-13.39 -48.52 -7.43 -0.56z"/>
  <path class="fil6" d="M856.66 2320.11l-0.17 90.53c2.23,-0.75 7.63,-7.25 7.63,-7.25l0 -71.57c0,-2.42 1.11,0.93 1.11,0.93l4.08 9.29 5.96 -2.61c-8.37,-24.91 -24.91,-33.45 -24.91,-33.45l-0.19 7.61 6.5 6.52 0 -0z"/>
  <path class="fil6" d="M758.7 2420.3c0,0 -19.14,-15.43 -24.35,-42.02 0,0 -5.95,-27.51 7.62,-51.67 0,0 10.04,-19.52 32.53,-31.61 0,0 24.54,-13.75 60.04,-5.57 0,0 -41.82,-18.4 -78.63,13.02 0,0 -20.63,14.87 -27.7,47.58 0,0 -8.17,31.42 14.88,62.46 0,0 18.76,26.76 50.36,30.29 0,0 53.35,10.78 82.17,-42.93 0,0 -30.85,48.32 -81.61,37.36 0,0 -19.88,-3.16 -35.32,-16.92l-0 0z"/>
  <path class="fil6" d="M738.07 2382.2c0,0 5.02,21.93 26.77,38.66 0,0 24.35,21.57 63.38,12.26 0,0 -35.69,6.5 -60.78,-14.12 0,0 -19.53,-17.46 -23.98,-35.32 0,0 -11.15,-27.69 7.63,-60.59 0,0 12.45,-21.01 38.1,-31.05 0,0 -30.3,8.55 -45.54,37.56 0,0 -13.39,26.57 -5.58,52.6z"/>
  <path class="fil8" d="M731.12 1574.9l-509.04 0 0 -660.42 138.84 0 7.75 0 0 -33.76 0.03 0 0 -219.86c0,-11.72 5.07,-22.63 13.19,-30.44 8.12,-7.81 19.27,-12.7 31.79,-12.7l272.61 0c12.18,0 23.51,4.88 31.63,12.7 8.12,7.82 13.19,18.72 13.19,30.44l0 914.04 -0 -0zm-0.67 -956.69c-11.34,-10.9 -27.06,-17.74 -44.15,-17.74l-272.61 0c-17.25,0 -32.98,6.84 -44.31,17.74 -11.33,11.07 -18.26,26.05 -18.26,42.65l0 235.22 0 1.31 -137.83 0 -8.97 0 0 8.63 0 677.35 0 8.63 8.97 0 526.79 0 8.8 0 0 -8.63 0 -922.51c0,-16.61 -7.1,-31.58 -18.43,-42.65l0 0z"/>
  <path class="fil4 str2" d="M1132.89 2629.16l-404.39 0c-38.11,0 -69.01,-30.9 -69.01,-69.02l0 -373.32c0,-38.12 30.9,-69.02 69.01,-69.02l404.39 0c38.12,0 69.01,30.9 69.01,69.02l0 373.32c0,38.12 -30.9,69.02 -69.01,69.02z"/>
  <path class="fil3" d="M984 2988.42l-554.03 0c-6.09,0 -11.03,-4.93 -11.03,-11.01l0 -238.65c0,-6.08 4.93,-11.01 11.03,-11.01l554.03 0c6.09,0 11.02,4.93 11.02,11.01l0 238.65c0,6.08 -4.93,11.01 -11.02,11.01z"/>
  <path class="fil23" d="M602.53 1704.96c-3.55,0 -6.94,1.18 -9.81,3.41 -3.4,2.62 -5.54,6.41 -6.06,10.68 -0.5,4.16 0.65,8.25 3.24,11.52 15.8,20.45 27.72,41.34 35.43,62.1 7.61,20.49 11.33,41.42 11.06,62.23 -0.26,20.49 -4.39,41.42 -12.29,62.21 -7.75,20.44 -19.37,41.32 -34.51,62.06 -2.54,3.54 -3.54,7.84 -2.81,12.11 0.71,4.13 2.98,7.71 6.39,10.08l0.03 0.02c2.69,2.03 5.9,3.11 9.27,3.11 5.07,0 9.84,-2.45 12.75,-6.55 71.29,-97.89 71.24,-194.37 -0.14,-286.75 -3.08,-3.96 -7.65,-6.23 -12.56,-6.23zm-0.05 301.69c-3.85,0 -7.5,-1.22 -10.56,-3.53 -3.88,-2.71 -6.47,-6.78 -7.27,-11.48 -0.84,-4.84 0.29,-9.73 3.18,-13.75 61.39,-84.08 61.52,-166.84 0.35,-245.98 -2.95,-3.71 -4.26,-8.38 -3.69,-13.12 0.59,-4.84 3.03,-9.14 6.89,-12.12 3.26,-2.53 7.11,-3.87 11.14,-3.87 5.58,0 10.78,2.58 14.27,7.07 18.44,23.86 32.36,48.23 41.38,72.41 8.89,23.86 13.27,48.22 13.01,72.41 -0.26,23.83 -5.02,48.17 -14.16,72.34 -8.98,23.77 -22.45,48.05 -40.03,72.19 -3.31,4.66 -8.74,7.45 -14.51,7.45l0 0.01z"/>
  <path class="fil23" d="M521.21 1934.38c2.65,1.9 5.76,2.91 8.98,2.91 4.78,0 9.12,-2.19 11.87,-6.01l0.01 -0.02c17.93,-23.63 27.01,-48.77 27.01,-74.7 0,-25.42 -9.33,-51.07 -27.01,-74.19 -2.83,-3.71 -7.27,-5.93 -11.88,-5.93 -3.28,0 -6.38,1.08 -8.97,3.12 -6.47,5.06 -7.73,14.42 -2.81,20.87 6.81,8.91 12.03,18.18 15.51,27.58 3.49,9.43 5.27,19.03 5.27,28.55 0,19.25 -6.99,38.36 -20.77,56.79 -4.89,6.42 -3.63,15.85 2.8,21.04l0 -0zm8.98 5.09l0 0c-3.7,-0.01 -7.25,-1.16 -10.27,-3.34l-0.05 -0.03c-3.55,-2.86 -5.85,-6.92 -6.47,-11.42 -0.63,-4.55 0.53,-9.05 3.28,-12.65 13.49,-18.04 20.32,-36.71 20.32,-55.48 0,-18.72 -6.84,-37.16 -20.32,-54.82 -5.64,-7.4 -4.2,-18.12 3.2,-23.9 2.98,-2.34 6.54,-3.57 10.31,-3.57 5.28,0 10.37,2.53 13.61,6.78 8.98,11.74 15.86,24.12 20.48,36.78 4.63,12.71 6.98,25.73 6.98,38.73 0,26.42 -9.23,51.99 -27.44,76 -3.17,4.39 -8.14,6.92 -13.63,6.92l0 0z"/>
  <path class="fil23" d="M565.02 1743.59c-3.26,0 -6.34,1.05 -8.88,3.05l-0.02 0.02c-3.19,2.36 -5.23,5.84 -5.76,9.79 -0.53,3.93 0.55,7.97 2.97,11.05 10.64,14 18.8,28.61 24.24,43.42 5.46,14.87 8.23,30.05 8.23,45.13 0,30.22 -10.98,60.23 -32.63,89.21 -2.42,3.19 -3.46,7.11 -2.9,11.05 0.56,3.93 2.64,7.42 5.86,9.82 2.57,1.96 5.64,3 8.88,3 4.67,0 9.15,-2.23 11.99,-5.96 25.68,-34.03 38.71,-70.07 38.71,-107.11 0,-36.9 -13.08,-72.77 -38.87,-106.6 -2.83,-3.72 -7.14,-5.86 -11.81,-5.86zm-0.02 227.7l0 0c-3.72,0 -7.24,-1.19 -10.19,-3.44 -3.68,-2.74 -6.06,-6.74 -6.7,-11.25 -0.64,-4.52 0.54,-9.01 3.32,-12.66 21.36,-28.59 32.19,-58.16 32.19,-87.9 0,-29.93 -10.77,-59.28 -32.02,-87.22 -2.76,-3.54 -4,-8.16 -3.39,-12.67 0.61,-4.53 2.96,-8.52 6.61,-11.25 2.94,-2.28 6.47,-3.5 10.21,-3.5 5.36,0 10.29,2.45 13.53,6.71 12.89,16.92 22.77,34.64 29.36,52.67 6.61,18.11 9.96,36.71 9.96,55.25 0,18.43 -3.26,36.9 -9.69,54.88 -6.55,18.31 -16.46,36.32 -29.45,53.55 -3.26,4.27 -8.39,6.82 -13.73,6.82z"/>
 </g>
</svg>
