<?xml version="1.0" encoding="UTF-8"?>
<!DOCTYPE svg PUBLIC "-//W3C//DTD SVG 1.1//EN" "http://www.w3.org/Graphics/SVG/1.1/DTD/svg11.dtd">
<!-- Creator: CorelDRAW (Versión OEM) -->
<svg xmlns="http://www.w3.org/2000/svg" xml:space="preserve" width="90mm" height="320mm" version="1.1" style="shape-rendering:geometricPrecision; text-rendering:geometricPrecision; image-rendering:optimizeQuality; fill-rule:evenodd; clip-rule:evenodd"
viewBox="0 0 9000 32000"
 xmlns:xlink="http://www.w3.org/1999/xlink"
 xmlns:xodm="http://www.corel.com/coreldraw/odm/2003">
 <defs>
  <style type="text/css">
   <![CDATA[
    .str0 {stroke:#239DD8;stroke-width:17.64;stroke-miterlimit:22.9256}
    .str2 {stroke:#279BD7;stroke-width:17.64;stroke-miterlimit:22.9256}
    .str1 {stroke:#239DD8;stroke-width:17.64;stroke-miterlimit:22.9256;stroke-dasharray:169.310000 169.310000 169.310000 169.310000 169.310000 169.310000 169.310000 169.310000 169.310000 169.310000}
    .fil1 {fill:none}
    .fil4 {fill:none;fill-rule:nonzero}
    .fil6 {fill:black}
    .fil9 {fill:#239DD8}
    .fil16 {fill:#254558}
    .fil21 {fill:#27B460}
    .fil17 {fill:#29945A}
    .fil22 {fill:#2AA85E}
    .fil10 {fill:#2DB266}
    .fil14 {fill:#5CBB61}
    .fil19 {fill:#84C55E}
    .fil20 {fill:#B0D355}
    .fil11 {fill:#B5D454}
    .fil18 {fill:#D6E04D}
    .fil7 {fill:#EE4143}
    .fil15 {fill:#F47C40}
    .fil12 {fill:#F6EC48}
    .fil13 {fill:#FCB83F}
    .fil0 {fill:#FEFEFE}
    .fil2 {fill:black;fill-rule:nonzero}
    .fil8 {fill:#239DD8;fill-rule:nonzero}
    .fil5 {fill:#A9ABAE;fill-rule:nonzero}
    .fil3 {fill:#FEFEFE;fill-rule:nonzero}
   ]]>
  </style>
 </defs>
 <g id="Capa_x0020_1">
  <metadata id="CorelCorpID_0Corel-Layer"/>
  <g id="_2776742598416">
   <polygon class="fil0" points="8993.61,31986.09 -2.15,31986.09 -2.15,5.75 8993.61,5.75 "/>
   <path class="fil1 str0" d="M7886.8 17099.04l-6805.21 0c-191.89,0 -347.38,-153.4 -347.38,-342.62l0 -13121.82c0,-189.19 155.49,-342.63 347.38,-342.63l6805.21 0c191.85,0 347.39,153.44 347.39,342.63l0 13121.82c0,189.22 -155.54,342.62 -347.39,342.62z"/>
   <polygon class="fil2" points="-2.15,31998.25 8993.61,31998.25 8993.61,31062.44 -2.15,31062.44 "/>
   <polygon class="fil3" points="6.29,21477.76 8993.61,21477.76 8993.61,18918.96 6.29,18918.96 "/>
   <path class="fil4 str1" d="M8760.28 30934.2l-8508.01 0c-80.61,0 -145.98,-75.33 -145.98,-168.25l0 -11186.89c0,-92.93 65.37,-168.26 145.98,-168.26l8508.01 0c80.64,0 146.01,75.33 146.01,168.26l0 11186.89c0,92.92 -65.37,168.25 -146.01,168.25z"/>
   <polygon class="fil3" points="3209.08,31444.4 3119.83,31718.13 3055.81,31718.13 3052.52,31718.13 3016.41,31608.1 2980.25,31718.13 2924.4,31718.13 2912.89,31718.13 2823.14,31444.4 2898.66,31444.4 2951.78,31631.63 2987.37,31519.97 2962.75,31444.4 3025.67,31444.4 3082.62,31624.51 3134.09,31444.4 "/>
   <polygon class="fil3" points="3605.8,31444.4 3516.56,31718.13 3452.52,31718.13 3449.25,31718.13 3413.12,31608.1 3376.96,31718.13 3321.11,31718.13 3309.61,31718.13 3219.85,31444.4 3295.4,31444.4 3348.48,31631.63 3384.08,31519.97 3359.46,31444.4 3422.4,31444.4 3479.33,31624.51 3530.8,31444.4 "/>
   <polygon class="fil3" points="4002.54,31444.4 3913.29,31718.13 3849.26,31718.13 3845.98,31718.13 3809.85,31608.1 3773.69,31718.13 3717.85,31718.13 3706.35,31718.13 3616.6,31444.4 3692.13,31444.4 3745.22,31631.63 3780.82,31519.97 3756.2,31444.4 3819.13,31444.4 3876.07,31624.51 3927.54,31444.4 "/>
   <polygon class="fil3" points="3993.08,31639.86 4070.81,31639.86 4070.81,31718.14 3993.08,31718.14 "/>
   <polygon class="fil3" points="4285.88,31718.13 4234.41,31637.66 4183.51,31718.13 4107.98,31718.13 4196.63,31577.96 4112.35,31444.4 4187.88,31444.4 4234.41,31518.3 4281.52,31444.4 4357.04,31444.4 4272.21,31577.96 4361.45,31718.13 "/>
   <path class="fil3" d="M4618.62 31581.24c0,-45.96 -32.32,-77.18 -76.1,-77.18 -43.25,0 -75.53,31.22 -75.53,77.18 0,46.01 32.28,77.19 75.53,77.19 43.78,0 76.1,-31.18 76.1,-77.19zm70.63 0c0,81.6 -60.23,144.54 -133.61,144.54 -39.93,0 -69.5,-15.31 -88.65,-39.97l0 32.31 -70.62 0 0 -383.19 70.62 0 0 141.75c19.15,-24.62 48.72,-39.97 88.65,-39.97 73.38,0 133.61,62.97 133.61,144.53z"/>
   <path class="fil3" d="M4884.53 31438.93l0 78.81c-36.7,-4.38 -75.01,12.06 -75.01,65.15l0 135.22 -70.63 0 0 -273.72 70.63 0 0 41.03c13.69,-32.28 41.59,-46.49 75.01,-46.49z"/>
   <path class="fil3" d="M4923.31 31444.41l70.62 0 0 273.72 -70.62 0 0 -273.72zm0 -109.5l70.62 0 0 71.15 -70.62 0 0 -71.15z"/>
   <polygon class="fil3" points="5060.68,31639.86 5138.43,31639.86 5138.43,31718.14 5060.68,31718.14 "/>
   <path class="fil3" d="M5314.11 31725.78c-83.22,0 -144.53,-62.94 -144.53,-144.54 0,-81.52 61.31,-144.5 144.53,-144.5 67.87,0 124.26,44.88 136.84,107.32l-74.43 0c-9.85,-23.04 -33.4,-37.82 -62.41,-37.82 -41.59,0 -73.91,31.22 -73.91,75 0,43.29 32.32,74.47 73.91,74.47 29.01,0 53.09,-14.25 62.41,-37.78l74.43 0c-12.58,62.97 -68.97,107.85 -136.84,107.85z"/>
   <path class="fil3" d="M5698.27 31581.24c0,-44.34 -32.31,-75.56 -74.44,-75.56 -41.62,0 -73.9,31.22 -73.9,75.56 0,44.35 32.28,75.57 73.9,75.57 42.13,0 74.44,-31.22 74.44,-75.57zm-218.97 0c0,-81.56 64.03,-144.53 144.53,-144.53 80.47,0 145.07,62.97 145.07,144.53 0,81.6 -64.6,144.54 -145.07,144.54 -80.5,0 -144.53,-62.94 -144.53,-144.54z"/>
   <path class="fil3" d="M6180.98 31533.63l0 184.47 -70.63 0 0 -179c0,-27.38 -15.87,-36.69 -34.46,-36.69 -19.15,0 -40.54,10.41 -40.54,46l0 169.69 -70.59 0 0 -179c0,-27.38 -16.44,-36.69 -35.06,-36.69 -19.16,0 -40.5,10.41 -40.5,46l0 169.69 -70.63 0 0 -273.69 70.63 0 0 26.78c14.78,-22.4 37.78,-34.47 65.68,-34.47 27.91,0 51.47,12.6 65.68,36.13 18.64,-22.97 43.26,-36.13 75.58,-36.13 51.47,0 84.84,33.94 84.84,96.91z"/>
   <g>
    <path class="fil5" d="M2805.83 24906.66l14.32 0 0 -29.63 -11.85 0c-27.66,0 -36.06,-14.33 -36.06,-41l0 -254.35c0,-33.09 14.82,-40.5 36.06,-40.5l11.85 0 0 -29.63 -14.32 0c-54.33,0 -69.64,26.17 -69.64,70.13l0 254.35c0,55.81 26.67,70.63 69.64,70.63z"/>
    <path class="fil5" d="M2934.25 24862.21c49.89,0 77.05,-31.12 77.05,-82.48l0 -45.93 -36.55 0 0 48.4c0,29.63 -15.31,44.94 -39.51,44.94 -24.2,0 -39.51,-15.31 -39.51,-44.94l0 -195.58c0,-29.64 15.31,-44.95 39.51,-44.95 24.2,0 39.51,15.31 39.51,44.95l0 38.03 36.55 0 0 -35.56c0,-51.86 -27.16,-82.48 -77.05,-82.48 -49.39,0 -77.04,30.62 -77.04,82.48l0 190.64c0,51.36 27.65,82.48 77.04,82.48z"/>
    <path class="fil5" d="M3117.98 24862.21c46.92,0 73.09,-29.14 73.09,-80.51l0 -97.79c0,-51.36 -26.17,-80.01 -73.09,-80.01 -47.41,0 -73.09,28.65 -73.09,80.01l0 97.79c0,51.37 25.68,80.51 73.09,80.51zm0 -33.09c-25.68,0 -36.05,-16.79 -36.05,-43.96l0 -104.7c0,-26.67 10.37,-43.46 36.05,-43.46 25.68,0 35.56,16.79 35.56,43.46l0 104.7c0,27.17 -10.37,43.96 -35.56,43.96z"/>
    <polygon class="fil5" points="3233.05,24857.27 3270.09,24857.27 3270.09,24511.55 3233.05,24511.55 "/>
    <path class="fil5" d="M3386.17 24603.9c-47.92,0 -73.61,28.65 -73.61,80.01l0 97.79c0,51.37 25.69,80.51 73.61,80.51 47.4,0 73.58,-29.14 73.58,-80.51l0 -3.95 -36.06 0 0 7.41c0,30.13 -12.84,43.96 -37.05,43.96 -24.19,0 -36.54,-13.83 -36.54,-43.96l0 -46.42 109.65 0 0 -54.83c0,-51.36 -26.18,-80.01 -73.58,-80.01zm-36.07 104.22l0 -27.66c0,-29.64 12.35,-43.46 36.07,-43.46 23.69,0 37.03,13.82 37.03,43.46l0 27.66 -73.1 0z"/>
    <path class="fil5" d="M3642.48 24862.21c44.45,0 69.15,-26.67 69.15,-69.15 0,-44.45 -30.62,-60.74 -58.29,-75.07 -23.69,-11.85 -44.45,-23.21 -44.45,-48.4 0,-22.72 14.33,-33.58 31.62,-33.58 18.76,0 31.61,10.86 31.61,36.05l0 5.93 35.06 0 0 -4.94c0,-43.46 -26.67,-69.15 -67.17,-69.15 -42.47,0 -67.17,25.69 -67.17,66.19 0,45.93 31.12,61.73 58.78,76.55 22.72,11.36 42.97,22.72 42.97,46.92 0,25.19 -13.83,36.05 -34.08,36.05 -20.25,0 -34.08,-11.36 -34.08,-38.03l0 -9.38 -36.06 0 0 8.39c0,44.95 26.67,71.62 72.11,71.62z"/>
    <path class="fil5" d="M3853.87 24608.84l0 164.96c0,37.04 -16.8,55.32 -39.02,55.32 -21.73,0 -31.12,-14.82 -31.12,-43.46l0 -176.82 -37.53 0 0 181.26c0,49.88 20.74,72.11 57.29,72.11 25.19,0 44.96,-13.83 54.82,-38.03l0.5 33.09 32.1 0 0 -248.43 -37.04 0z"/>
    <path class="fil5" d="M4078.59 24857.27c-3.46,-14.32 -5.43,-36.55 -5.43,-67.66l0 -110.63c0,-49.39 -21.24,-75.08 -68.65,-75.08 -44.45,0 -70.14,25.69 -70.14,72.11l0 5.44 35.07 0 0 -7.41c0,-24.7 12.83,-38.03 34.57,-38.03 21.24,0 32.11,12.34 32.11,37.04l0 5.93c0,16.79 -5.44,21.73 -46.92,40.49 -44.95,21.24 -61.74,42.97 -61.74,81.5 0,37.53 21.24,61.24 55.32,61.24 27.65,0 47.9,-13.83 57.78,-38.52 0.98,15.8 2.47,28.64 3.94,33.58l34.09 0zm-82.97 -27.66c-20.25,0 -30.62,-12.35 -30.62,-34.08 0,-21.73 10.37,-36.54 35.05,-48.89 21.25,-10.87 31.13,-16.79 36.07,-23.21l0 49.88c0,35.56 -15.31,56.3 -40.5,56.3z"/>
    <path class="fil5" d="M4268.74 24603.9c-47.91,0 -73.58,28.65 -73.58,80.01l0 97.79c0,51.37 25.67,80.51 73.58,80.51 47.41,0 73.59,-29.14 73.59,-80.51l0 -3.95 -36.06 0 0 7.41c0,30.13 -12.85,43.96 -37.04,43.96 -24.2,0 -36.55,-13.83 -36.55,-43.96l0 -46.42 109.65 0 0 -54.83c0,-51.36 -26.18,-80.01 -73.59,-80.01zm-36.06 104.22l0 -27.66c0,-29.64 12.35,-43.46 36.06,-43.46 23.7,0 37.04,13.82 37.04,43.46l0 27.66 -73.1 0z"/>
    <path class="fil5" d="M4480.11 24640.45l0 -31.61 -44.92 0 0 -71.61 -32.11 0 -3.95 71.61 -32.11 0 0 31.61 30.62 0 0 164.96c0,38.03 17.78,56.8 54.83,56.8 10.86,0 18.75,-0.99 27.64,-4.94l0 -32.1c-7.4,2.96 -14.31,3.95 -20.74,3.95 -17.78,0 -24.18,-7.9 -24.18,-27.66l0 -161.01 44.92 0z"/>
    <path class="fil5" d="M4513.71 24573.28l37.05 0 0 -53.34 -37.05 0 0 53.34zm0 283.99l37.05 0 0 -248.43 -37.05 0 0 248.43z"/>
    <path class="fil5" d="M4713.24 24608.84l-4.94 35.07c-9.87,-25.19 -30.13,-40.01 -55.81,-40.01 -36.55,0 -58.27,22.23 -58.27,71.62l0 114.58c0,49.39 21.72,72.11 58.27,72.11 21.74,0 40.01,-10.87 50.88,-29.63l0 101.24 37.03 0 0 -324.98 -27.16 0zm-49.89 220.28c-22.71,0 -31.6,-16.3 -31.6,-41.98l0 -108.66c0,-25.19 8.89,-41.48 31.6,-41.48 22.73,0 40.02,18.76 40.02,55.31l0 81.49c0,36.55 -17.29,55.32 -40.02,55.32z"/>
    <path class="fil5" d="M4893.51 24608.84l0 164.96c0,37.04 -16.8,55.32 -39.02,55.32 -21.73,0 -31.12,-14.82 -31.12,-43.46l0 -176.82 -37.53 0 0 181.26c0,49.88 20.74,72.11 57.29,72.11 25.19,0 44.95,-13.83 54.81,-38.03l0.51 33.09 32.1 0 0 -248.43 -37.04 0z"/>
    <path class="fil5" d="M5046.62 24603.9c-47.91,0 -73.59,28.65 -73.59,80.01l0 97.79c0,51.37 25.68,80.51 73.59,80.51 47.41,0 73.59,-29.14 73.59,-80.51l0 -3.95 -36.05 0 0 7.41c0,30.13 -12.85,43.96 -37.05,43.96 -24.2,0 -36.55,-13.83 -36.55,-43.96l0 -46.42 109.65 0 0 -54.83c0,-51.36 -26.18,-80.01 -73.59,-80.01zm-36.06 104.22l0 -27.66c0,-29.64 12.35,-43.46 36.06,-43.46 23.7,0 37.04,13.82 37.04,43.46l0 27.66 -73.1 0z"/>
    <path class="fil5" d="M5258 24640.45l0 -31.61 -44.94 0 0 -71.61 -32.1 0 -3.95 71.61 -32.11 0 0 31.61 30.62 0 0 164.96c0,38.03 17.78,56.8 54.83,56.8 10.85,0 18.76,-0.99 27.65,-4.94l0 -32.1c-7.41,2.96 -14.32,3.95 -20.74,3.95 -17.78,0 -24.2,-7.9 -24.2,-27.66l0 -161.01 44.94 0z"/>
    <path class="fil5" d="M5431.85 24857.27c-3.46,-14.32 -5.43,-36.55 -5.43,-67.66l0 -110.63c0,-49.39 -21.24,-75.08 -68.65,-75.08 -44.45,0 -70.13,25.69 -70.13,72.11l0 5.44 35.06 0 0 -7.41c0,-24.7 12.84,-38.03 34.57,-38.03 21.24,0 32.1,12.34 32.1,37.04l0 5.93c0,16.79 -5.43,21.73 -46.91,40.49 -44.94,21.24 -61.74,42.97 -61.74,81.5 0,37.53 21.24,61.24 55.31,61.24 27.66,0 47.91,-13.83 57.79,-38.52 0.99,15.8 2.47,28.64 3.95,33.58l34.08 0zm-82.97 -27.66c-20.25,0 -30.63,-12.35 -30.63,-34.08 0,-21.73 10.38,-36.54 35.07,-48.89 21.23,-10.87 31.12,-16.79 36.05,-23.21l0 49.88c0,35.56 -15.3,56.3 -40.49,56.3z"/>
    <path class="fil5" d="M5693.61 24857.27c-3.46,-14.32 -5.43,-36.55 -5.43,-67.66l0 -110.63c0,-49.39 -21.24,-75.08 -68.65,-75.08 -44.45,0 -70.14,25.69 -70.14,72.11l0 5.44 35.07 0 0 -7.41c0,-24.7 12.84,-38.03 34.57,-38.03 21.24,0 32.11,12.34 32.11,37.04l0 5.93c0,16.79 -5.44,21.73 -46.92,40.49 -44.95,21.24 -61.74,42.97 -61.74,81.5 0,37.53 21.24,61.24 55.32,61.24 27.65,0 47.9,-13.83 57.78,-38.52 0.99,15.8 2.47,28.64 3.95,33.58l34.08 0zm-82.97 -27.66c-20.25,0 -30.62,-12.35 -30.62,-34.08 0,-21.73 10.37,-36.54 35.06,-48.89 21.24,-10.87 31.12,-16.79 36.06,-23.21l0 49.88c0,35.56 -15.31,56.3 -40.5,56.3z"/>
    <path class="fil5" d="M5849.67 24608.84l-4.94 35.07c-9.87,-25.19 -30.12,-40.01 -55.81,-40.01 -36.54,0 -58.27,22.23 -58.27,71.62l0 114.58c0,49.39 21.73,72.11 58.27,72.11 21.74,0 40.01,-10.87 50.88,-29.63l0 101.24 37.04 0 0 -324.98 -27.17 0zm-49.88 220.28c-22.72,0 -31.61,-16.3 -31.61,-41.98l0 -108.66c0,-25.19 8.89,-41.48 31.61,-41.48 22.72,0 40.01,18.76 40.01,55.31l0 81.49c0,36.55 -17.29,55.32 -40.01,55.32z"/>
    <path class="fil5" d="M6029.94 24608.84l0 164.96c0,37.04 -16.79,55.32 -39.01,55.32 -21.74,0 -31.12,-14.82 -31.12,-43.46l0 -176.82 -37.54 0 0 181.26c0,49.88 20.74,72.11 57.29,72.11 25.19,0 44.95,-13.83 54.82,-38.03l0.5 33.09 32.1 0 0 -248.43 -37.04 0z"/>
    <path class="fil5" d="M6114.41 24573.28l37.04 0 0 -53.34 -37.04 0 0 53.34zm0 283.99l37.04 0 0 -248.43 -37.04 0 0 248.43z"/>
    <path class="fil5" d="M6192.45 24906.66l14.33 0c54.32,0 69.63,-25.68 69.63,-70.63l0 -254.35c0,-54.33 -25.68,-70.13 -69.63,-70.13l-14.33 0 0 29.63 11.85 0c27.66,0 36.55,13.83 36.55,40.5l0 254.35c0,33.09 -14.33,41 -36.55,41l-11.85 0 0 29.63z"/>
    <path class="fil5" d="M2748.78 25372.53l14.32 0 0 -29.63 -11.85 0c-27.67,0 -36.06,-14.33 -36.06,-41l0 -254.35c0,-33.09 14.82,-40.5 36.06,-40.5l11.85 0 0 -29.63 -14.32 0c-54.33,0 -69.65,26.17 -69.65,70.13l0 254.35c0,55.81 26.67,70.63 69.65,70.63z"/>
    <path class="fil5" d="M2804.1 25323.15l38.52 0 0 -148.66 37.04 0c53.34,0 78.04,-27.66 78.04,-83.47l0 -29.63c0,-55.81 -24.7,-83.96 -78.04,-83.96l-75.56 0 0 345.72zm38.52 -183.74l0 -126.93 37.04 0c27.16,0 39.5,12.35 39.5,46.43l0 34.08c0,34.08 -12.34,46.42 -39.5,46.42l-37.04 0z"/>
    <path class="fil5" d="M3061.92 25069.77c-47.91,0 -73.59,28.65 -73.59,80.01l0 97.79c0,51.37 25.68,80.51 73.59,80.51 47.41,0 73.59,-29.14 73.59,-80.51l0 -3.95 -36.06 0 0 7.41c0,30.13 -12.84,43.96 -37.04,43.96 -24.2,0 -36.56,-13.83 -36.56,-43.96l0 -46.42 109.66 0 0 -54.83c0,-51.36 -26.18,-80.01 -73.59,-80.01zm-36.07 104.22l0 -27.66c0,-29.64 12.36,-43.46 36.07,-43.46 23.7,0 37.04,13.82 37.04,43.46l0 27.66 -73.11 0z"/>
    <path class="fil5" d="M3286.13 25074.71l-0.49 33.09c-9.88,-24.2 -29.63,-38.03 -55.31,-38.03 -36.05,0 -57.79,22.23 -57.79,71.62l0 103.72c0,49.38 21.74,72.1 57.79,72.1 22.22,0 40,-10.86 50.87,-29.63l0 45.44c0,28.15 -11.86,40.5 -36.06,40.5 -23.21,0 -35.06,-11.36 -35.06,-31.12l0 -3.46 -35.56 0 0 1.98c0,40.99 24.2,63.71 71.12,63.71 53.34,0 72.6,-27.16 72.6,-74.08l0 -255.84 -32.11 0zm-44.45 209.42c-23.21,0 -32.1,-16.3 -32.1,-41.98l0 -97.79c0,-25.19 8.89,-41.48 32.1,-41.48 22.23,0 39.52,18.76 39.52,55.31l0 70.63c0,36.54 -17.29,55.31 -39.52,55.31z"/>
    <path class="fil5" d="M3471.35 25074.71l0 164.96c0,37.04 -16.78,55.32 -39.02,55.32 -21.74,0 -31.1,-14.82 -31.1,-43.46l0 -176.82 -37.55 0 0 181.26c0,49.88 20.74,72.11 57.29,72.11 25.18,0 44.95,-13.83 54.81,-38.03l0.51 33.09 32.09 0 0 -248.43 -37.03 0z"/>
    <path class="fil5" d="M3624.46 25069.77c-47.91,0 -73.59,28.65 -73.59,80.01l0 97.79c0,51.37 25.68,80.51 73.59,80.51 47.41,0 73.59,-29.14 73.59,-80.51l0 -3.95 -36.06 0 0 7.41c0,30.13 -12.84,43.96 -37.04,43.96 -24.2,0 -36.56,-13.83 -36.56,-43.96l0 -46.42 109.66 0 0 -54.83c0,-51.36 -26.18,-80.01 -73.59,-80.01zm-36.07 104.22l0 -27.66c0,-29.64 12.36,-43.46 36.07,-43.46 23.7,0 37.04,13.82 37.04,43.46l0 27.66 -73.11 0z"/>
    <path class="fil5" d="M3880.78 25328.08c44.45,0 69.15,-26.67 69.15,-69.15 0,-44.45 -30.62,-60.74 -58.28,-75.07 -23.71,-11.85 -44.45,-23.21 -44.45,-48.4 0,-22.72 14.32,-33.58 31.61,-33.58 18.77,0 31.61,10.86 31.61,36.05l0 5.93 35.06 0 0 -4.94c0,-43.46 -26.67,-69.15 -67.17,-69.15 -42.47,0 -67.17,25.69 -67.17,66.19 0,45.93 31.12,61.73 58.78,76.55 22.72,11.36 42.97,22.72 42.97,46.92 0,25.19 -13.82,36.05 -34.08,36.05 -20.25,0 -34.08,-11.36 -34.08,-38.03l0 -9.38 -36.05 0 0 8.39c0,44.95 26.67,71.62 72.1,71.62z"/>
    <path class="fil5" d="M4092.17 25074.71l0 164.96c0,37.04 -16.79,55.32 -39.02,55.32 -21.73,0 -31.11,-14.82 -31.11,-43.46l0 -176.82 -37.54 0 0 181.26c0,49.88 20.74,72.11 57.28,72.11 25.2,0 44.96,-13.83 54.83,-38.03l0.5 33.09 32.1 0 0 -248.43 -37.04 0z"/>
    <path class="fil5" d="M4325.79 25069.77c-47.92,0 -73.6,28.65 -73.6,80.01l0 97.79c0,51.37 25.68,80.51 73.6,80.51 47.4,0 73.58,-29.14 73.58,-80.51l0 -3.95 -36.06 0 0 7.41c0,30.13 -12.84,43.96 -37.05,43.96 -24.19,0 -36.54,-13.83 -36.54,-43.96l0 -46.42 109.65 0 0 -54.83c0,-51.36 -26.18,-80.01 -73.58,-80.01zm-36.07 104.22l0 -27.66c0,-29.64 12.35,-43.46 36.07,-43.46 23.69,0 37.03,13.82 37.03,43.46l0 27.66 -73.1 0z"/>
    <path class="fil5" d="M4537.16 25106.32l0 -31.61 -44.94 0 0 -71.61 -32.1 0 -3.96 71.61 -32.11 0 0 31.61 30.63 0 0 164.96c0,38.03 17.78,56.8 54.82,56.8 10.87,0 18.77,-0.99 27.66,-4.94l0 -32.1c-7.41,2.96 -14.32,3.95 -20.74,3.95 -17.78,0 -24.2,-7.9 -24.2,-27.66l0 -161.01 44.94 0z"/>
    <path class="fil5" d="M4570.75 25039.15l37.04 0 0 -53.34 -37.04 0 0 53.34zm0 284l37.04 0 0 -248.43 -37.04 0 0 248.43z"/>
    <path class="fil5" d="M4770.29 25074.71l-4.95 35.07c-9.88,-25.19 -30.12,-40.01 -55.81,-40.01 -36.54,0 -58.27,22.23 -58.27,71.62l0 114.58c0,49.39 21.73,72.11 58.27,72.11 21.74,0 40,-10.87 50.88,-29.63l0 101.24 37.04 0 0 -324.98 -27.16 0zm-49.89 220.29c-22.72,0 -31.61,-16.3 -31.61,-41.98l0 -108.66c0,-25.19 8.89,-41.48 31.61,-41.48 22.72,0 40.01,18.76 40.01,55.31l0 81.49c0,36.55 -17.29,55.32 -40.01,55.32z"/>
    <path class="fil5" d="M4950.54 25074.71l0 164.96c0,37.04 -16.79,55.32 -39.02,55.32 -21.73,0 -31.11,-14.82 -31.11,-43.46l0 -176.82 -37.54 0 0 181.26c0,49.88 20.74,72.11 57.29,72.11 25.19,0 44.94,-13.83 54.82,-38.03l0.5 33.09 32.1 0 0 -248.43 -37.04 0z"/>
    <path class="fil5" d="M5103.66 25069.77c-47.91,0 -73.59,28.65 -73.59,80.01l0 97.79c0,51.37 25.68,80.51 73.59,80.51 47.41,0 73.59,-29.14 73.59,-80.51l0 -3.95 -36.06 0 0 7.41c0,30.13 -12.84,43.96 -37.04,43.96 -24.2,0 -36.55,-13.83 -36.55,-43.96l0 -46.42 109.65 0 0 -54.83c0,-51.36 -26.18,-80.01 -73.59,-80.01zm-36.06 104.22l0 -27.66c0,-29.64 12.35,-43.46 36.06,-43.46 23.7,0 37.03,13.82 37.03,43.46l0 27.66 -73.09 0z"/>
    <path class="fil5" d="M5315.04 25106.32l0 -31.61 -44.94 0 0 -71.61 -32.1 0 -3.95 71.61 -32.11 0 0 31.61 30.63 0 0 164.96c0,38.03 17.78,56.8 54.82,56.8 10.86,0 18.76,-0.99 27.65,-4.94l0 -32.1c-7.41,2.96 -14.33,3.95 -20.74,3.95 -17.78,0 -24.2,-7.9 -24.2,-27.66l0 -161.01 44.94 0z"/>
    <path class="fil5" d="M5488.89 25323.15c-3.46,-14.32 -5.43,-36.55 -5.43,-67.66l0 -110.63c0,-49.39 -21.24,-75.08 -68.65,-75.08 -44.45,0 -70.13,25.69 -70.13,72.11l0 5.44 35.06 0 0 -7.41c0,-24.7 12.85,-38.03 34.57,-38.03 21.24,0 32.11,12.34 32.11,37.04l0 5.93c0,16.79 -5.44,21.73 -46.92,40.49 -44.95,21.24 -61.74,42.97 -61.74,81.5 0,37.53 21.24,61.24 55.32,61.24 27.65,0 47.9,-13.83 57.78,-38.52 0.98,15.8 2.47,28.64 3.96,33.58l34.07 0zm-82.97 -27.66c-20.25,0 -30.62,-12.35 -30.62,-34.08 0,-21.73 10.37,-36.54 35.07,-48.89 21.23,-10.87 31.11,-16.79 36.05,-23.21l0 49.88c0,35.56 -15.32,56.3 -40.5,56.3z"/>
    <path class="fil5" d="M5750.65 25323.15c-3.46,-14.32 -5.44,-36.55 -5.44,-67.66l0 -110.63c0,-49.39 -21.23,-75.08 -68.64,-75.08 -44.45,0 -70.13,25.69 -70.13,72.11l0 5.44 35.07 0 0 -7.41c0,-24.7 12.83,-38.03 34.56,-38.03 21.24,0 32.11,12.34 32.11,37.04l0 5.93c0,16.79 -5.44,21.73 -46.92,40.49 -44.95,21.24 -61.74,42.97 -61.74,81.5 0,37.53 21.23,61.24 55.32,61.24 27.65,0 47.9,-13.83 57.79,-38.52 0.98,15.8 2.46,28.64 3.94,33.58l34.08 0zm-82.97 -27.66c-20.26,0 -30.62,-12.35 -30.62,-34.08 0,-21.73 10.36,-36.54 35.06,-48.89 21.24,-10.87 31.12,-16.79 36.06,-23.21l0 49.88c0,35.56 -15.31,56.3 -40.5,56.3z"/>
    <path class="fil5" d="M5906.71 25074.71l-4.94 35.07c-9.87,-25.19 -30.12,-40.01 -55.8,-40.01 -36.55,0 -58.28,22.23 -58.28,71.62l0 114.58c0,49.39 21.73,72.11 58.28,72.11 21.73,0 40,-10.87 50.87,-29.63l0 101.24 37.04 0 0 -324.98 -27.17 0zm-49.88 220.29c-22.73,0 -31.62,-16.3 -31.62,-41.98l0 -108.66c0,-25.19 8.89,-41.48 31.62,-41.48 22.72,0 40.01,18.76 40.01,55.31l0 81.49c0,36.55 -17.29,55.32 -40.01,55.32z"/>
    <path class="fil5" d="M6086.99 25074.71l0 164.96c0,37.04 -16.79,55.32 -39.02,55.32 -21.73,0 -31.11,-14.82 -31.11,-43.46l0 -176.82 -37.53 0 0 181.26c0,49.88 20.73,72.11 57.28,72.11 25.19,0 44.95,-13.83 54.82,-38.03l0.49 33.09 32.11 0 0 -248.43 -37.04 0z"/>
    <path class="fil5" d="M6171.45 25039.15l37.04 0 0 -53.34 -37.04 0 0 53.34zm0 284l37.04 0 0 -248.43 -37.04 0 0 248.43z"/>
    <path class="fil5" d="M6249.49 25372.53l14.32 0c54.33,0 69.64,-25.68 69.64,-70.63l0 -254.35c0,-54.33 -25.69,-70.13 -69.64,-70.13l-14.32 0 0 29.63 11.85 0c27.66,0 36.55,13.83 36.55,40.5l0 254.35c0,33.09 -14.33,41 -36.55,41l-11.85 0 0 29.63z"/>
    <path class="fil5" d="M2913.74 25838.4l14.31 0 0 -29.63 -11.84 0c-27.66,0 -36.06,-14.33 -36.06,-41l0 -254.35c0,-33.09 14.82,-40.5 36.06,-40.5l11.84 0 0 -29.63 -14.31 0c-54.33,0 -69.64,26.17 -69.64,70.13l0 254.35c0,55.81 26.67,70.63 69.64,70.63z"/>
    <path class="fil5" d="M3042.16 25793.95c49.89,0 77.05,-31.12 77.05,-82.48l0 -45.93 -36.55 0 0 48.4c0,29.63 -15.31,44.94 -39.5,44.94 -24.21,0 -39.52,-15.31 -39.52,-44.94l0 -195.58c0,-29.64 15.31,-44.95 39.52,-44.95 24.19,0 39.5,15.31 39.5,44.95l0 38.03 36.55 0 0 -35.56c0,-51.86 -27.16,-82.48 -77.05,-82.48 -49.39,0 -77.04,30.62 -77.04,82.48l0 190.64c0,51.36 27.65,82.48 77.04,82.48z"/>
    <path class="fil5" d="M3263.42 25540.58l0 164.96c0,37.04 -16.79,55.32 -39.02,55.32 -21.73,0 -31.11,-14.82 -31.11,-43.46l0 -176.82 -37.55 0 0 181.26c0,49.88 20.76,72.11 57.3,72.11 25.19,0 44.95,-13.83 54.82,-38.03l0.49 33.09 32.11 0 0 -248.43 -37.04 0z"/>
    <path class="fil5" d="M3409.61 25793.95c44.45,0 69.15,-26.67 69.15,-69.15 0,-44.45 -30.62,-60.74 -58.28,-75.07 -23.71,-11.85 -44.45,-23.21 -44.45,-48.4 0,-22.72 14.32,-33.58 31.61,-33.58 18.77,0 31.61,10.86 31.61,36.05l0 5.93 35.06 0 0 -4.94c0,-43.46 -26.67,-69.15 -67.17,-69.15 -42.47,0 -67.17,25.69 -67.17,66.19 0,45.93 31.12,61.73 58.78,76.55 22.72,11.36 42.97,22.72 42.97,46.92 0,25.19 -13.82,36.05 -34.08,36.05 -20.25,0 -34.08,-11.36 -34.08,-38.03l0 -9.38 -36.05 0 0 8.39c0,44.95 26.67,71.62 72.1,71.62z"/>
    <path class="fil5" d="M3610.13 25572.19l0 -31.61 -44.94 0 0 -71.61 -32.1 0 -3.95 71.61 -32.11 0 0 31.61 30.62 0 0 164.96c0,38.03 17.78,56.8 54.83,56.8 10.86,0 18.76,-0.99 27.65,-4.94l0 -32.1c-7.41,2.96 -14.32,3.95 -20.74,3.95 -17.78,0 -24.2,-7.9 -24.2,-27.66l0 -161.01 44.94 0z"/>
    <path class="fil5" d="M3711.38 25793.95c46.92,0 73.1,-29.14 73.1,-80.51l0 -97.79c0,-51.36 -26.18,-80.01 -73.1,-80.01 -47.41,0 -73.1,28.65 -73.1,80.01l0 97.79c0,51.37 25.69,80.51 73.1,80.51zm0 -33.09c-25.67,0 -36.05,-16.79 -36.05,-43.96l0 -104.7c0,-26.67 10.38,-43.46 36.05,-43.46 25.69,0 35.56,16.79 35.56,43.46l0 104.7c0,27.17 -10.37,43.96 -35.56,43.96z"/>
    <path class="fil5" d="M4016.61 25535.64c-24.2,0 -42.96,13.34 -52.84,36.55 -7.9,-25.19 -25.68,-36.55 -51.37,-36.55 -24.69,0 -43.46,13.83 -53.34,37.54l-0.49 -32.6 -32.1 0 0 248.43 37.05 0 0 -164.96c0,-36.55 15.79,-55.31 37.52,-55.31 21.24,0 29.64,15.31 29.64,39.01l0 181.26 37.53 0 0 -164.96c0,-36.55 15.81,-55.31 37.55,-55.31 21.23,0 29.62,15.31 29.62,39.01l0 181.26 37.04 0 0 -183.73c0,-47.9 -20.74,-69.64 -55.81,-69.64z"/>
    <path class="fil5" d="M4186.5 25535.64c-47.9,0 -73.58,28.65 -73.58,80.01l0 97.79c0,51.37 25.68,80.51 73.58,80.51 47.41,0 73.6,-29.14 73.6,-80.51l0 -3.95 -36.06 0 0 7.41c0,30.13 -12.84,43.96 -37.04,43.96 -24.21,0 -36.55,-13.83 -36.55,-43.96l0 -46.42 109.65 0 0 -54.83c0,-51.36 -26.19,-80.01 -73.6,-80.01zm-36.05 104.22l0 -27.66c0,-29.64 12.34,-43.46 36.05,-43.46 23.72,0 37.05,13.82 37.05,43.46l0 27.66 -73.1 0z"/>
    <path class="fil5" d="M4385.04 25535.64c-26.16,0 -43.45,14.82 -51.85,45.94l-0.49 -41 -32.1 0 0 248.43 37.03 0 0 -144.71c0,-47.91 16.31,-71.61 48.41,-71.61 5.43,0 10.37,0.49 15.31,2.47l0 -36.55c-4.94,-2.47 -9.88,-2.97 -16.31,-2.97z"/>
    <polygon class="fil5" points="4511.49,25789.01 4648.78,25789.01 4648.78,25753.94 4550.01,25753.94 4550.01,25443.29 4511.49,25443.29 "/>
    <path class="fil5" d="M4829.06 25789.01c-3.46,-14.32 -5.43,-36.55 -5.43,-67.66l0 -110.63c0,-49.39 -21.24,-75.08 -68.64,-75.08 -44.45,0 -70.14,25.69 -70.14,72.11l0 5.44 35.05 0 0 -7.41c0,-24.7 12.85,-38.03 34.58,-38.03 21.24,0 32.11,12.34 32.11,37.04l0 5.93c0,16.79 -5.44,21.73 -46.92,40.49 -44.95,21.24 -61.74,42.97 -61.74,81.5 0,37.53 21.24,61.24 55.32,61.24 27.65,0 47.9,-13.83 57.77,-38.52 1,15.8 2.48,28.64 3.96,33.58l34.08 0zm-82.96 -27.66c-20.26,0 -30.63,-12.35 -30.63,-34.08 0,-21.73 10.37,-36.54 35.06,-48.89 21.24,-10.87 31.13,-16.79 36.06,-23.21l0 49.88c0,35.56 -15.31,56.3 -40.49,56.3z"/>
    <path class="fil5" d="M4957.96 25535.64c-21.73,0 -40.01,10.87 -50.87,29.64l0 -121.99 -37.04 0 0 345.72 27.17 0 4.93 -35.07c9.87,25.19 30.13,40.01 55.81,40.01 36.55,0 58.28,-22.72 58.28,-72.11l0 -114.58c0,-49.39 -21.73,-71.62 -58.28,-71.62zm21.24 183.24c0,25.68 -9.39,41.98 -32.11,41.98 -22.73,0 -40,-18.77 -40,-55.32l0 -81.49c0,-36.55 17.27,-55.31 40,-55.31 22.72,0 32.11,16.29 32.11,41.48l0 108.66z"/>
    <path class="fil5" d="M5128.37 25535.64c-47.92,0 -73.6,28.65 -73.6,80.01l0 97.79c0,51.37 25.68,80.51 73.6,80.51 47.4,0 73.58,-29.14 73.58,-80.51l0 -3.95 -36.06 0 0 7.41c0,30.13 -12.84,43.96 -37.05,43.96 -24.19,0 -36.54,-13.83 -36.54,-43.96l0 -46.42 109.65 0 0 -54.83c0,-51.36 -26.18,-80.01 -73.58,-80.01zm-36.07 104.22l0 -27.66c0,-29.64 12.35,-43.46 36.07,-43.46 23.69,0 37.03,13.82 37.03,43.46l0 27.66 -73.1 0z"/>
    <polygon class="fil5" points="5242.45,25789.01 5279.5,25789.01 5279.5,25443.29 5242.45,25443.29 "/>
    <path class="fil5" d="M5494.83 25535.64c-22.23,0 -39.52,10.38 -50.38,28.65l0 -121 -37.04 0 0 345.72 37.04 0 0 -164.96c0,-37.04 16.79,-55.31 39.02,-55.31 21.73,0 31.11,14.81 31.11,43.46l0 176.81 37.53 0 0 -181.75c0,-49.39 -20.74,-71.62 -57.28,-71.62z"/>
    <path class="fil5" d="M5666.21 25535.64c-47.91,0 -73.59,28.65 -73.59,80.01l0 97.79c0,51.37 25.68,80.51 73.59,80.51 47.41,0 73.59,-29.14 73.59,-80.51l0 -3.95 -36.06 0 0 7.41c0,30.13 -12.84,43.96 -37.04,43.96 -24.2,0 -36.55,-13.83 -36.55,-43.96l0 -46.42 109.65 0 0 -54.83c0,-51.36 -26.18,-80.01 -73.59,-80.01zm-36.06 104.22l0 -27.66c0,-29.64 12.35,-43.46 36.06,-43.46 23.7,0 37.03,13.82 37.03,43.46l0 27.66 -73.09 0z"/>
    <path class="fil5" d="M5864.74 25535.64c-26.17,0 -43.46,14.82 -51.85,45.94l-0.5 -41 -32.11 0 0 248.43 37.05 0 0 -144.71c0,-47.91 16.29,-71.61 48.4,-71.61 5.43,0 10.37,0.49 15.3,2.47l0 -36.55c-4.93,-2.47 -9.87,-2.97 -16.29,-2.97z"/>
    <path class="fil5" d="M5976.86 25535.64c-47.91,0 -73.59,28.65 -73.59,80.01l0 97.79c0,51.37 25.68,80.51 73.59,80.51 47.41,0 73.59,-29.14 73.59,-80.51l0 -3.95 -36.07 0 0 7.41c0,30.13 -12.83,43.96 -37.03,43.96 -24.2,0 -36.55,-13.83 -36.55,-43.96l0 -46.42 109.65 0 0 -54.83c0,-51.36 -26.18,-80.01 -73.59,-80.01zm-36.06 104.22l0 -27.66c0,-29.64 12.35,-43.46 36.06,-43.46 23.7,0 37.04,13.82 37.04,43.46l0 27.66 -73.1 0z"/>
    <path class="fil5" d="M6084.54 25838.4l14.32 0c54.34,0 69.64,-25.68 69.64,-70.63l0 -254.35c0,-54.33 -25.68,-70.13 -69.64,-70.13l-14.32 0 0 29.63 11.85 0c27.66,0 36.55,13.83 36.55,40.5l0 254.35c0,33.09 -14.33,41 -36.55,41l-11.85 0 0 29.63z"/>
   </g>
   <polygon class="fil2" points="2.07,3100.72 8989.39,3100.72 8989.39,2180.89 2.07,2180.89 "/>
   <polygon class="fil2" points="6.29,19219.87 8993.61,19219.87 8993.61,17243.54 6.29,17243.54 "/>
   <path class="fil6" d="M5703.14 699.17l62.97 -159.56 144.38 0 25.09 0 -0.11 0.25c120.65,3.07 160.66,37.18 144.47,79.52 -16.12,42.36 -101.81,78.81 -228.32,79.76l-0.03 0.03 -5.15 0 -143.3 0zm-1867.01 322.55l62.97 -159.56 143.89 0 25.13 0 -0.14 0.21c120.65,3.1 160.65,37.22 144.46,79.55 -16.12,42.37 -101.78,78.81 -228.32,79.76l-0.02 0.04 -5.13 0 -142.84 0zm127.37 -322.55l62.97 -159.56 144.35 0 25.12 0 -0.14 0.25c120.65,3.07 160.66,37.18 144.46,79.52 -16.12,42.36 -101.81,78.81 -228.28,79.76l-0.04 0.03 -5.15 0 -143.29 0zm138.78 550.15l17.18 0 0.1 -0.14c423.02,-3.18 702.31,-83.11 756.33,-224.68 50.97,-133.67 -56.84,-204.79 -196.44,-242.26 194.25,-34.08 320.33,-89.18 354.33,-178.29 54.05,-141.64 -79.61,-255.66 -482.97,-265.96l0.46 -0.74 -83.9 0 -361.04 0 0 -0.04 -443.64 0 -684.79 427.36 320.13 484.67 804.26 0.07 -0.01 0.01zm2537.31 -0.07l86.85 0 572.7 0 360.05 -912.04 -659.56 0 -336.72 852.99 -366.65 -340.72c253.48,-33.55 415.36,-99.83 477.16,-245.53 59.23,-139.56 -79.62,-255.66 -482.98,-265.96l0.45 -0.74 -83.88 0 -1020.55 -0.04 -360.08 912.04 659.62 0 133.99 -339.41 365.19 339.41 654.41 0z"/>
   <polygon class="fil7" points="2450.18,1249.25 3109.73,1249.25 2789.62,764.57 3474.39,337.22 2814.84,337.22 2597.11,473.14 2507.36,337.22 1847.76,337.22 2130.09,764.57 1353.39,1249.25 2012.95,1249.25 2322.58,1056.04 "/>
   <polygon class="fil6" points="5052.81,11126.57 4659.68,11838.36 5052.81,12501.9 7339.09,12501.9 7550.83,12501.9 7550.83,12139.22 7550.83,11479.83 7550.83,11127.63 "/>
   <path class="fil8" d="M5776.63 7457.85l45.96 11.61c-9.66,37.71 -27,66.5 -52,86.32 -25.04,19.8 -55.6,29.74 -91.75,29.74 -37.47,0 -67.87,-7.62 -91.3,-22.86 -23.46,-15.24 -41.31,-37.32 -53.57,-66.21 -12.23,-28.9 -18.33,-59.9 -18.33,-93.07 0,-36.16 6.88,-67.69 20.71,-94.65 13.84,-26.91 33.48,-47.34 58.94,-61.31 25.51,-14 53.58,-20.99 84.22,-20.99 34.74,0 63.99,8.86 87.63,26.53 23.7,17.67 40.21,42.54 49.53,74.61l-45.23 10.66c-8.04,-25.26 -19.76,-43.64 -35.07,-55.18 -15.31,-11.53 -34.58,-17.28 -57.78,-17.28 -26.67,0 -49.01,6.38 -66.92,19.19 -17.92,12.77 -30.53,29.95 -37.79,51.5 -7.26,21.56 -10.9,43.78 -10.9,66.68 0,29.52 4.31,55.31 12.95,77.33 8.57,22.01 21.98,38.48 40.12,49.39 18.16,10.9 37.84,16.33 58.98,16.33 25.75,0 47.5,-7.41 65.36,-22.26 17.86,-14.85 29.92,-36.87 36.24,-66.08z"/>
   <path class="fil8" d="M5572.95 6958.94l86.43 0c14.85,0 25.26,-0.53 31.28,-1.66 10.56,-1.91 19.45,-5.05 26.54,-9.46 7.1,-4.4 12.95,-10.86 17.49,-19.33 4.59,-8.43 6.89,-18.17 6.89,-29.24 0,-12.95 -3.28,-24.17 -9.95,-33.73 -6.6,-9.56 -15.81,-16.26 -27.6,-20.14 -11.74,-3.88 -28.7,-5.79 -50.8,-5.79l-80.28 0 0 119.35zm0 -160.34l75.07 0c20.36,0 34.96,-1.34 43.82,-4.02 11.67,-3.49 20.49,-9.24 26.42,-17.29 5.92,-8.04 8.85,-18.17 8.85,-30.34 0,-11.5 -2.76,-21.66 -8.25,-30.44 -5.54,-8.75 -13.44,-14.75 -23.72,-17.99 -10.25,-3.25 -27.82,-4.87 -52.76,-4.87l-69.43 0 0 104.95zm-45.97 201.33l0 -347.24 130.28 0c26.53,0 47.81,3.49 63.82,10.55 16.05,7.02 28.62,17.85 37.68,32.45 9.06,14.61 13.58,29.88 13.58,45.83 0,14.82 -3.99,28.82 -12.03,41.91 -8.04,13.09 -20.21,23.71 -36.51,31.75 20.99,6.17 37.15,16.65 48.43,31.5 11.34,14.82 16.97,32.35 16.97,52.57 0,16.3 -3.47,31.39 -10.29,45.36 -6.85,13.97 -15.39,24.73 -25.48,32.35 -10.08,7.55 -22.75,13.3 -38.02,17.15 -15.24,3.88 -33.91,5.82 -56.03,5.82l-132.4 0z"/>
   <polygon class="fil8" points="5529.85,8719.35 5529.85,8372.12 5780.89,8372.12 5780.89,8413.12 5575.78,8413.12 5575.78,8519.44 5767.87,8519.44 5767.87,8560.18 5575.78,8560.18 5575.78,8678.36 5788.97,8678.36 5788.97,8719.35 "/>
   <polygon class="fil8" points="5531.26,9299.48 5531.26,8952.24 5765.51,8952.24 5765.51,8993.24 5577.23,8993.24 5577.23,9100.76 5740.13,9100.76 5740.13,9141.72 5577.23,9141.72 5577.23,9299.48 "/>
   <path class="fil8" d="M5691.36 9741.19l0 -40.71 147.12 -0.25 0 128.83c-22.63,18.03 -45.87,31.58 -69.9,40.64 -23.99,9.07 -48.61,13.59 -73.87,13.59 -34.11,0 -65.13,-7.31 -92.99,-21.91 -27.87,-14.61 -48.93,-35.67 -63.11,-63.36 -14.22,-27.59 -21.35,-58.49 -21.35,-92.6 0,-33.77 7.09,-65.3 21.2,-94.58 14.15,-29.32 34.51,-51.09 61.04,-65.27 26.49,-14.22 57.07,-21.31 91.61,-21.31 25.12,0 47.84,4.06 68.12,12.17 20.29,8.15 36.2,19.48 47.73,34.01 11.54,14.54 20.29,33.48 26.26,56.83l-41.39 11.4c-5.26,-17.71 -11.71,-31.61 -19.47,-41.7 -7.72,-10.12 -18.77,-18.2 -33.16,-24.27 -14.37,-6.1 -30.31,-9.14 -47.84,-9.14 -20.99,0 -39.12,3.21 -54.47,9.6 -15.35,6.38 -27.66,14.78 -37.08,25.22 -9.38,10.41 -16.65,21.87 -21.9,34.36 -8.85,21.45 -13.28,44.74 -13.28,69.85 0,30.94 5.37,56.87 15.99,77.68 10.68,20.85 26.21,36.34 46.57,46.43 20.35,10.12 41.98,15.17 64.91,15.17 19.85,0 39.3,-3.85 58.24,-11.5 18.94,-7.62 33.35,-15.84 43.11,-24.52l0 -64.66 -102.09 0z"/>
   <path class="fil8" d="M5574.84 8118.74l74.17 0c22.86,0 40.84,-2.11 53.86,-6.38 13.01,-4.27 23.39,-10.27 31.15,-17.99 10.86,-10.9 19.4,-25.54 25.43,-43.96 6.11,-18.38 9.14,-40.67 9.14,-66.89 0,-36.33 -5.96,-64.24 -17.89,-83.75 -11.92,-19.47 -26.42,-32.56 -43.47,-39.19 -12.34,-4.73 -32.13,-7.13 -59.43,-7.13l-72.96 0 0 265.29zm-45.96 41l0 -347.24 119.62 0c27.03,0 47.63,1.66 61.81,4.97 19.9,4.59 36.9,12.88 50.91,24.87 18.34,15.49 32.03,35.28 41.08,59.34 9.12,24.06 13.67,51.61 13.67,82.55 0,26.35 -3.11,49.74 -9.28,70.1 -6.14,20.35 -14.04,37.21 -23.68,50.55 -9.62,13.37 -20.14,23.85 -31.6,31.5 -11.43,7.69 -25.26,13.48 -41.44,17.43 -16.21,3.95 -34.76,5.93 -55.79,5.93l-125.3 0z"/>
   <path class="fil8" d="M5590.93 6278.51l117.73 0 -36.23 -96.16c-11.05,-29.21 -19.27,-53.2 -24.63,-72.01 -4.44,22.26 -10.66,44.38 -18.73,66.33l-38.14 101.84zm-100.2 142.6l133.35 -347.24 49.53 0 142.11 347.24 -52.31 0 -40.54 -105.17 -145.2 0 -38.1 105.17 -48.84 0z"/>
   <path class="fil9" d="M6584.74 4499.53c82.52,0 149.61,202.43 149.61,451.05 0,249.74 -67.09,451.06 -149.61,451.06 -82.51,0 -149.6,-201.33 -149.6,-451.06 0,-248.63 67.09,-451.05 149.6,-451.05zm-293.73 -9.87l127.62 0 0 43.99 -127.62 0 0 -43.99zm-30.79 97.89l121.04 0 0 50.62 -121.04 0 0 -50.62zm-26.39 125.42l115.5 0 0 53.91 -115.5 0 0 -53.91zm-19.82 146.34l129.82 0 0 53.9 -129.82 0 0 -53.9zm5.47 146.29l116.62 0 0 51.72 -116.62 0 0 -51.72zm20.91 146.33l99.03 0 0 34.12 -99.03 0 0 -34.12zm19.83 127.6l95.71 0 0 22.02 -95.71 0 0 -22.02zm39.62 103.44l92.39 0 0 28.61 -92.39 0 0 -28.61zm39.58 81.38l86.92 0 0 25.3 -86.92 0 0 -25.3zm8.82 -1062.7l111.09 0 0 39.61 -111.09 0 0 -39.61zm253.01 1158.41l-2.22 0 -264.02 0c-118.78,-108.9 -198.02,-275.02 -201.3,-608.36 -4.4,-334.44 73.7,-520.35 213.42,-611.65 69.3,-38.52 247.52,-13.23 301.43,28.58 99,61.63 172.72,301.45 172.72,587.48 0,332.24 -97.9,600.67 -220.03,603.95zm-258.52 -1239.83c-299.26,141.92 -376.22,899.9 -77.01,1231.05l-135.32 0c-26.43,-15.42 -50.59,-35.21 -72.65,-58.31l67.13 0 0 -13.2 -78.09 0c-19.83,-22.01 -37.43,-46.21 -52.81,-73.73l51.72 0 0 -16.47 -61.61 0c-15.42,-28.61 -28.6,-58.32 -40.73,-90.24l88.01 0 0 -25.3 -96.81 0c-8.81,-29.7 -17.58,-59.37 -25.28,-91.3l90.2 0 0 -30.8 -95.71 0c-5.5,-33.02 -9.91,-67.13 -13.22,-100.11l75.96 0 0 -36.3 -79.25 0c-2.18,-38.53 -2.18,-77.02 0,-115.5l81.41 0 0 -39.62 -80.28 0c3.28,-28.61 5.47,-56.13 9.88,-83.61l100.12 0 0 -78.1 -85.84 0c4.43,-18.74 9.96,-36.3 14.33,-53.91l113.29 0 0 -58.31 -93.51 0c8.83,-22.02 18.71,-42.9 27.49,-63.82l99.04 0 0 -38.52 -77.02 0c11,-18.7 23.14,-35.18 36.33,-51.69l105.59 0 0 -35.2 -73.7 0c71.5,-69.32 163.9,-103.44 278.34,-77.01zm221.13 242.04c60.51,0 108.9,171.62 108.9,382.83 0,211.24 -48.39,381.74 -108.9,381.74 -59.41,0 -108.94,-170.5 -108.94,-381.74 0,-211.21 49.53,-382.83 108.94,-382.83z"/>
   <path class="fil9" d="M6735.43 4259.53c-1.07,-5.22 -1.07,-10.44 -1.07,-15.7 0,-53.37 56.5,-96.24 128.71,-98.32 -4.2,-6.31 -5.23,-13.61 -5.23,-20.95 0,-39.76 47.1,-71.16 104.65,-71.16 17.73,0 34.49,3.14 50.18,8.4 9.43,-31.4 45.02,-53.38 86.86,-53.38 50.24,0 91.02,31.4 91.02,71.16l0 1.06c31.4,7.3 56.51,33.44 56.51,64.87 0,15.67 -6.28,30.31 -15.66,40.78 12.52,-4.16 27.16,-6.28 41.8,-6.28 59.69,0 107.81,34.54 107.81,75.32l0 4.2 -645.58 0z"/>
   <path class="fil8" d="M6781.45 4380.92c11.5,-31.4 52.28,-65.94 137.09,-91.05l13.57 -2.08 -2.07 13.61c-7.34,85.8 -37.68,129.72 -67,146.48 -24.05,14.64 -50.2,11.5 -66.95,-3.14 -16.76,-13.62 -25.12,-36.62 -14.64,-63.82zm128.69 -68.02c-69.07,20.92 -101.49,50.24 -110.91,74.3 -7.31,18.8 -2.12,34.53 8.37,43.92 11.48,8.39 29.3,10.48 46.06,1.06 24.06,-13.62 48.12,-50.24 56.48,-119.28z"/>
   <path class="fil8" d="M6959.31 4372.55c11.5,-31.4 51.26,-65.94 137.09,-90l13.57 -4.16 -1.04 13.58c-8.36,85.8 -37.64,130.78 -68.01,147.53 -25.09,14.64 -49.15,10.48 -65.91,-3.14 -17.81,-13.61 -26.17,-37.67 -15.7,-63.81zm129.77 -69.08c-70.14,21.98 -102.56,50.24 -113,76.41 -6.27,16.73 -1.06,32.42 9.38,41.84 11.49,9.42 29.32,11.5 46.08,1.03 24.06,-13.58 48.12,-49.18 57.54,-119.28z"/>
   <path class="fil8" d="M7113.15 4379.87c12.52,-32.42 51.27,-68.02 137.05,-91.05l13.62 -4.17 -1.06 13.62c-8.35,86.82 -37.68,130.77 -68.01,147.53 -25.09,14.64 -50.2,10.44 -66.96,-3.17 -16.76,-13.59 -25.13,-37.65 -14.64,-62.76zm128.66 -69.08c-69.04,20.96 -101.46,50.24 -110.88,75.36 -7.33,17.78 -1.02,33.48 9.42,41.84 10.44,9.42 28.22,11.5 44.98,2.08 24.09,-13.58 48.12,-49.14 56.48,-119.28z"/>
   <path class="fil8" d="M7001.17 4568.19c12.52,-31.39 52.29,-65.89 137.09,-89.95l12.53 -4.2 -1.03 13.58c-8.36,86.85 -36.61,130.81 -65.93,147.53 -25.12,14.64 -51.27,10.48 -68.01,-3.1 -16.75,-13.62 -25.12,-36.66 -14.65,-63.86zm128.72 -68.01c-69.09,20.95 -101.51,50.23 -110.93,75.35 -7.3,17.78 -2.1,33.48 9.42,41.84 10.45,9.42 28.26,10.48 44.98,2.12 24.1,-13.62 48.16,-50.24 56.53,-119.31z"/>
   <path class="fil8" d="M6838.99 4571.34c11.49,-32.42 51.27,-68.01 137.08,-91.05l12.52 -4.16 -1.01 13.62c-8.37,86.82 -36.63,130.77 -67.01,148.55 -25.08,12.56 -50.21,10.48 -66.92,-3.14 -16.75,-14.64 -25.11,-37.67 -14.66,-63.82zm127.65 -69.07c-69.07,20.96 -101.49,50.24 -110.9,75.35 -6.29,17.78 -2.09,33.48 9.41,42.9 11.5,7.34 28.25,10.44 46.03,1.02 24.07,-13.58 48.13,-49.17 55.46,-119.27z"/>
   <path class="fil9" d="M5921.37 5385.15c-23.09,-184.82 -126.53,-281.63 -183.73,-214.53 -52.8,141.92 112.23,135.29 183.73,214.53z"/>
   <path class="fil9" d="M6019.28 5536.96c-113.3,-154.03 -255.23,-188.14 -271.74,-100.09 24.2,153.99 168.31,66.01 271.74,100.09z"/>
   <path class="fil9" d="M6713.48 5547.96c86.89,-140.83 207.93,-179.31 227.71,-104.49 -11.01,134.2 -140.82,67.1 -227.71,104.49z"/>
   <path class="fil9" d="M6798.15 5370.85c29.74,-165.03 128.73,-246.41 176.04,-183.73 40.71,130.92 -107.82,116.63 -176.04,183.73z"/>
   <polygon class="fil10" points="1763.81,6020.04 1807.41,6020.04 2237.18,6020.04 2482.16,6253.62 2237.18,6490.3 1807.41,6490.3 1763.81,6490.3 1637.16,6490.3 1637.16,6020.04 "/>
   <polygon class="fil11" points="2197.73,7162.97 2223.69,7162.97 2671.11,7162.97 2912.98,7399.65 2671.11,7633.23 2223.69,7633.23 2197.73,7633.23 1637.16,7633.23 1637.16,7162.97 "/>
   <polygon class="fil12" points="2363.84,7734.96 2389.77,7734.96 2837.2,7734.96 3079.07,7971.64 2837.2,8206.24 2389.77,8206.24 2363.84,8206.24 1637.16,8206.24 1637.16,7734.96 "/>
   <polygon class="fil13" points="2473.87,8306.95 2499.81,8306.95 2947.25,8306.95 3190.15,8542.6 2947.25,8777.2 2499.81,8777.2 2473.87,8777.2 1637.16,8777.2 1637.16,8306.95 "/>
   <polygon class="fil14" points="1981.83,6592.03 2023.35,6592.03 2458.31,6592.03 2700.14,6828.71 2458.31,7062.29 2023.35,7062.29 1981.83,7062.29 1637.15,7062.29 1637.15,6592.03 "/>
   <polygon class="fil7" points="2899.49,9448.84 2916.1,9448.84 3372.84,9448.84 3616.79,9683.43 3372.84,9920.12 2916.1,9920.12 2805.01,9920.12 1637.18,9920.12 1637.18,9448.84 "/>
   <polygon class="fil15" points="2641,8877.89 2673.18,8877.89 3114.37,8877.89 3358.31,9112.49 3114.37,9348.14 2673.18,9348.14 2641,9348.14 1637.17,9348.14 1637.17,8877.89 "/>
   <path class="fil16" d="M1536.85 15917.57c-29.64,13.76 -46.57,22.23 -74.12,22.23 -85.76,0 -137.66,-56.13 -137.66,-128.13l0 -59.3c0,-72.04 51.9,-127.07 137.66,-127.07 27.55,0 44.48,4.23 74.12,19.05 8.46,3.17 18.02,10.62 8.46,25.43l-16.93 23.29c-5.29,8.46 -14.82,13.76 -30.69,7.41 -11.64,-5.3 -14.82,-10.59 -29.67,-10.59 -43.43,0 -52.95,33.9 -52.95,73.06l0 38.1c0,39.23 9.52,73.1 52.95,73.1 14.85,0 18.03,-7.41 29.67,-12.7 15.87,-6.35 23.28,-1.06 29.63,6.35l17.99 22.22c10.59,15.91 0,23.32 -8.46,27.55z"/>
   <path class="fil16" d="M1759.24 15731.21c0,-25.44 -23.3,-44.49 -49.79,-44.49 -28.57,0 -50.83,19.05 -50.83,44.49l0 101.67c0,25.4 23.32,44.48 50.83,44.48 26.49,0 49.79,-19.08 49.79,-44.48l0 -101.67zm-49.79 206.51c-78.35,0 -139.77,-57.22 -139.77,-127.1l0 -60.36c0,-72 61.42,-127.07 139.77,-127.07 74.12,0 138.72,55.07 138.72,127.07l0 60.36c0,69.88 -63.5,127.1 -138.72,127.1z"/>
   <path class="fil16" d="M2106.58 15927.08l-30.7 0c-16.97,0 -28.61,-9.52 -28.61,-26.46l0 -182.14c0,-16.96 -17.99,-30.69 -39.16,-30.69 -21.2,0 -39.2,14.82 -39.2,30.69l0 182.14c0,16.94 -10.57,26.46 -28.61,26.46l-31.75 0c-16.96,0 -28.59,-9.52 -28.59,-26.46l0 -211.8c0,-26.46 25.43,-34.93 46.59,-28.58l10.59 3.18c9.56,2.11 13.79,1.05 16.95,-4.24 15.89,-23.32 45.56,-33.9 81.54,-33.9 66.71,0 100.61,54.05 100.61,108.02l0 167.32c0,16.94 -10.58,26.46 -29.66,26.46z"/>
   <path class="fil16" d="M2370.25 15724.83c0,-22.22 -20.11,-41.27 -44.48,-41.27 -26.46,0 -50.8,19.05 -50.8,41.27l0 112.29c0,21.13 24.34,38.1 50.8,38.1 24.37,0 44.48,-16.97 44.48,-38.1l0 -112.29zm-26.46 214.98c-19.08,0 -40.28,-10.58 -52.95,-22.22 -3.21,-3.21 -10.62,-4.23 -10.62,1.02l0 79.45c0,11.64 -6.31,24.37 -21.16,29.63l-33.87 7.44c-14.82,5.26 -36.02,-4.23 -36.02,-28.61l0 -318.73c0,-27.55 21.2,-37.08 42.33,-30.73l9.57 2.15c12.7,1.03 13.79,-2.15 19.05,-6.38 22.26,-16.93 50.83,-27.52 83.67,-27.52 75.17,0 115.39,43.39 115.39,103.75l0 108.06c0,66.67 -49.76,102.69 -115.39,102.69z"/>
   <path class="fil16" d="M2640.28 15686.73c-29.63,0 -55.07,20.11 -55.07,41.31l0 11.64c0,13.76 16.97,20.11 24.37,20.11l41.31 0c19.05,0 32.79,-12.7 32.79,-35.98 0,-23.32 -20.12,-37.08 -43.4,-37.08zm28.61 123.9l-62.48 0c-8.46,0 -16.93,3.17 -16.93,10.61 0,25.37 15.87,52.89 51.85,52.89 14.82,0 46.61,-10.55 58.29,-16.9 15.87,-5.29 25.35,-1.06 33.86,8.46l15.88 21.17c10.62,13.76 -2.12,24.34 -10.6,28.58 -29.65,12.73 -76.22,24.37 -102.71,24.37 -86.81,0 -138.72,-56.12 -138.72,-128.13l0 -50.83c0,-77.29 55.07,-135.54 138.72,-135.54 66.71,0 121.76,33.9 121.76,86.86l0 26.45c0,32.81 -41.29,72.01 -88.92,72.01z"/>
   <path class="fil16" d="M2961.17 15683.56l-41.32 0c-6.35,0 -6.35,3.17 -6.35,7.41l0 163.05c0,11.68 8.47,13.79 26.46,13.79 19.05,0 26.46,7.41 26.46,20.11l0 19.05c0,12.7 -3.14,15.88 -24.3,20.11l-36.06 0c-41.24,0 -81.49,-20.11 -81.49,-59.27l0 -170.49c0,-8.5 -1.06,-13.76 -9.56,-13.76l-13.77 0c-23.28,0 -26.45,-30.73 -13.75,-38.14 8.47,-6.35 30.7,-10.58 43.43,-23.28 19.05,-16.97 22.21,-18.03 29.63,-40.25 5.28,-14.85 24.38,-14.85 29.64,-12.7l13.79 5.29c9.52,4.2 15.87,11.64 15.87,24.38 0,17.95 5.3,30.69 36.02,30.69l5.3 0c15.87,0 31.75,14.82 31.75,27.52 0,12.7 -14.82,26.49 -31.75,26.49z"/>
   <path class="fil17" d="M1996.44 14211.61l0 4.23 3.19 0c142.96,-37.07 288.02,47.67 326.15,190.61 34.93,126.01 -29.66,262.64 -150.38,315.56l-2.07 1.06 2.07 2.15c13.79,10.55 26.49,21.13 36.03,32.81l2.1 1.06c50.84,51.86 119.67,80.47 192.73,80.47 73.06,0 141.92,-28.61 192.72,-80.47 104.85,-104.85 105.9,-276.37 2.16,-383.37 1.05,1.1 -2.16,-3.17 -2.16,-3.17 -156.71,-157.76 -387.55,-219.18 -602.54,-160.94z"/>
   <path class="fil18" d="M2776.86 14777.09c-19.05,33.87 -42.32,64.59 -68.82,91.05 -165.2,166.27 -435.21,167.32 -601.48,3.21l-2.12 -2.15c-9.52,-9.53 -20.1,-19.05 -30.72,-26.46l-2.08 -2.12 -1.06 3.18c-30.73,216.04 104.81,421.46 315.56,477.58 35.98,9.53 74.12,14.82 114.37,14.82 2.12,-1.06 37.08,-17.99 100.62,-81.53 123.84,-124.95 189.54,-298.63 178.95,-476.52l0 -6.35 -3.22 5.29z"/>
   <path class="fil19" d="M2089.62 14751.66c-32.8,13.8 -64.59,31.75 -93.2,52.96l-3.14 2.15 4.23 1.02c26.49,8.47 50.84,21.17 74.12,37.08l2.12 3.14 0 -4.23c3.21,-15.88 6.35,-31.75 9.52,-47.63l1.1 -1.09c3.13,-13.73 5.25,-27.52 7.41,-41.24l0 -3.21 -2.16 1.05z"/>
   <path class="fil20" d="M1996.44 14804.61c-112.26,81.57 -176.85,213.89 -176.85,349.46 0,37.05 5.32,75.18 14.85,111.2 10.58,37.04 25.4,72 45.52,105.9l1.09 2.09 9.52 4.23 12.7 6.38 15.91 7.41 11.63 4.24 16.93 6.35 11.65 4.23 20.15 5.29 8.46 3.18c83.65,23.28 172.58,29.66 258.37,16.96l19.05 -2.15c83.64,-14.81 163.1,-46.56 236.12,-94.22l5.33 -3.18 -6.35 0c-39.2,0 -77.3,-5.29 -113.31,-14.85 -208.64,-55.03 -343.08,-258.38 -313.48,-473.35l0 -1.02c-23.3,-16.93 -47.63,-30.73 -75.14,-39.2l-1.1 0 -1.05 1.06 0 -0.01z"/>
   <path class="fil21" d="M2083.27 14670.12c6.35,27.51 7.42,55.1 4.25,83.68l0 4.23 3.17 -2.12c15.88,-6.35 29.67,-11.64 46.61,-15.91l1.05 0c13.76,-4.23 26.5,-8.46 39.2,-14.78l2.08 -1.09 -1.06 -2.12c-28.57,-22.22 -59.27,-39.19 -92.11,-54.01l-4.23 -2.12 1.04 4.24z"/>
   <path class="fil22" d="M1999.63 14211.61l-3.19 0 -3.19 0 -7.41 3.18 -10.54 3.17 -18.03 5.29 -11.63 5.29 -16.98 5.3 -13.72 5.29 -13.8 6.35 -14.81 7.44 -13.8 6.35 -13.72 7.41 -2.15 1.06 -9.53 6.35 -15.87 8.47 -1.06 1.05 -9.53 6.35 -14.81 9.53 -10.62 7.41 -14.82 11.64 -9.52 7.41 -14.82 11.67 -8.5 7.41 -14.78 14.82 -6.4 5.33 -16.96 15.87 -4.21 6.32 -16.93 19.08c-38.12,43.43 -68.81,91.05 -93.18,144l-2.13 3.18 -4.22 7.41 -2.13 7.41 -2.15 3.21 -8.47 22.22 -1.02 2.12c-6.39,17.99 -11.63,37.04 -16.97,56.13l4.27 1.05 0 -1.05c39.17,-140.83 186.37,-225.54 327.2,-188.49 98.5,27.55 173.67,105.9 193.77,206.48l1.07 1.06c32.84,13.79 63.53,32.84 91.05,54.04l0 1.02 2.15 -1.02c121.78,-54.04 187.4,-191.7 152.47,-320.89 -39.15,-142.98 -186.37,-229.8 -330.38,-192.72z"/>
   <path class="fil14" d="M1606.75 14755.9c-25.43,27.52 -48.73,58.25 -68.83,92.11l-1.05 0 0 1.1 1.05 14.81 1.05 12.7 2.12 19.05 1.07 11.68 4.23 17.99 2.12 11.64 3.16 20.11 3.19 8.47 5.28 22.26 2.13 6.35c16.96,56.12 42.32,110.14 73.09,158.85 1.06,0 1.06,1.06 1.06,1.06l12.66 17.99 1.05 3.18 5.34 7.41 6.35 8.46 2.11 2.12 14.82 17.99 1.06 2.15c11.64,13.73 24.38,27.52 38.1,41.31l3.21 -2.15 -1.06 -2.08c-101.68,-104.84 -101.68,-274.28 2.08,-378.07 72.04,-72 177.91,-97.44 275.35,-64.59l1.04 -1.06c28.62,-20.15 59.32,-38.14 92.16,-50.84l1.06 -1.06 0 -1.05c3.17,-28.58 2.12,-57.19 -4.23,-84.71l0 -1.06 -1.06 0c-162.03,-72 -354.76,-36.01 -479.7,87.88l-0.01 0z"/>
   <path class="fil21" d="M1558.02 14651.06l0 1.06c-13.79,52.95 -21.19,106.96 -21.19,162.03 0,11.64 0,23.29 1.1,34.93l0 7.41 3.16 -7.41c19.05,-33.9 42.38,-63.5 68.84,-90 122.84,-122.83 314.5,-158.82 474.4,-87.91l4.24 1.1 -1.06 -3.18c-21.2,-102.73 -96.38,-182.14 -196.96,-208.63 -144.04,-38.1 -291.23,46.6 -332.54,190.6l0.01 0z"/>
   <path class="fil19" d="M1718.99 14870.27c-51.89,52.95 -79.41,122.8 -79.41,192.72 0,67.77 26.45,137.66 78.34,190.61 -1.05,-1.06 0,1.06 0,1.06 47.67,47.66 102.74,86.81 162.01,117.58l6.38 3.14 -4.23 -6.35c-19.09,-33.87 -33.9,-68.83 -43.39,-104.85 -45.55,-168.34 17.95,-352.6 159.88,-457.44l3.18 -2.11 -3.18 -1.1c-98.5,-31.75 -205.43,-7.4 -279.58,66.75l0 -0.01z"/>
   <path class="fil3" d="M2085.01 7459.67l45.82 11.57c-9.63,37.64 -26.91,66.32 -51.86,86.11 -24.97,19.76 -55.45,29.63 -91.54,29.63 -37.29,0 -67.66,-7.58 -91.05,-22.79 -23.36,-15.2 -41.17,-37.21 -53.34,-66.04 -12.21,-28.82 -18.35,-59.76 -18.35,-92.81 0,-36.06 6.89,-67.52 20.68,-94.37 13.79,-26.85 33.37,-47.24 58.8,-61.17 25.43,-13.94 53.45,-20.92 84,-20.92 34.61,0 63.77,8.82 87.38,26.46 23.64,17.64 40.07,42.44 49.36,74.4l-45.09 10.65c-8.04,-25.22 -19.68,-43.53 -34.96,-55.03 -15.28,-11.5 -34.5,-17.25 -57.64,-17.25 -26.6,0 -48.86,6.35 -66.74,19.12 -17.86,12.77 -30.42,29.88 -37.65,51.36 -7.27,21.52 -10.87,43.68 -10.87,66.54 0,29.42 4.27,55.14 12.84,77.11 8.57,21.95 21.94,38.39 40.08,49.25 18.1,10.87 37.68,16.3 58.77,16.3 25.65,0 47.42,-7.41 65.23,-22.22 17.75,-14.79 29.81,-36.76 36.13,-65.9z"/>
   <path class="fil3" d="M1881.87 6962.12l86.18 0c14.82,0 25.2,-0.57 31.19,-1.66 10.54,-1.9 19.37,-5.04 26.46,-9.42 7.06,-4.41 12.91,-10.86 17.46,-19.26 4.59,-8.43 6.88,-18.17 6.88,-29.17 0,-12.92 -3.31,-24.13 -9.96,-33.69 -6.55,-9.53 -15.75,-16.2 -27.5,-20.04 -11.71,-3.88 -28.58,-5.82 -50.64,-5.82l-80.07 0 0 119.06zm0 -159.91l74.86 0c20.29,0 34.86,-1.35 43.71,-4.03 11.61,-3.45 20.43,-9.2 26.32,-17.21 5.88,-8.05 8.84,-18.1 8.84,-30.27 0,-11.47 -2.74,-21.59 -8.24,-30.34 -5.5,-8.75 -13.37,-14.71 -23.64,-17.96 -10.23,-3.21 -27.76,-4.83 -52.63,-4.83l-69.22 0 0 104.64zm-45.86 200.76l0 -346.29 129.94 0c26.45,0 47.64,3.53 63.63,10.55 16.02,6.99 28.54,17.78 37.57,32.35 9.07,14.57 13.57,29.81 13.57,45.72 0,14.78 -4.01,28.72 -12.01,41.81 -8.05,13.05 -20.15,23.6 -36.38,31.64 20.92,6.14 37.01,16.62 48.3,31.4 11.25,14.81 16.86,32.31 16.86,52.46 0,16.19 -3.38,31.29 -10.26,45.22 -6.85,13.94 -15.28,24.66 -25.38,32.25 -10.08,7.55 -22.71,13.26 -37.95,17.11 -15.13,3.88 -33.79,5.78 -55.85,5.78l-132.04 0z"/>
   <polygon class="fil3" points="1838.87,8717.73 1838.87,8371.46 2089.27,8371.46 2089.27,8412.31 1884.72,8412.31 1884.72,8518.39 2076.28,8518.39 2076.28,8558.98 1884.72,8558.98 1884.72,8676.85 2097.27,8676.85 2097.27,8717.73 "/>
   <polygon class="fil3" points="1840.29,9296.28 1840.29,8949.99 2073.91,8949.99 2073.91,8990.84 1886.13,8990.84 1886.13,9098.09 2048.63,9098.09 2048.63,9138.97 1886.13,9138.97 1886.13,9296.28 "/>
   <path class="fil3" d="M1999.95 9736.78l0 -40.61 146.68 -0.24 0 128.48c-22.5,17.95 -45.72,31.46 -69.65,40.53 -23.95,9.07 -48.49,13.58 -73.68,13.58 -34.04,0 -64.95,-7.3 -92.71,-21.87 -27.8,-14.57 -48.79,-35.59 -62.94,-63.18 -14.21,-27.55 -21.3,-58.35 -21.3,-92.36 0,-33.69 7.05,-65.12 21.16,-94.37 14.08,-29.21 34.36,-50.9 60.82,-65.05 26.46,-14.18 56.94,-21.27 91.41,-21.27 25.04,0 47.66,4.06 67.91,12.17 20.21,8.11 36.09,19.4 47.61,33.87 11.48,14.5 20.23,33.4 26.2,56.69l-41.32 11.36c-5.22,-17.64 -11.64,-31.51 -19.41,-41.6 -7.72,-10.05 -18.69,-18.13 -33.02,-24.2 -14.35,-6.06 -30.26,-9.06 -47.76,-9.06 -20.92,0 -39.01,3.17 -54.29,9.56 -15.32,6.35 -27.59,14.74 -36.99,25.12 -9.37,10.4 -16.64,21.83 -21.83,34.29 -8.85,21.37 -13.26,44.62 -13.26,69.63 0,30.87 5.33,56.73 15.98,77.51 10.62,20.78 26.07,36.23 46.43,46.28 20.28,10.09 41.84,15.14 64.7,15.14 19.82,0 39.23,-3.85 58.1,-11.47 18.91,-7.62 33.23,-15.8 43,-24.45l0 -64.48 -101.84 0z"/>
   <path class="fil3" d="M1883.73 8118.76l73.98 0c22.79,0 40.7,-2.12 53.69,-6.38 12.99,-4.24 23.37,-10.23 31.08,-17.93 10.87,-10.9 19.34,-25.47 25.4,-43.85 6.08,-18.34 9.09,-40.56 9.09,-66.71 0,-36.23 -5.91,-64.06 -17.84,-83.5 -11.88,-19.44 -26.35,-32.49 -43.35,-39.09 -12.29,-4.72 -32.03,-7.09 -59.28,-7.09l-72.77 0 0 264.55zm-45.81 40.89l0 -346.29 119.3 0c26.95,0 47.48,1.66 61.63,4.94 19.86,4.59 36.76,12.84 50.8,24.84 18.24,15.41 31.92,35.13 40.99,59.16 9,23.99 13.55,51.43 13.55,82.3 0,26.28 -3.06,49.6 -9.21,69.92 -6.14,20.32 -14.01,37.11 -23.6,50.41 -9.62,13.3 -20.16,23.78 -31.54,31.43 -11.43,7.62 -25.22,13.41 -41.35,17.36 -16.12,3.95 -34.67,5.93 -55.64,5.93l-124.93 0z"/>
   <path class="fil3" d="M1899.83 6283.56l117.37 0 -36.12 -95.89c-11.04,-29.14 -19.19,-53.09 -24.59,-71.82 -4.41,22.19 -10.58,44.24 -18.67,66.14l-37.99 101.57zm-99.95 142.2l133 -346.28 49.35 0 141.75 346.28 -52.21 0 -40.4 -104.88 -144.78 0 -38.04 104.88 -48.67 0z"/>
   <path class="fil8" d="M1698.22 13018.41l0 0 5848.16 -10.41 0 -2391.4 -5848.16 0c-78.42,0 -149.27,31.19 -201.93,81.04 -51.54,49.88 -82.66,119.48 -82.66,194.27l0 1850.18 0 1.02c0,74.79 31.12,144.39 82.66,194.28 51.57,49.85 122.45,81.03 201.93,81.03l0 -0.01zm0 109.08l0 0c-109.54,0 -208.34,-43.67 -280.32,-114.27 -70.88,-68.58 -115.98,-164.14 -117.09,-270.12l0 -1.02 0 -1850.18c0,-105.94 45.12,-201.54 117.09,-271.14 71.98,-70.63 170.78,-114.27 280.32,-114.27l5905.14 0 55.84 0 0 55.04 0 2499.45 0 55.07 -55.84 0 -5905.14 10.41 0 1.02 0 0.01z"/>
   <path class="fil9" d="M3396.68 4509.56c80.12,0 145.2,196.46 145.2,437.8 0,242.39 -65.08,437.8 -145.2,437.8 -80.08,0 -144.14,-195.41 -144.14,-437.8 0,-241.34 64.06,-437.8 144.14,-437.8zm-284.02 -9.59l123.86 0 0 42.72 -123.86 0 0 -42.72zm-30.97 95l117.44 0 0 49.14 -117.44 0 0 -49.14zm-24.55 121.75l112.11 0 0 52.32 -112.11 0 0 -52.32zm-20.28 142.03l125.96 0 0 52.32 -125.96 0 0 -52.32zm6.38 141.99l113.17 0 0 50.21 -113.17 0 0 -50.21zm19.22 142.03l96.1 0 0 33.09 -96.1 0 0 -33.09zm19.23 123.86l92.89 0 0 21.35 -92.89 0 0 -21.35zm38.45 100.37l89.67 0 0 27.76 -89.67 0 0 -27.76zm38.42 79.02l85.44 0 0 24.55 -85.44 0 0 -24.55zm9.58 -1031.49l106.8 0 0 38.46 -106.8 0 0 -38.46zm244.56 1124.41l-2.12 0 -256.29 0c-115.33,-105.72 -192.19,-266.98 -195.4,-590.51 -4.27,-324.59 71.54,-505.03 208.21,-593.69 66.21,-37.36 239.18,-12.81 292.59,27.76 96.1,59.8 167.64,292.56 167.64,570.23 0,322.44 -96.1,583 -214.63,586.21zm-249.88 -1203.43c-290.41,137.76 -365.16,873.48 -75.78,1194.9l-131.36 0c-25.62,-14.96 -49.11,-34.19 -70.45,-56.63l65.12 0 0 -12.8 -75.82 0c-18.13,-21.34 -36.29,-44.84 -51.25,-71.54l50.2 0 0 -16.02 -59.8 0c-14.95,-27.76 -27.76,-56.59 -39.51,-87.56l85.41 0 0 -24.55 -92.89 0c-9.63,-28.83 -18.16,-57.68 -24.55,-88.66l87.56 0 0 -29.88 -93.95 0c-5.36,-32.03 -9.63,-65.12 -12.84,-97.15l73.66 0 0 -35.24 -75.77 0c-2.15,-37.4 -3.21,-74.76 -1.06,-112.12l80.04 0 0 -38.45 -77.92 0c2.14,-27.76 4.26,-54.47 8.53,-81.17l97.15 0 0 -75.78 -82.22 0c3.21,-18.17 8.53,-35.28 13.88,-52.32l110.02 0 0 -56.62 -91.88 0c8.58,-21.34 18.18,-41.63 27.76,-61.91l95.07 0 0 -37.4 -74.75 0c11.76,-18.13 22.41,-34.14 35.25,-50.16l103.54 0 0 -34.18 -71.5 0c68.29,-67.28 158,-100.37 270.11,-74.76zm213.58 234.92c57.68,0 104.67,166.58 104.67,371.61 0,205 -46.99,370.53 -104.67,370.53 -58.7,0 -105.69,-165.53 -105.69,-370.53 0,-205.03 46.99,-371.61 105.69,-371.61z"/>
   <path class="fil9" d="M3764 4271.58l249.88 0 0 169.76 -249.88 0 0 -169.76zm-60.85 -28.82c117.44,-73.7 241.3,-69.39 370.52,0l0 193.25c42.72,7.48 96.1,29.92 103.59,64.07l14.91 185.8c1.09,81.18 92.92,90.77 96.13,13.87 2.15,-97.16 -23.49,-201.79 -57.68,-273.33 -28.82,-75.82 -67.27,-138.82 -132.4,-163.38l-4.26 -54.46 59.79 -2.12c60.86,37.36 119.59,78.99 161.26,141.99l-5.33 64.07 34.11 266.94c5.37,177.27 -127.03,170.89 -217.8,45.94l0 -199.68c-5.33,-17.11 -27.77,-28.85 -52.32,-29.91l0 294.71 23.5 0 0 63 -417.52 0 0 -63 23.5 0 0 -547.76z"/>
   <path class="fil8" d="M5255.11 4220l0 0 9.62 5828.84 2283.18 0 0 -5828.84c0,-74.76 -33.16,-144.29 -84.49,-194.14 -50.31,-49.81 -122.01,-80.96 -200.1,-80.96l-1724.69 0 -1.06 0c-78.12,0 -148.74,30.09 -200.1,80.96 -51.33,49.85 -82.37,118.36 -82.37,194.14l0.01 0zm-112.36 0l0 0c0,-105.87 44.98,-201.37 116.63,-271.96 71.68,-68.55 170.1,-112.15 278.2,-112.15l0 -1.02 1.06 0 1724.69 0c109.15,0 208.63,43.6 280.32,113.17 70.62,70.59 115.53,166.09 115.53,271.96l0 5882.8 0 55.03 -55.63 0 -2394.45 0 -55.62 0 0 -55.03 -10.72 -5882.8 -0.01 0z"/>
   <path class="fil2" d="M6422.03 13914.95l96.34 0 0 1.06c0,1.09 1.1,2.19 1.1,3.24l0 2.19c0,1.09 1.06,2.15 1.06,4.34l0 4.3c0,1.1 0,3.25 1.09,5.44 0,1.06 0,2.15 1.09,5.39l0 4.31 0 1.13c3.21,-3.28 7.54,-8.68 12.98,-13.02 4.34,-4.34 9.74,-7.55 16.27,-10.8 5.4,-4.33 12.98,-6.52 19.43,-8.67 7.59,-1.1 15.18,-1.1 24.9,-1.1l8.69 0 9.74 0c3.24,0 6.49,1.1 10.83,2.19 4.34,1.06 7.55,2.15 10.78,3.25 6.53,2.15 12.99,5.39 19.52,8.64 6.48,4.34 12.98,8.68 18.38,14.07 6.49,5.44 10.83,11.89 14.08,20.57 2.16,8.64 4.32,17.32 4.32,28.12l0 177.52 -93.08 0 0 -151.52c0,-6.49 0,-14.08 -3.26,-19.48 -1.07,-6.52 -4.33,-10.83 -8.67,-15.17 -3.21,-2.15 -7.58,-5.39 -11.89,-7.58 -4.34,-2.15 -8.67,-3.25 -12.98,-3.25l-1.09 0 -1.06 0c-4.34,0 -8.64,1.1 -14.11,3.25 -3.21,2.19 -7.55,5.43 -11.89,7.58 -4.35,4.34 -6.49,8.65 -9.74,14.08 -1.05,5.43 -2.15,10.83 -2.15,17.32l0 154.77 -97.4 0 0 -198.09 0 -4.3 0 -4.34 0 -5.4 0 -4.34 0 -9.74c-1.09,-3.24 -1.09,-5.39 -2.19,-8.67l0 -6.46c0,-2.19 0,-4.34 -1.09,-4.34l0 -4.34 0 -1.09 0 -1.06zm-146.12 136.36c-3.21,0 -4.34,0 -7.55,1.09l-6.5 0 -6.53 0 -6.44 0c-5.44,1.1 -10.83,3.25 -15.17,4.34 -5.4,0 -10.83,2.15 -15.17,4.34 -6.46,2.15 -9.74,4.34 -12.98,6.46 -2.16,4.34 -4.34,7.58 -4.34,10.86l0 1.06c0,0 -1.06,0 -1.06,1.06l0 1.13 0 2.15 0 1.06 0 1.09c0,4.34 1.06,7.59 3.24,11.93 1.1,4.33 3.25,7.54 7.59,10.79 4.34,4.34 7.55,6.53 11.89,8.68 4.33,2.15 7.58,3.24 13.01,3.24l3.21 0c0,0 1.1,0 3.25,-1.09l2.19 -1.06c2.15,0 2.15,0 4.34,-1.09 1.05,-1.09 3.23,-2.15 5.39,-3.25 2.19,-1.09 3.25,-2.18 5.4,-4.34 2.18,-3.24 4.34,-5.39 6.49,-8.67 1.1,-2.16 2.19,-5.4 4.34,-8.65 1.06,-3.24 1.06,-6.49 2.19,-9.73 1.06,-3.25 1.06,-6.5 2.15,-9.74l0 -2.15c0,-1.1 0,-3.28 1.06,-3.28l0 -2.12 0 -3.28 0 -5.4 0 -5.43zm0 85.51c-1.06,0 -1.06,1.06 -2.15,1.06 0,1.13 -1.06,1.13 -1.06,1.13l0 3.21c0,0 -1.13,0 -1.13,1.13 0,1.06 -1.06,1.06 -3.21,2.12 0,2.18 -1.09,2.18 -2.19,3.28 -3.24,3.24 -6.49,7.58 -9.7,9.7 -4.35,3.28 -9.77,5.43 -15.17,8.68 -4.34,2.18 -10.83,4.33 -17.32,5.43 -7.6,1.06 -15.17,2.15 -22.75,2.15 -16.22,0 -29.21,-2.15 -40.05,-4.34 -12.98,-3.24 -21.62,-7.58 -28.11,-12.98 -6.48,-6.53 -11.89,-12.98 -16.23,-19.51 -4.34,-5.4 -6.52,-12.98 -8.65,-20.53 -1.12,-2.15 -1.12,-4.34 -2.18,-7.59l0 -6.49c-1.09,-2.18 -1.09,-4.34 -1.09,-6.49l0 -6.49c1.09,-17.32 5.4,-32.45 14.07,-43.32 10.83,-10.8 22.72,-19.47 40.04,-24.87 17.33,-6.49 35.74,-9.74 55.19,-12.98 19.5,-3.25 40.06,-4.34 61.69,-4.34 0,-6.49 -1.06,-12.98 -2.15,-18.42 -1.06,-6.45 -1.06,-10.79 -2.19,-16.23 -1.06,-5.39 -4.3,-8.64 -8.64,-11.88 -3.25,-2.19 -8.65,-3.25 -14.04,-3.25 -6.53,0 -9.78,1.06 -14.11,2.15 -4.31,1.1 -6.46,3.25 -8.66,6.49 -2.14,2.16 -3.23,5.4 -5.39,7.59 -1.09,4.34 -2.18,7.58 -2.18,9.73l0 2.19 0 1.06c-1.06,1.09 -1.06,1.09 -1.06,2.15l0 1.13 0 3.21 0 3.25 -93.1 -1.06c0,-14.08 3.25,-27.09 8.68,-36.83 5.4,-10.83 15.13,-19.47 28.11,-24.87 10.84,-6.53 23.83,-11.93 38.99,-15.17 14.05,-3.25 30.3,-3.25 48.72,-3.25 14.04,0 29.21,0 42.18,3.25 14.08,3.24 27.07,7.58 37.9,12.98 11.87,6.53 20.56,14.08 26,22.75 6.45,8.65 8.64,18.38 8.64,29.21l0 127.71 0 12.98c1.06,5.44 1.06,8.68 1.06,15.17 1.09,4.34 1.09,8.65 2.19,14.04 1.09,5.47 2.15,10.87 5.39,16.27l-93.1 0 -1.05 0 0 -2.16c0,-1.09 0,-1.09 -1.06,-2.18l0 -3.21c0,-1.13 0,-2.19 -1.13,-3.25l0 -6.53 0 -6.45 0 -6.53zm-372.3 -217.57l97.37 0 0 2.19 0 2.15c0,1.06 1.14,2.19 1.14,3.25l0 5.4c0,2.18 1.05,4.34 1.05,5.43 0,3.24 0,5.4 1.05,8.68l0 3.21 0 5.43 0 2.15 0 5.44c2.18,-9.78 6.53,-17.36 11.93,-24.91 4.34,-6.49 11.92,-10.83 18.41,-15.14 7.55,-3.28 15.14,-6.52 24.91,-7.58 8.64,-2.19 19.44,-2.19 29.21,-2.19l0 80.12 -2.19 0 -2.15 0 -3.24 0 -1.06 0 -3.28 0c-1.06,0 -1.06,0 -2.16,-1.09l-3.25 0 -1.09 0c-9.72,0 -18.37,1.09 -25.96,4.33 -7.59,2.16 -15.17,6.46 -20.57,10.8 -6.49,5.43 -11.92,10.83 -15.17,19.51 -2.16,6.49 -4.34,15.13 -4.34,24.87l0 115.82 -96.3 0 0 -190.5 0 -10.83 0 -8.65 0 -2.15 0 -2.19c-1.1,-1.06 -1.1,-1.06 -1.1,-2.15l0 -2.15c0,0 -1.06,-2.15 -1.06,-3.28l0 -5.4c0,-2.15 -1.09,-4.3 -1.09,-7.58 0,-3.25 0,-7.59 -1.06,-12.99zm-324.69 0l96.3 0 0 142.88 0 3.28 0 1.06 0 2.15c0,1.09 0,2.19 1.06,2.19 0,5.39 1.13,10.83 2.19,15.13 1.07,5.43 3.23,9.74 5.4,14.08 3.24,4.34 5.39,7.58 9.77,9.73 3.21,3.25 7.55,4.34 12.98,4.34 8.64,0 16.23,-1.09 21.63,-4.34 5.39,-3.24 9.73,-7.55 12.98,-12.98 1.09,-6.49 3.24,-12.98 5.4,-19.47 2.18,-6.49 2.18,-14.08 2.18,-21.66l0 -136.39 93.09 0 0 189.41 0 6.53 0 5.39 0 3.25c0,1.06 0,2.15 1.07,3.25l0 3.24 0 3.25 0 1.09 0 2.15 0 1.06 0 2.19 0 2.15 1.09 1.13 0 1.06 0 1.06 0 8.67c0,3.25 0,5.44 1.05,7.59l0 2.15 0 2.15 0 1.1 -93.05 0 0 -1.1 0 -3.24c-1.06,0 -1.06,-1.06 -1.06,-3.21l0 -3.25c-1.09,-2.19 -1.09,-3.28 -2.19,-5.47l0 -4.3 0 -5.4c-4.34,4.31 -7.58,8.64 -12.98,12.98 -4.34,3.25 -9.77,7.59 -15.18,10.83 -5.39,3.25 -11.88,5.4 -19.46,7.59 -7.55,1.06 -16.27,2.15 -25.97,2.15 -17.32,0 -32.49,-2.15 -44.38,-6.49 -11.92,-4.34 -22.71,-10.83 -30.3,-20.57 -6.53,-9.77 -11.92,-19.47 -16.23,-30.3 -3.28,-10.83 -5.39,-21.66 -5.39,-34.64l0 -163.45zm-151.56 111.49l0 -1.06 0 -2.18 0 -1.06 0 -2.15 0 -1.13c0,-7.55 -2.2,-14.04 -4.3,-20.57 -2.19,-6.46 -5.47,-11.89 -8.68,-18.38 -4.34,-5.4 -8.69,-9.74 -14.08,-12.98 -5.39,-3.25 -10.83,-5.43 -18.38,-5.43 -1.12,0 -2.18,1.12 -4.34,1.12l-4.33 0c-1.1,0 -3.25,1.06 -5.44,2.12 -1.07,1.09 -3.23,1.09 -4.3,2.19 -3.28,2.15 -6.49,4.34 -10.83,8.68 -3.25,3.24 -5.43,6.45 -9.74,11.89 -2.15,4.33 -4.34,10.79 -5.41,18.37 -2.16,7.59 -2.16,16.27 -2.16,26 0,10.8 1.07,20.57 3.23,29.25 3.25,6.46 5.4,14.04 9.74,19.44 4.34,6.52 9.77,10.83 15.17,13.02 5.4,3.21 11.88,4.33 18.41,4.33 8.65,0 16.23,-2.18 21.63,-5.43 6.49,-3.24 10.83,-6.49 14.04,-12.98 4.34,-7.59 6.53,-15.17 7.57,-22.72 2.2,-8.68 2.2,-18.41 2.2,-29.24l0 -1.1zm0 89.85c-2.2,6.5 -6.49,11.89 -11.89,16.23 -3.28,4.34 -9.78,7.59 -15.17,10.83 -5.39,3.21 -11.92,5.4 -18.38,6.49 -6.53,3.25 -11.92,4.31 -19.5,4.31 -1.06,0 -2.19,1.13 -4.31,1.13l-3.28 0 -3.24 0 -4.34 0c-16.23,0 -31.37,-2.19 -44.38,-8.72 -14.04,-6.45 -27.03,-14.04 -36.8,-27.02 -10.79,-11.92 -18.38,-24.91 -23.79,-40.04 -5.42,-14.08 -7.57,-30.3 -7.57,-47.63 0,-18.41 2.15,-33.58 7.57,-48.68 5.41,-14.11 13,-27.09 23.79,-38.98 9.77,-11.92 22.76,-21.66 36.8,-27.06 13.01,-6.49 28.15,-8.68 44.38,-8.68 10.86,0 19.49,0 28.14,1.1 8.69,2.15 16.24,4.34 22.76,7.58 6.45,4.34 11.89,7.55 16.23,14.08 5.4,5.39 9.74,11.89 12.98,19.47l0 -7.58c0,-2.19 1.1,-4.34 1.1,-6.5l0 -5.39c1.05,-2.19 1.05,-4.34 1.05,-5.44 1.06,-1.09 1.06,-3.24 1.06,-4.3 1.12,-1.13 1.12,-2.19 1.12,-3.25l0 -1.09 0 -1.09 0 -1.1 93.07 0 0 219.75c0,20.57 -2.15,37.85 -7.54,53.02 -6.53,14.08 -14.12,25.97 -24.91,34.64 -10.83,9.71 -21.67,17.29 -34.64,22.69 -11.93,5.47 -23.82,9.77 -36.8,11.92 -1.09,0 -3.28,0 -4.34,1.1l-4.34 0c-2.15,0 -3.24,1.09 -4.3,1.09l-4.34 0 -8.64 0c-2.19,1.06 -5.44,1.06 -7.59,1.06l-2.18 0 -2.16 0 -2.18 0 -2.16 0 -1.06 0c0,-1.06 0,-1.06 -1.1,-1.06l-1.09 0 -1.05 0 -10.83 0c-4.34,0 -8.68,0 -11.92,-1.09 -3.25,-1.1 -4.34,-1.1 -7.59,-1.1l-5.4 0c-3.23,-1.06 -5.39,-1.06 -6.49,-2.15 -3.24,0 -4.34,0 -7.55,-1.06 -8.68,-2.19 -17.35,-5.43 -26,-9.77 -8.67,-4.34 -17.33,-8.64 -24.9,-14.04 -7.59,-6.53 -14.04,-14.11 -17.32,-22.75 -4.32,-9.74 -5.41,-20.57 -5.41,-33.55l92.01 0c0,4.34 1.06,7.58 3.24,10.83 0,3.24 2.16,6.49 4.35,9.73 2.15,2.19 6.49,5.4 10.83,6.49 4.29,1.1 9.73,4.34 16.22,4.34 12.99,0 22.72,-2.18 30.31,-5.43 7.58,-4.34 11.89,-9.74 14.04,-18.38 1.13,-7.58 3.23,-16.23 4.34,-24.91 1.09,-9.77 1.09,-19.47 1.09,-30.3l0 -2.15 0 -2.19 0 -2.15 0 -2.19 0 -1.06zm-320.35 -108.23c0,-7.58 0,-14.07 -2.19,-20.56 -2.15,-6.5 -5.4,-10.84 -9.74,-15.17 -4.3,-5.4 -9.77,-8.65 -14.09,-10.83 -5.38,-2.16 -10.78,-3.21 -16.21,-3.21 -5.44,0 -11.93,2.15 -16.27,3.21 -5.39,3.24 -9.7,7.58 -14.04,13.01 -4.34,4.34 -6.52,9.74 -8.64,15.14 -2.19,6.52 -3.28,11.92 -3.28,18.41l84.46 0zm0 73.59l88.72 0c-1.06,15.14 -5.4,28.15 -11.93,38.95 -6.45,9.77 -16.22,19.51 -27.03,28.15 -10.83,6.53 -23.8,11.92 -37.88,15.17 -15.13,4.34 -32.44,6.49 -49.81,6.49 -23.78,0 -44.34,-2.15 -60.57,-7.58 -18.42,-5.4 -31.4,-12.99 -42.24,-23.78 -10.83,-10.87 -19.46,-24.91 -24.89,-41.14 -5.41,-16.26 -8.65,-35.73 -8.65,-58.49 0,-20.56 3.24,-38.94 8.65,-54.11 6.52,-16.23 15.15,-30.27 25.99,-42.19 11.93,-11.89 27.02,-20.57 42.2,-25.97 17.32,-6.49 34.64,-8.68 55.21,-8.68 26,0 47.62,3.25 66,10.83 17.36,7.59 31.4,19.48 41.14,33.55 9.78,15.17 16.22,32.46 21.66,50.87 4.34,18.42 6.49,37.89 6.49,58.46l-177.52 0 0 5.4 0 5.43c0,2.15 0,4.34 1.09,6.49l0 7.58c2.19,4.31 3.25,7.55 5.44,10.83 2.14,3.21 4.3,6.46 6.45,9.71 3.28,3.28 7.59,6.52 11.93,7.58 4.32,1.09 10.83,2.15 17.32,2.15l1.09 0 3.21 0 1.13 0 0 -1.06 1.06 0 1.06 0c4.34,0 8.66,-1.09 12.98,-3.24 3.28,-2.15 7.58,-3.25 10.86,-7.59 3.25,-2.15 6.5,-5.39 8.65,-9.73 2.19,-3.25 2.19,-8.65 2.19,-12.98l0 -1.1zm-526.07 -34.64l101.74 0 0 4.34 0 4.3 0 2.19 0 3.28c1.13,0 1.13,1.06 1.13,2.12l0 2.18c1.06,4.34 3.21,7.59 5.4,11.93 3.25,3.21 5.4,6.45 9.74,9.73 4.3,4.31 9.73,6.5 15.13,7.55 6.53,2.16 14.08,3.28 21.65,3.28 9.78,0 16.24,-1.12 23.82,-3.28 6.48,-1.05 11.94,-3.24 16.22,-7.55 5.41,-3.28 8.69,-6.52 10.84,-10.86 3.25,-4.31 4.34,-8.64 4.34,-12.98l0 -1.06 0 -1.06 0 -2.19 -1.09 -1.09 0 -1.06c-1.1,-4.34 -3.25,-7.58 -5.4,-10.83 -4.34,-3.28 -7.6,-7.58 -12.97,-10.83 -4.35,-3.25 -9.75,-6.49 -16.27,-8.68 -6.5,-2.15 -14.05,-4.3 -23.82,-6.45l-1.06 0 -1.09 0 -1.09 -1.13c-25.97,-5.4 -47.59,-10.8 -66.04,-18.38 -17.29,-6.49 -31.36,-14.08 -41.11,-20.57 -9.74,-7.58 -17.31,-17.29 -22.71,-28.15 -4.34,-11.89 -8.68,-24.87 -8.68,-40.04l0 -2.15 0 -1.1 0 -1.09 0 -1.06c-1.09,-17.32 2.15,-33.55 9.74,-46.53 7.58,-13.02 19.51,-23.81 33.55,-33.58 14.12,-8.65 31.39,-15.14 49.77,-19.44 16.27,-5.47 35.74,-7.59 57.36,-7.59 29.25,1.06 53.06,4.31 72.54,9.7 19.49,5.44 33.55,14.11 42.22,24.91 9.74,9.77 17.29,21.66 20.57,35.74 5.43,11.88 8.64,25.96 8.64,42.19l-101.71 -1.06c0,-5.4 -1.12,-10.87 -2.18,-15.17 -2.19,-4.34 -5.4,-8.68 -9.74,-11.92 -3.24,-3.21 -8.64,-6.46 -14.07,-8.65 -6.49,-1.09 -12.98,-3.21 -20.58,-3.21 -6.48,0 -12.97,2.12 -17.31,3.21 -5.4,1.1 -9.74,4.31 -14.04,8.65 -3.28,2.18 -5.43,5.43 -7.58,8.71 -2.19,3.21 -3.25,7.51 -3.25,10.8l0 1.05 0 1.13 0 1.06 0 1.06c1.06,3.28 2.12,6.53 4.3,9.77 1.1,4.34 4.34,6.49 7.6,9.74 3.23,3.24 7.57,5.4 12.97,7.58 5.4,2.15 10.83,4.31 17.31,4.31 4.31,0 7.6,1.09 10.83,2.15 4.35,1.13 8.66,1.13 12.99,2.19 3.25,1.09 7.59,1.09 10.83,2.15 4.34,1.09 8.65,1.09 12.99,2.18 14.07,4.31 27.05,8.65 38.94,12.99 14.11,5.39 26,11.89 37.93,19.47 10.78,6.49 19.44,16.26 24.87,29.25 6.49,11.88 9.73,24.87 9.73,42.19 0,21.66 -4.35,40.04 -10.83,54.11 -8.64,16.23 -19.47,28.12 -34.6,37.89 -16.27,9.74 -32.49,16.23 -50.91,20.57 -17.32,4.34 -37.89,6.49 -58.46,6.49 -25.96,0 -49.77,-2.15 -68.15,-7.58 -19.48,-5.4 -35.74,-12.99 -48.72,-22.72 -12.97,-10.83 -23.81,-23.82 -30.3,-38.99 -6.5,-15.13 -9.74,-33.54 -11.93,-54.11z"/>
   <path class="fil2" d="M7206.74 14051.31c-2.18,0 -3.23,0 -6.53,1.09l-6.44 0 -6.53 0 -6.45 0c-5.44,1.1 -10.83,3.25 -16.23,4.31 -5.46,0 -10.87,2.18 -15.17,4.34 -5.4,2.18 -8.69,4.34 -10.83,6.49 -3.25,4.34 -4.34,7.58 -5.43,10.86l0 1.06c-1.06,0 -1.06,0 -1.06,1.06l0 1.09 0 2.19 0 1.06 0 1.06c0,4.34 1.06,7.58 2.15,11.92 2.2,4.34 5.43,7.59 8.64,10.83 3.25,4.34 7.59,6.53 11.93,8.68 4.31,2.15 8.64,3.24 13,3.24l2.17 0c2.15,0 3.24,0 4.3,-1.09 0,0 2.18,-1.09 3.27,-1.09 0,0 1.07,0 2.13,-1.06 2.18,-1.09 4.34,-2.15 6.52,-3.28 2.19,-1.06 3.25,-2.15 5.4,-4.31 2.19,-3.28 4.35,-5.39 6.49,-8.67 2.14,-2.16 3.28,-5.4 3.28,-8.65 2.16,-3.24 2.16,-6.52 3.21,-9.73 1.09,-3.25 1.09,-6.49 2.18,-9.78l0 -2.11 0 -3.28 0 -2.15 0 -3.25 0 -5.43 0 -5.4zm0 85.51l-1.09 1.06 0 1.09c0,1.1 -1.09,2.19 -1.09,3.25 -1.05,0 -1.05,0 -1.05,1.09 -1.1,1.1 -2.16,1.1 -2.16,2.16 -1.14,2.15 -1.14,2.15 -3.28,3.28 -2.14,3.24 -5.39,7.58 -9.7,9.7 -4.37,3.28 -9.77,5.4 -15.17,8.68 -5.41,2.18 -10.83,4.3 -17.32,5.43 -7.58,1.06 -15.18,2.15 -22.75,2.15 -16.23,0 -30.27,-2.15 -41.1,-4.34 -10.87,-3.24 -20.56,-7.58 -27.11,-12.98 -7.54,-6.53 -12.97,-12.98 -16.18,-19.51 -4.38,-5.4 -7.57,-12.98 -8.68,-20.53 -1.09,-2.15 -1.09,-4.34 -1.09,-7.59 -1.06,-1.09 -1.06,-3.28 -1.06,-6.49 -1.09,-2.18 -1.09,-4.34 -1.09,-6.49l0 -6.52c1.09,-17.33 6.49,-32.42 14.07,-43.29 9.71,-10.83 22.72,-19.47 40.04,-24.87 17.33,-6.53 35.71,-9.74 54.12,-12.98 19.51,-3.25 41.13,-4.34 61.69,-4.34 0,-6.49 0,-12.98 -1.09,-18.42 0,-6.45 -1.09,-10.79 -2.14,-16.22 -2.16,-5.4 -3.3,-8.65 -7.58,-11.93 -4.35,-2.15 -9.75,-3.21 -16.27,-3.21 -5.4,0 -9.7,1.06 -12.98,2.15 -3.25,1.06 -6.46,3.25 -8.65,6.49 -2.15,2.16 -4.34,5.4 -5.4,7.55 -2.18,4.38 -2.18,7.59 -3.24,9.78l0 2.15 0 1.09 0 2.15 0 1.1 0 3.24 0 3.25 -94.19 -1.06c0,-14.11 4.34,-27.09 9.72,-36.83 6.55,-10.83 15.18,-19.47 27.11,-24.87 10.83,-6.53 24.87,-11.93 40.04,-15.17 14.04,-3.25 30.3,-3.25 47.59,-3.25 16.27,0 30.34,0 44.39,3.25 12.97,3.24 25.99,7.58 36.83,12.98 11.88,6.53 20.55,14.08 25.99,22.76 5.38,8.64 9.7,18.38 9.7,29.21l0 127.7 0 12.98 0 15.17c1.09,4.34 1.09,8.65 2.15,14.04 2.18,5.47 3.25,10.87 4.34,16.27l-92.01 0 -1.05 0 0 -2.16 0 -2.18c0,-1.06 0,-2.15 -1.06,-3.25 0,-1.09 -1.13,-2.15 -1.13,-3.21 0,-3.28 -1.07,-4.34 -1.07,-6.53l0 -6.49 0 -6.49zm-297.66 -70.34l97.41 0c0,18.38 -3.27,34.61 -10.82,47.59 -5.43,14.11 -15.13,24.9 -27.05,34.68 -12.99,8.64 -25.97,15.1 -42.2,19.43 -15.18,4.38 -30.34,6.53 -47.66,6.53l-11.89 15.14 2.19 0c1.06,-1.1 2.15,-1.1 3.25,-1.1l3.21 0 3.24 0 3.27 0 2.17 0 2.15 0 1.09 1.1 1.06 0 2.18 0c5.4,0 10.84,2.15 15.18,3.28 5.38,2.15 10.79,4.3 15.12,6.45 5.44,4.34 9.75,6.53 11.9,11.93 2.19,5.39 3.28,11.88 3.28,17.32 0,6.49 -2.15,11.89 -4.34,16.22 -3.24,4.31 -8.64,8.65 -15.17,12.99 -5.41,3.24 -11.92,5.43 -19.44,6.49 -5.46,3.28 -13.01,4.34 -19.5,5.4 -2.19,0 -3.25,0 -4.34,1.12l-2.16 0c-1.09,0 -2.15,1.06 -2.15,1.06l-4.34 0 -2.18 0 -3.25 0 -1.06 0 -3.29 0c-6.44,0 -14.03,0 -19.43,-1.06 -6.52,0 -11.92,-1.12 -18.41,-2.18 -5.4,-1.06 -10.87,-2.19 -16.27,-4.34 -5.4,-1.06 -10.84,-3.25 -15.12,-5.4l11.88 -26c1.13,0 4.34,1.13 6.53,1.13 2.11,2.12 4.3,2.12 7.58,2.12 0,0 2.13,1.09 3.25,1.09 1.04,1.09 2.15,1.09 3.21,1.09 1.09,0 3.24,0 3.24,1.1l4.33 0c2.2,0 3.26,1.06 5.44,1.06 2.16,0 4.34,1.09 6.49,1.09l3.25 0c0,0 2.15,0 2.15,1.09l3.25 0 2.19 0c4.3,0 8.64,-1.09 11.88,-1.09 3.25,-1.09 6.49,-2.15 9.74,-2.15 2.19,-1.1 4.34,-3.28 5.4,-4.34 2.19,-2.19 3.24,-4.34 3.24,-6.49 0,-3.28 -1.05,-5.44 -2.11,-7.59 -2.19,-2.15 -4.34,-3.24 -6.53,-4.34 -2.19,-1.06 -5.4,-2.15 -8.65,-2.15 -2.18,0 -4.33,-1.06 -8.67,-1.06 -2.14,0 -4.3,0 -6.49,1.06l-7.59 0c-2.15,0 -4.34,1.09 -5.39,1.09 -2.16,1.06 -3.25,1.06 -5.4,1.06l-11.94 -11.92 23.83 -34.61c-14.09,-1.06 -25.99,-4.34 -36.8,-7.58 -10.83,-4.34 -19.47,-10.8 -26,-18.38 -6.45,-6.53 -12.98,-14.08 -17.28,-21.66 -5.44,-7.55 -9.74,-16.27 -11.93,-23.82 -2.15,-5.43 -3.24,-11.88 -5.4,-16.22 0,-5.44 -2.18,-10.83 -2.18,-16.23 0,-5.43 -1.06,-9.77 -1.06,-14.08l0 -12.98c0,-19.51 3.24,-37.89 9.71,-54.12 5.42,-15.16 15.16,-29.24 28.14,-40.07 14.11,-10.8 28.15,-19.47 44.38,-24.87 15.17,-5.4 33.54,-7.59 53.06,-7.59l9.74 0 9.73 0 10.8 0c3.28,0 6.51,1.1 9.77,2.19 11.92,2.12 22.72,4.3 33.55,9.7 9.74,4.34 19.51,9.77 29.21,16.27 9.74,7.58 16.26,16.22 21.66,28.11 4.3,10.87 7.57,23.85 7.57,40.08l-97.41 -1.13c0,-6.46 -1.07,-11.86 -2.16,-17.29 -1.06,-5.4 -4.31,-9.73 -6.5,-11.92 -3.21,-4.31 -6.49,-7.59 -10.79,-8.64 -5.43,-3.25 -9.76,-4.34 -15.17,-4.34 -5.4,0 -10.83,2.18 -15.17,5.39 -4.35,4.38 -7.54,8.72 -10.79,15.17 -3.25,7.59 -5.44,14.11 -7.59,22.76 0,8.64 -1.09,17.32 -1.09,27.02l0 2.19 0 3.24 0 2.15 0 2.19c0,9.74 0,17.32 1.09,25.97 2.15,7.58 3.25,16.22 6.46,23.81 1.13,7.58 5.43,12.98 9.77,16.23 4.33,3.28 9.73,5.43 17.32,5.43 5.41,0 9.74,-1.09 15.17,-3.28 4.3,-1.06 7.58,-4.31 10.79,-8.64 2.19,-4.34 5.44,-9.74 6.5,-15.17 1.09,-6.46 2.16,-14.04 2.16,-23.78z"/>
   <path class="fil9" d="M2701.53 11327.13c96.95,0 176.87,238.66 176.87,533.79 0,295.14 -79.92,533.83 -176.87,533.83 -98,0 -176.88,-238.69 -176.88,-533.83 0,-295.13 78.88,-533.79 176.88,-533.79zm-346.25 -11.74l150.21 0 0 52.21 -150.21 0 0 -52.21zm-38.38 116.13l143.85 0 0 59.66 -143.85 0 0 -59.66zm-29.85 147.04l136.4 0 0 65.02 -136.4 0 0 -65.02zm-24.48 174.73l153.46 0 0 62.87 -153.46 0 0 -62.87zm7.48 171.57l137.44 0 0 62.83 -137.44 0 0 -62.83zm24.48 173.67l116.14 0 0 40.46 -116.14 0 0 -40.46zm22.37 151.3l112.96 0 0 26.64 -112.96 0 0 -26.64zm46.88 123.58l110.85 0 0 33.06 -110.85 0 0 -33.06zm46.89 94.86l103.36 0 0 29.85 -103.36 0 0 -29.85zm11.71 -1257.3l129.99 0 0 47.95 -129.99 0 0 -47.95zm298.34 1371.28l-2.16 0 -312.16 0c-141.7,-129.97 -234.41,-324.98 -238.66,-720.27 -5.32,-395.29 87.39,-614.78 252.49,-723.48 80.98,-45.79 291.96,-15.98 356.97,34.12 117.2,72.46 204.54,355.88 204.54,695.78 0,391.02 -116.13,708.52 -261.02,712.79l0 1.06zm-304.73 -1467.16c-353.73,168.35 -445.38,1064.4 -91.6,1455.45l-160.91 0c-30.91,-18.14 -58.6,-41.6 -85.24,-68.2l78.8 0 0 -16.01 -92.66 0c-23.46,-25.54 -43.67,-54.33 -62.87,-86.29l61.81 0 0 -19.16 -72.47 0c-18.09,-34.11 -34.07,-70.34 -47.93,-107.63l104.43 0 0 -29.81 -115.1 0c-10.63,-35.17 -20.23,-70.34 -28.74,-107.63l107.6 0 0 -37.29 -115.09 0c-6.37,-38.38 -11.7,-78.85 -15.97,-118.25l90.56 0 0 -42.62 -93.77 0c-2.11,-45.82 -2.11,-91.65 -1.06,-136.42l98.04 0 0 -46.88 -94.82 0c2.11,-34.04 5.32,-67.1 10.65,-99.06l118.25 0 0 -91.65 -100.15 0c4.27,-22.37 9.59,-44.74 15.97,-64.98l134.26 0 0 -69.26 -111.85 0c10.65,-25.57 21.27,-50.09 34.09,-75.63l116.12 0 0 -44.77 -90.56 0c11.72,-21.31 26.64,-41.52 42.62,-60.71l124.68 0 0 -42.62 -87.39 0c84.17,-82.09 194.98,-121.49 330.3,-90.59l0 0.01zm261.06 287.69c70.31,0 127.85,201.4 127.85,451.76 0,249.31 -57.54,451.75 -127.85,451.75 -71.4,0 -128.94,-202.45 -128.94,-451.75 0,-250.37 57.54,-451.76 128.94,-451.76z"/>
   <polygon class="fil9" points="2698.33,11712.81 2885.87,11712.81 3183.12,11433.66 3183.12,12267.91 2912.5,11988.77 2698.33,11988.77 "/>
   <path class="fil3" d="M2715.38 11971.72l204.34 0 246.34 254.14 0 -752.79 -273.48 256.82 -177.2 0 0 241.83zm484.79 338.31l-294.89 -304.2 -224.01 0 0 -310.05 197.87 0 321.03 -301.49 0 915.74z"/>
   <path class="fil2" d="M5971.74 15914.23l-117.15 0c-3.11,0 -4.84,-2.32 -4.98,-4.86l0 -29.11c0,-2.36 1.56,-5.01 4.93,-5.01l26.29 0c2.72,0 4.91,-2.29 4.91,-4.8l0 -132.25c0,-2.89 -2.26,-5.08 -4.95,-5.08l-26.2 0c-2.93,0 -4.98,-2.37 -4.98,-4.8l0 -29.42c0,-2.54 2.12,-4.8 4.98,-4.8l117.19 0c2.61,0 4.88,2.26 4.88,4.83l0 29.35c0,2.37 -1.89,4.84 -4.81,4.84l-26.39 0c-2.79,0 -4.9,2.26 -4.9,4.87l0 132.32c0,2.75 2.15,4.94 4.87,4.94l26.35 0c2.79,0 4.88,2.22 4.88,4.84l0 29.13c0,2.51 -1.78,5.01 -4.92,5.01z"/>
   <path class="fil2" d="M6227.59 15698.96l0 210.39c0,2.65 -2.12,4.91 -4.87,4.91l-39.04 0c-1.47,0 -2.69,-0.5 -3.79,-1.73l-111.62 -129.36c-3.03,-3.53 -8.53,-1.17 -8.53,3.21l0 122.97c0,2.79 -2.12,4.91 -4.95,4.91l-44.9 0c-2.89,0 -4.94,-2.44 -4.94,-4.8l0 -210.33c0,-2.71 2.08,-5.01 4.87,-5.01l43 0c1.62,0 2.93,0.68 3.99,1.91l107.42 122.91c2.86,3.31 8.47,1.34 8.47,-3.28l0 -116.6c0,-2.36 1.76,-4.94 4.93,-4.94l45.04 0c2.34,0 4.92,1.84 4.92,4.84z"/>
   <path class="fil2" d="M6377.9 15771.5l65.54 -75.67c0.99,-1.02 2.22,-1.58 3.81,-1.69l40.54 0c2.91,0 4.86,2.4 4.86,4.97l0 210.26c0,2.5 -1.95,4.87 -4.86,4.87l-44.97 0c-2.92,0 -4.99,-2.33 -4.99,-4.84l0 -119.38c0,-4.69 -5.61,-6.66 -8.64,-3.1l-50.73 58.95c-2.43,2.82 -5.89,2.86 -8.36,0l-50.69 -58.95c-3.39,-3.95 -8.65,-1.31 -8.65,3.21l0 119.2c0,2.79 -2.18,4.91 -5.08,4.91l-44.8 0c-2.68,0 -5.01,-2.15 -5.01,-4.87l0 -210.29c0,-2.72 2.18,-4.94 4.87,-4.94l40.49 0c1.42,0 2.76,0.39 3.89,1.69l65.4 75.71c1.77,2.05 5.33,2.4 7.38,-0.04z"/>
   <path class="fil2" d="M6683.06 15878.82l0 30.66c0,2.68 -2.36,4.76 -5.01,4.76l-152.43 0c-2.61,0 -4.8,-2.43 -4.8,-4.87l0 -210.11c0,-2.29 1.45,-5.12 4.83,-5.12l150.32 0c2.79,0 4.91,2.37 4.91,4.91l0 30.51c0,2.65 -2.26,4.91 -4.94,4.91l-95.37 0c-2.92,0 -4.96,2.25 -4.96,4.97l0 28.75c0,2.61 2.01,4.9 4.94,4.9l90.55 0c2.6,0 4.9,2.09 4.9,4.7l0 30.65c0,2.75 -2.14,4.98 -4.86,4.98l-90.63 0c-2.93,0 -4.9,2.43 -4.9,4.97l0 50.59c0,2.72 2.01,4.9 4.83,4.9l97.72 0c2.5,0 5.01,2.05 4.9,4.94z"/>
   <path class="fil2" d="M6923.62 15699.03l0 30.83c0,2.05 -1.87,4.62 -4.9,4.62l-69.96 0c-3.1,0 -4.83,2.47 -4.83,5.01l0 169.76c0,2.75 -2.08,5.01 -4.87,5.01l-45.12 0c-2.57,0 -4.83,-2.12 -4.83,-4.94l0 -170c0,-2.61 -2.15,-4.87 -4.9,-4.87l-70 0.03c-2.68,0 -4.79,-2.22 -4.79,-4.9l0 -30.34c0,-2.68 1.83,-5.12 4.83,-5.12l204.54 0c2.36,0 4.83,1.98 4.83,4.91z"/>
   <path class="fil2" d="M7034.07 15797.48l0.04 14.78c-0.04,1.91 -0.67,4.27 4.01,6.95 2.62,1.48 5.75,3.92 9.89,8.04 6,6.07 13.97,15.45 22.82,35.77 7.8,17.82 13.51,40.4 17.22,48.19 0.67,1.38 2.08,3.04 4.5,3.04l49.47 0c3.43,0 6.17,-3.35 4.55,-6.95 -4.58,-9.91 -16.75,-45.76 -25.5,-65.16 -7.9,-17.57 -17.39,-25.01 -24.84,-33.05 -3.24,-3.5 -0.88,-6.99 1.03,-8.15 10.19,-6.28 29.56,-21.42 29.38,-50.45 -0.14,-25.75 -20.36,-56.38 -59.16,-56.38l-110.44 0c-2.8,0 -4.88,2.16 -4.88,5.05l0 210.15c0,2.47 1.8,4.94 4.94,4.94l45.04 0c2.58,0 4.85,-2.08 4.85,-4.87l0 -169.79c0,-2.75 1.79,-5.12 4.93,-5.12l27.62 0c17.08,0 31.18,11.12 31.18,28.51 0,16.72 -13.61,30.09 -30.71,29.56 -5.26,-0.18 -5.94,3.7 -5.94,4.94z"/>
   <path class="fil2" d="M7275.55 15691.28c37.46,0 67.84,11.32 91.02,33.97 23.23,22.65 34.84,48.97 34.84,78.99 0,30.44 -11.77,56.9 -35.27,79.27 -23.57,22.36 -53.76,33.55 -90.59,33.55 -37.3,0 -67.66,-11.12 -91.05,-33.38 -23.46,-22.26 -35.17,-48.79 -35.17,-79.44 0,-30.09 11.67,-56.48 34.89,-79.1 23.28,-22.57 53.76,-33.86 91.33,-33.86zm0 180.06c20.81,0 37.5,-6.14 50.27,-18.49 12.67,-12.38 19.05,-28.54 19.05,-48.61 0,-20.15 -6.38,-36.37 -19.05,-48.65 -12.77,-12.31 -29.46,-18.45 -50.27,-18.45 -20.96,0 -37.75,6.14 -50.52,18.45 -12.73,12.28 -19.15,28.5 -19.15,48.65 0,20.07 6.42,36.23 19.15,48.61 12.77,12.35 29.56,18.49 50.52,18.49z"/>
   <path class="fil6" d="M6848.32 15357.52c0,13.19 7.02,20.35 20.24,20.35l256.71 0c13.24,0 20.37,7.13 20.37,20.39l0 136.81c0,13.27 -7.13,20.36 -20.37,20.36l-999.49 0c-13.22,0 -20.38,-7.09 -20.38,-20.36l0 -136.84c0,-13.23 7.16,-20.36 20.38,-20.36l256.69 0c13.23,0 20.35,-7.12 20.35,-20.35 0,-209.41 0.04,-418.61 0.04,-627.98 0,-13.27 -7.16,-20.39 -20.39,-20.39l-256.69 0c-13.22,0 -20.38,-7.13 -20.38,-20.36l0 -136.84c0,-13.23 7.21,-20.35 20.38,-20.35l999.49 0c13.24,0 20.37,7.12 20.37,20.35l0 136.84c0,13.27 -7.13,20.36 -20.37,20.36l-256.71 0c-13.22,0 -20.35,7.12 -20.35,20.39 0.03,209.3 0.11,418.64 0.11,627.98zm-425 -281.31l404.54 279.12 -0.04 -344.7 -404.46 -279.05 -0.04 344.63z"/>
   <path class="fil6" d="M4678.43 15822.84c8.26,-9.53 18.97,-13.06 30.84,-13.06 13.01,0 23.67,3.53 30.83,13.06 8.28,8.25 11.85,21.3 11.85,39.08 0,17.75 -4.76,30.87 -11.85,39.13 -8.29,9.45 -17.82,13.01 -30.83,13.01 -11.87,0 -22.58,-3.56 -29.65,-13.01 -8.27,-8.26 -11.85,-21.38 -11.85,-39.13 0,-17.78 3.58,-30.83 10.66,-39.08zm-22.5 97.19c13.05,14.25 30.76,21.34 53.34,21.34 22.54,0 40.35,-7.09 54.5,-21.34 13.05,-14.26 20.14,-33.27 20.14,-58.11 0,-24.94 -7.09,-43.85 -20.14,-58.03 -14.15,-14.25 -31.96,-21.41 -54.5,-21.41 -11.87,0 -23.72,2.43 -33.2,5.93 -7.09,3.56 -13.05,8.32 -18.95,14.28 -5.92,5.96 -10.7,13.06 -14.25,21.31 -4.76,10.65 -7.08,23.71 -7.08,39.12 0,23.64 5.88,42.65 20.14,56.91z"/>
   <path class="fil6" d="M4891.82 15906.96c-4.75,4.77 -11.85,7.09 -20.11,7.09 -11.93,0 -20.25,-3.52 -27.35,-11.81 -7.08,-8.29 -10.61,-21.35 -10.61,-41.49 0,-17.78 3.53,-30.87 10.61,-39.12 7.1,-8.29 16.63,-11.86 27.35,-11.86 8.26,0 15.36,2.4 21.31,5.96 5.89,4.77 9.45,11.82 10.65,18.91l30.84 -7.09c-3.64,-11.82 -8.29,-21.3 -15.45,-28.5 -11.82,-10.62 -27.24,-16.55 -46.22,-16.55 -21.38,0 -37.92,7.13 -50.98,21.38 -13.01,14.18 -20.14,34.33 -20.14,59.23 0,23.67 7.13,42.65 20.14,56.91 13.06,14.25 29.6,21.37 49.85,21.37 16.48,0 29.63,-4.76 40.25,-13.08 10.62,-8.29 18.91,-20.15 22.55,-36.73l-29.64 -9.49c-2.4,10.73 -7.17,18.95 -13.05,24.87z"/>
   <path class="fil6" d="M5006.82 15810.98c11.85,0 18.94,1.2 22.51,1.2 4.72,1.13 9.45,3.57 11.81,7.09 3.53,3.57 4.74,8.29 4.74,14.18 0,4.73 0,8.3 -2.34,11.93 -2.4,3.53 -5.92,5.89 -10.69,7.09 -3.52,1.2 -11.85,2.4 -23.7,2.4l-16.55 0 0 -43.89 14.22 0zm-14.23 126.86l0 -56.97 20.11 0c13.05,0 23.71,-1.2 31.96,-2.33 4.76,-1.2 10.73,-3.63 15.49,-7.16 4.73,-3.56 9.49,-8.26 13.04,-15.38 3.5,-5.89 4.74,-14.25 4.74,-23.71 0,-11.78 -2.4,-21.31 -8.29,-29.6 -5.96,-7.16 -13.05,-11.89 -22.54,-14.28 -5.97,-2.33 -17.78,-2.33 -36.73,-2.33l-48.65 0 0 151.76 30.87 0z"/>
   <path class="fil6" d="M5210.66 15812.19c3.57,2.33 4.77,7.09 7.08,14.18 2.45,5.93 2.45,18.98 2.45,36.73 0,17.78 -1.24,30.83 -2.45,37.96 -2.31,5.92 -3.51,9.45 -7.08,11.85 -2.32,2.36 -5.89,3.56 -8.29,3.56 -3.56,0 -7.13,-1.2 -9.49,-3.56 -3.52,-1.2 -4.76,-5.93 -7.09,-13.05 -2.34,-7.06 -2.34,-18.98 -2.34,-36.76 0,-17.75 1.14,-30.8 2.34,-37.92 2.33,-5.9 3.57,-10.66 7.09,-12.99 2.36,-2.4 5.93,-2.4 9.49,-2.4 2.4,0 5.97,0 8.29,2.4zm-43.88 -11.92c-9.46,13.05 -14.18,33.2 -14.18,62.83 0,28.5 3.56,49.81 13.05,60.46 9.42,11.86 21.34,17.82 36.72,17.82 14.26,0 26.11,-5.96 34.36,-15.45 9.53,-13.02 14.29,-34.33 14.29,-62.83 0,-28.44 -4.76,-49.78 -14.29,-62.83 -8.25,-9.46 -20.1,-15.35 -34.36,-15.35 -15.38,0 -27.3,4.7 -35.59,15.35z"/>
   <path class="fil6" d="M5329.15 15812.19c3.63,2.33 4.82,7.09 7.15,14.18 1.2,5.93 2.39,18.98 2.39,36.73 0,17.78 -1.19,30.83 -2.39,37.96 -2.33,5.92 -3.52,9.45 -7.15,11.85 -2.34,2.36 -5.83,3.56 -8.24,3.56 -4.72,0 -7.12,-1.2 -9.44,-3.56 -3.6,-1.2 -6,-5.93 -7.13,-13.05 -2.4,-7.06 -2.4,-18.98 -2.4,-36.76 0,-17.75 1.19,-30.8 2.4,-37.92 1.13,-5.9 3.53,-10.66 7.13,-12.99 2.32,-2.4 4.72,-2.4 9.44,-2.4 2.41,0 5.9,0 8.24,2.4zm-43.82 -11.92c-9.49,13.05 -14.26,33.2 -14.26,62.83 0,28.5 3.6,49.81 13.13,60.46 9.42,11.86 21.27,17.82 36.71,17.82 14.26,0 26.12,-5.96 34.37,-15.45 9.53,-13.02 14.29,-34.33 14.29,-62.83 0,-28.44 -4.76,-49.78 -14.29,-62.83 -8.25,-9.46 -20.11,-15.35 -34.37,-15.35 -15.44,0 -27.29,4.7 -35.58,15.35z"/>
   <path class="fil6" d="M5447.76 15812.19c3.56,2.33 4.76,7.09 7.09,14.18 1.12,5.93 2.43,18.98 2.43,36.73 0,17.78 -1.31,30.83 -2.43,37.96 -2.33,5.92 -3.53,9.45 -7.09,11.85 -2.33,2.36 -5.97,3.56 -9.53,3.56 -3.49,0 -5.89,-1.2 -8.25,-3.56 -3.54,-1.2 -5.9,-5.93 -7.09,-13.05 -2.4,-7.06 -2.4,-18.98 -2.4,-36.76 0,-17.75 1.19,-30.8 2.4,-37.92 1.19,-5.9 3.55,-10.66 7.09,-12.99 2.36,-2.4 4.76,-2.4 8.25,-2.4 3.56,0 7.2,0 9.53,2.4zm-43.82 -11.92c-9.56,13.05 -14.25,33.2 -14.25,62.83 0,28.5 3.53,49.81 12.98,60.46 9.49,11.86 21.41,17.82 35.56,17.82 15.42,0 27.34,-5.96 35.6,-15.45 9.45,-13.02 14.21,-34.33 14.21,-62.83 0,-28.44 -4.76,-49.78 -14.21,-62.83 -8.26,-9.46 -20.18,-15.35 -35.6,-15.35 -14.15,0 -26.07,4.7 -34.29,15.35z"/>
   <path class="fil6" d="M5523.62 15929.46c9.52,8.36 20.14,11.92 34.39,11.92 17.75,0 32,-7.09 41.45,-20.21 7.13,-10.65 10.65,-21.31 10.65,-34.4 0,-14.18 -3.52,-27.2 -13.01,-36.65 -9.52,-9.6 -20.07,-14.25 -33.2,-14.25 -7.13,0 -13.06,2.33 -20.14,4.65l4.69 -26 55.78 0 0 -27.26 -77.05 0 -15.42 79.41 23.71 3.56c5.89,-7.13 14.22,-10.66 22.54,-10.66 7.09,0 11.86,2.37 16.51,7.1 3.64,4.72 5.97,11.88 5.97,21.3 0,9.53 -2.33,16.65 -5.97,22.55 -4.65,4.76 -9.42,7.09 -15.38,7.09 -5.94,0 -10.69,-2.33 -14.18,-5.89 -4.73,-3.57 -7.09,-9.46 -7.09,-15.35l-29.63 2.33c1.16,13.02 7.09,23.67 15.38,30.76z"/>
   <path class="fil6" d="M4929.75 14995.39l-112.64 0c0,0 15.45,-132.71 112.64,-214.45l0 214.45zm-118.53 40.37l118.53 1.13 0 371.09 42.69 17.74 2.32 -734.91c-177.8,99.56 -201.5,285.68 -201.5,285.68 -27.27,126.86 13.09,210.96 13.09,210.96l39.12 -11.88c-26.11,-78.11 -14.25,-139.81 -14.25,-139.81z"/>
   <path class="fil6" d="M5092.12 14980.03c0,0 -20.11,37.92 -41.49,17.78l0 -295.13c0,0 46.25,-22.58 56.9,10.61 0,0 59.24,154.17 -15.41,266.74zm-41.49 438.62l0 -374.62c0,0 29.63,-8.29 56.9,32 0,0 109.08,155.33 7.13,320.04 0,0 -20.14,33.16 -42.65,28.54 0,0 -15.42,0 -21.38,-5.96zm-45.01 -743.27l-2.45 769.27c14.3,3.6 54.55,20.18 54.55,20.18 72.32,23.7 106.72,-56.84 106.72,-56.84 47.43,-96.09 39.12,-205.14 21.34,-270.26 -19.01,-71.15 -65.23,-113.81 -65.23,-113.81 -8.22,-2.39 1.2,-15.38 1.2,-15.38 103.2,-169.54 20.14,-320.07 20.14,-320.07 -34.36,-75.85 -136.27,-13.09 -136.27,-13.09z"/>
   <path class="fil6" d="M5211.87 14637.42l0 844.03 48.58 -1.2 -2.33 -660.19c2.33,-13.09 4.73,-6 4.73,-6l85.3 315.28 -1.13 322.47c10.69,2.4 47.37,-24.9 47.37,-24.9l-1.16 -732.55 -45.08 -23.7 1.2 277.35c-1.2,22.58 -4.73,2.36 -4.73,2.36l-85.37 -309.38 -47.38 -3.57z"/>
   <path class="fil6" d="M5460.73 14801.06l-1.11 577.29c14.21,-4.76 48.64,-46.21 48.64,-46.21l0 -456.42c0,-15.41 7.06,5.96 7.06,5.96l26.04 59.24 37.99 -16.62c-53.38,-158.82 -158.88,-213.33 -158.88,-213.33l-1.21 48.55 41.47 41.55 0 -0.01z"/>
   <path class="fil6" d="M4836.07 15439.96c0,0 -122.05,-98.39 -155.25,-267.94 0,0 -37.97,-175.4 48.57,-329.49 0,0 64.04,-124.5 207.45,-201.55 0,0 156.48,-87.7 382.86,-35.52 0,0 -266.66,-117.33 -501.4,83.01 0,0 -131.58,94.82 -176.63,303.42 0,0 -52.07,200.34 94.9,398.29 0,0 119.65,170.67 321.16,193.18 0,0 340.23,68.76 523.99,-273.79 0,0 -196.74,308.15 -520.41,238.26 0,0 -126.8,-20.17 -225.23,-107.87l-0.01 0z"/>
   <path class="fil6" d="M4704.51 15196.98c0,0 32.02,139.84 170.74,246.52 0,0 155.27,137.55 404.19,78.21 0,0 -227.59,41.48 -387.61,-90.07 0,0 -124.53,-111.37 -152.94,-225.21 0,0 -71.12,-176.6 48.66,-386.4 0,0 79.38,-133.95 242.97,-197.98 0,0 -193.24,54.51 -290.42,239.51 0,0 -85.37,169.43 -35.59,335.42z"/>
   <path class="fil8" d="M4660.17 10048.84l-3246.11 0 0 -4211.48 885.4 0 49.42 0 0 -215.27 0.18 0 0 -1402.07c0,-74.75 32.35,-144.28 84.14,-194.13 51.75,-49.81 122.91,-80.96 202.74,-80.96l1738.41 0c77.69,0 149.94,31.15 201.7,80.96 51.78,49.85 84.13,119.38 84.13,194.13l0 5828.84 -0.01 -0.02zm-4.3 -6100.82c-72.29,-69.53 -172.58,-113.14 -281.53,-113.14l-1738.41 0c-109.99,0 -210.29,43.61 -282.57,113.14 -72.25,70.59 -116.43,166.09 -116.43,271.99l0 1500 0 8.33 -878.93 0 -57.19 0 0 55.03 0 4319.44 0 55.03 57.19 0 3359.31 0 56.09 0 0 -55.03 0 -5882.81c0,-105.9 -45.29,-201.4 -117.54,-271.99l0.01 0.01z"/>
   <path class="fil4 str2" d="M7222.26 16771.89l-2578.8 0c-243.03,0 -440.09,-197.02 -440.09,-440.12l0 -2380.68c0,-243.1 197.06,-440.12 440.09,-440.12l2578.8 0c243.06,0 440.09,197.02 440.09,440.12l0 2380.68c0,243.1 -197.03,440.12 -440.09,440.12z"/>
   <path class="fil3" d="M6272.82 19062.88l-3533.02 0c-38.84,0 -70.31,-31.47 -70.31,-70.24l0 -1521.88c0,-38.77 31.47,-70.23 70.31,-70.23l3533.02 0c38.84,0 70.26,31.46 70.26,70.23l0 1521.88c0,38.77 -31.42,70.24 -70.26,70.24z"/>
   <path class="fil2" d="M3840.2 10878.25c-22.65,0 -44.24,7.54 -62.54,21.76 -21.66,16.72 -35.36,40.89 -38.67,68.09 -3.22,26.56 4.13,52.63 20.67,73.45 100.75,130.38 176.77,263.63 225.92,395.99 48.51,130.67 72.25,264.16 70.56,396.84 -1.66,130.67 -28.01,264.12 -78.35,396.7 -49.45,130.35 -123.55,263.49 -220.1,395.74 -16.19,22.58 -22.57,49.99 -17.89,77.23 4.52,26.35 18.98,49.17 40.75,64.31l0.21 0.14c17.18,12.95 37.61,19.83 59.13,19.83 32.31,0 62.72,-15.63 81.3,-41.74 454.59,-624.24 454.27,-1239.48 -0.91,-1828.62 -19.61,-25.26 -48.8,-39.72 -80.08,-39.72zm-0.31 1923.89c-24.52,0 -47.82,-7.79 -67.35,-22.54 -24.76,-17.25 -41.23,-43.25 -46.35,-73.23 -5.37,-30.87 1.87,-62.02 20.28,-87.67 391.51,-536.19 392.29,-1063.94 2.26,-1568.63 -18.81,-23.63 -27.17,-53.41 -23.5,-83.68 3.74,-30.86 19.34,-58.31 43.92,-77.32 20.76,-16.13 45.34,-24.7 71.05,-24.7 35.6,0 68.76,16.44 91.02,45.09 117.59,152.18 206.37,307.55 263.88,461.74 56.69,152.15 84.63,307.51 82.94,461.77 -1.66,151.94 -32.04,307.17 -90.33,461.32 -57.28,151.55 -143.18,306.39 -255.29,460.33 -21.1,29.7 -55.74,47.48 -92.53,47.48l0 0.04z"/>
   <path class="fil2" d="M3321.57 12341.26c16.91,12.14 36.7,18.53 57.27,18.53 30.51,0 58.13,-13.97 75.7,-38.35l0.07 -0.14c114.34,-150.71 172.27,-310.98 172.27,-476.35 0,-162.1 -59.52,-325.68 -172.23,-473.1 -18.03,-23.67 -46.36,-37.82 -75.78,-37.82 -20.92,0 -40.67,6.88 -57.22,19.87 -41.27,32.24 -49.32,91.93 -17.95,133.1 43.42,56.83 76.69,115.96 98.88,175.89 22.28,60.12 33.58,121.36 33.58,182.07 0,122.77 -44.56,244.62 -132.43,362.13 -31.18,40.92 -23.14,101.1 17.84,134.19l0 -0.02zm57.27 32.43l0 0c-23.57,-0.04 -46.22,-7.38 -65.51,-21.31l-0.29 -0.18c-22.64,-18.24 -37.32,-44.1 -41.27,-72.81 -4.01,-29 3.41,-57.68 20.92,-80.65 86.01,-115.04 129.61,-234.1 129.61,-353.8 0,-119.38 -43.6,-236.96 -129.58,-349.57 -35.98,-47.16 -26.81,-115.57 20.38,-152.4 18.99,-14.92 41.71,-22.79 65.77,-22.79 33.69,0 66.15,16.16 86.79,43.22 57.25,74.89 101.17,153.81 130.59,234.53 29.53,81.03 44.49,164.11 44.49,247.01 0,168.45 -58.88,331.51 -175.01,484.64 -20.22,28.01 -51.9,44.1 -86.89,44.1l0 0.01z"/>
   <path class="fil2" d="M3600.97 11124.57c-20.77,0 -40.4,6.71 -56.61,19.44l-0.14 0.11c-20.32,15.06 -33.38,37.25 -36.76,62.44 -3.39,25.08 3.49,50.8 18.91,70.48 67.87,89.29 119.87,182.42 154.58,276.9 34.82,94.82 52.5,191.66 52.5,287.79 0,192.69 -70.01,384.07 -208.11,568.86 -15.45,20.32 -22.05,45.33 -18.48,70.45 3.56,25.08 16.82,47.34 37.36,62.65 16.4,12.49 35.98,19.12 56.62,19.12 29.76,0 58.35,-14.21 76.48,-38.03 163.79,-216.99 246.83,-446.83 246.83,-683.05 0,-235.33 -83.38,-464.03 -247.89,-679.8 -18.06,-23.74 -45.51,-37.36 -75.29,-37.36zm-0.13 1452.06l0 0c-23.71,0 -46.15,-7.58 -64.99,-21.91 -23.45,-17.46 -38.62,-42.96 -42.72,-71.75 -4.05,-28.82 3.47,-57.47 21.17,-80.72 136.2,-182.31 205.28,-370.91 205.28,-560.53 0,-190.88 -68.68,-378.03 -204.22,-556.22 -17.61,-22.58 -25.51,-52.04 -21.63,-80.79 3.88,-28.89 18.88,-54.36 42.12,-71.72 18.73,-14.57 41.23,-22.29 65.12,-22.29 34.16,0 65.59,15.63 86.3,42.79 82.23,107.88 145.2,220.87 187.22,335.88 42.15,115.46 63.53,234.07 63.53,352.35 0,117.55 -20.78,235.31 -61.81,349.96 -41.76,116.77 -104.95,231.63 -187.81,341.49 -20.79,27.2 -53.52,43.46 -87.56,43.46z"/>
  </g>
 </g>
</svg>
