<?xml version="1.0" encoding="UTF-8"?>
<!DOCTYPE svg PUBLIC "-//W3C//DTD SVG 1.1//EN" "http://www.w3.org/Graphics/SVG/1.1/DTD/svg11.dtd">
<!-- Creator: CorelDRAW -->
<svg xmlns="http://www.w3.org/2000/svg" xml:space="preserve" width="9.9864mm" height="7.1419mm" version="1.1" style="shape-rendering:geometricPrecision; text-rendering:geometricPrecision; image-rendering:optimizeQuality; fill-rule:evenodd; clip-rule:evenodd"
viewBox="0 0 612.3 437.9"
 xmlns:xlink="http://www.w3.org/1999/xlink"
 xmlns:xodm="http://www.corel.com/coreldraw/odm/2003">
 <defs>
  <style type="text/css">
   <![CDATA[
    .fil0 {fill:black}
    .fil1 {fill:#FEFEFE;fill-rule:nonzero}
   ]]>
  </style>
 </defs>
 <g id="Layer_x0020_1">
  <metadata id="CorelCorpID_0Corel-Layer"/>
  <path class="fil0" d="M511.7 0l-62.4 0 -264.1 0 -185.2 218.3 185.2 219.6 326.5 0 100.5 0 0 -100.5 0 -197.3 0 -40.1c0,-54.7 -45.2,-99.9 -100.5,-99.9z"/>
  <path class="fil1" d="M465.1 190.2c6,-9.4 9.8,-20.4 9.8,-32.1 0,-40.8 -32.9,-71.4 -78.2,-71.4l-57.8 0 -52.2 0 0 264.5 12.5 0 128.1 0c48,0 83.5,-36.7 83.5,-84.3 0,-34 -18.1,-62.4 -45.7,-76.7zm-68.4 -54.8c16.3,0 26.1,10.6 26.1,25.3 0,7.2 -3,14.4 -7.9,19.3l-76 0 0 -44.6 57.8 0zm23.8 167l-81.6 0 0 -76.3 82 0c25.3,0 37.8,16.6 37.8,38.2 0,21.2 -12.5,38.2 -38.2,38.2z"/>
 </g>
</svg>
