<?xml version="1.0" encoding="UTF-8"?>
<!DOCTYPE svg PUBLIC "-//W3C//DTD SVG 1.1//EN" "http://www.w3.org/Graphics/SVG/1.1/DTD/svg11.dtd">
<!-- Creator: CorelDRAW -->
<svg xmlns="http://www.w3.org/2000/svg" xml:space="preserve" width="9.9864mm" height="7.1419mm" version="1.1" style="shape-rendering:geometricPrecision; text-rendering:geometricPrecision; image-rendering:optimizeQuality; fill-rule:evenodd; clip-rule:evenodd"
viewBox="0 0 612.3 437.9"
 xmlns:xlink="http://www.w3.org/1999/xlink"
 xmlns:xodm="http://www.corel.com/coreldraw/odm/2003">
 <defs>
  <style type="text/css">
   <![CDATA[
    .fil0 {fill:black}
    .fil1 {fill:#FEFEFE;fill-rule:nonzero}
   ]]>
  </style>
 </defs>
 <g id="Layer_x0020_1">
  <metadata id="CorelCorpID_0Corel-Layer"/>
  <path class="fil0" d="M511.7 0l-62.4 0 -264.1 0 -185.2 218.3 185.2 219.6 326.5 0 100.5 0 0 -100.5 0 -197.3 0 -40.1c0,-54.7 -45.2,-99.9 -100.5,-99.9z"/>
  <path class="fil1" d="M390.2 86.7l-60.5 0 -52.2 0 0 264.5 17 0 95.6 0c72.9,0 127.4,-57.8 127.4,-132.3 0,-74.4 -54.4,-132.3 -127.4,-132.3zm0 214.6l-60.5 0 0 -164.8 60.5 0c45.7,0 77.5,33.6 77.5,82.4 0,48.7 -31.7,82.4 -77.5,82.4z"/>
 </g>
</svg>
