<?xml version="1.0" encoding="UTF-8"?>
<!DOCTYPE svg PUBLIC "-//W3C//DTD SVG 1.1//EN" "http://www.w3.org/Graphics/SVG/1.1/DTD/svg11.dtd">
<!-- Creator: CorelDRAW -->
<svg xmlns="http://www.w3.org/2000/svg" xml:space="preserve" width="9.9864mm" height="7.1419mm" version="1.1" style="shape-rendering:geometricPrecision; text-rendering:geometricPrecision; image-rendering:optimizeQuality; fill-rule:evenodd; clip-rule:evenodd"
viewBox="0 0 612.3 437.9"
 xmlns:xlink="http://www.w3.org/1999/xlink"
 xmlns:xodm="http://www.corel.com/coreldraw/odm/2003">
 <defs>
  <style type="text/css">
   <![CDATA[
    .fil0 {fill:black}
    .fil1 {fill:#FEFEFE;fill-rule:nonzero}
   ]]>
  </style>
 </defs>
 <g id="Layer_x0020_1">
  <metadata id="CorelCorpID_0Corel-Layer"/>
  <path class="fil0" d="M511.7 0l-62.4 0 -264.1 0 -185.2 218.3 185.2 219.6 326.5 0 100.5 0 0 -100.5 0 -197.3 0 -40.1c0,-54.7 -45.2,-99.9 -100.5,-99.9z"/>
  <path class="fil1" d="M397.3 258.3l73.3 0c-7.2,34.8 -37.8,53.3 -76,53.3 -49.5,0 -85.4,-35.9 -85.4,-89.6 0,-51 34,-86.9 85.4,-86.9 34.8,0 63.9,19.3 73.7,43.5l54.4 0c-12.5,-52.9 -65.4,-94.1 -128.1,-94.1 -79.7,0 -137.2,60.1 -137.2,137.6 0,77.1 56.3,137.6 131.5,137.6 37.4,0 66.5,-14 84.6,-38.5l0 33.3 49.1 0 0 -96 0 -46.1 -125.5 0 0 46.1z"/>
 </g>
</svg>
