<?xml version="1.0" encoding="UTF-8"?>
<!DOCTYPE svg PUBLIC "-//W3C//DTD SVG 1.1//EN" "http://www.w3.org/Graphics/SVG/1.1/DTD/svg11.dtd">
<!-- Creator: CorelDRAW -->
<svg xmlns="http://www.w3.org/2000/svg" xml:space="preserve" width="3.6229mm" height="10.4578mm" version="1.1" style="shape-rendering:geometricPrecision; text-rendering:geometricPrecision; image-rendering:optimizeQuality; fill-rule:evenodd; clip-rule:evenodd"
viewBox="0 0 55 158.8"
 xmlns:xlink="http://www.w3.org/1999/xlink"
 xmlns:xodm="http://www.corel.com/coreldraw/odm/2003">
 <defs>
  <style type="text/css">
   <![CDATA[
    .fil0 {fill:black}
   ]]>
  </style>
 </defs>
 <g id="Layer_x0020_1">
  <metadata id="CorelCorpID_0Corel-Layer"/>
  <path class="fil0" d="M48.2 41.8c4.5,12.3 6.8,24.8 6.8,37.3 0,12.7 -2.2,25.3 -6.7,37.5 -4.4,12.2 -11,24.1 -19.7,35.6l-0.1 0.1c-1.5,2.1 -3.4,3.7 -5.6,4.8 -2.2,1.1 -4.6,1.7 -7.2,1.7 -1.7,0 -3.4,-0.3 -5,-0.8 -1.6,-0.5 -3.1,-1.3 -4.6,-2.3l-0.1 -0c-3.4,-2.8 -5.5,-6.7 -6,-10.7 -0.5,-4.1 0.4,-8.3 3,-11.7 6.6,-8.8 11.5,-17.8 14.8,-26.8 3.3,-9 5,-18.1 5,-27.3 0,-4.5 -0.4,-9.1 -1.2,-13.6 -0.8,-4.5 -2.1,-9 -3.8,-13.5 -1.7,-4.5 -3.7,-8.9 -6.2,-13.3 -2.5,-4.4 -5.3,-8.8 -8.6,-13 -2.6,-3.5 -3.6,-7.7 -3.1,-11.7 0.5,-4 2.6,-7.9 6.1,-10.6 1.4,-1.1 2.9,-1.9 4.5,-2.5 1.6,-0.6 3.3,-0.9 5.1,-0.9 2.5,0 4.9,0.6 7.1,1.7 2.2,1.1 4.1,2.7 5.6,4.7 8.6,11.3 15.3,23.3 19.7,35.5z"/>
 </g>
</svg>
