<?xml version="1.0" encoding="UTF-8"?>
<!DOCTYPE svg PUBLIC "-//W3C//DTD SVG 1.1//EN" "http://www.w3.org/Graphics/SVG/1.1/DTD/svg11.dtd">
<!-- Creator: CorelDRAW (Versión OEM) -->
<svg xmlns="http://www.w3.org/2000/svg" xml:space="preserve" width="3.6367mm" height="10.4512mm" version="1.1" style="shape-rendering:geometricPrecision; text-rendering:geometricPrecision; image-rendering:optimizeQuality; fill-rule:evenodd; clip-rule:evenodd"
viewBox="0 0 362.21 1040.91"
 xmlns:xlink="http://www.w3.org/1999/xlink"
 xmlns:xodm="http://www.corel.com/coreldraw/odm/2003">
 <defs>
  <style type="text/css">
   <![CDATA[
    .fil0 {fill:#319FD2}
   ]]>
  </style>
 </defs>
 <g id="Capa_x0020_1">
  <metadata id="CorelCorpID_0Corel-Layer"/>
  <path class="fil0" d="M317.61 273.5c29.51,80.67 44.6,162.66 44.6,244.65 0,83.3 -14.43,165.94 -43.94,245.97 -28.86,80.02 -72.15,158.07 -129.21,233.5l-0.66 0.66c-9.84,13.77 -22.3,24.27 -36.73,31.48 -14.43,7.21 -30.17,11.15 -47.23,11.15 -11.15,0 -22.3,-1.97 -32.8,-5.25 -10.5,-3.28 -20.34,-8.53 -30.17,-15.09l-0.66 0c-22.3,-18.37 -36.07,-43.94 -39.35,-70.19 -3.28,-26.89 2.62,-54.44 19.68,-76.74 43.29,-57.72 75.43,-116.75 97.08,-175.78 21.64,-59.03 32.8,-118.72 32.8,-179.06 0,-29.51 -2.62,-59.69 -7.87,-89.2 -5.25,-29.51 -13.77,-59.03 -24.92,-88.54 -11.15,-29.51 -24.27,-58.37 -40.67,-87.24 -16.39,-28.86 -34.76,-57.72 -56.41,-85.27 -17.05,-22.96 -23.61,-50.51 -20.34,-76.74 3.28,-26.23 17.05,-51.82 40.01,-69.53 9.18,-7.21 19.02,-12.46 29.51,-16.39 10.5,-3.93 21.64,-5.91 33.45,-5.91 16.39,0 32.14,3.93 46.57,11.15 14.43,7.21 26.89,17.71 36.73,30.83 56.41,74.12 100.35,152.82 129.21,232.85l1.3 -1.32z"/>
 </g>
</svg>
