<?xml version="1.0" encoding="UTF-8"?>
<!DOCTYPE svg PUBLIC "-//W3C//DTD SVG 1.1//EN" "http://www.w3.org/Graphics/SVG/1.1/DTD/svg11.dtd">
<!-- Creator: CorelDRAW -->
<svg xmlns="http://www.w3.org/2000/svg" xml:space="preserve" width="4.3821mm" height="14.5824mm" version="1.1" style="shape-rendering:geometricPrecision; text-rendering:geometricPrecision; image-rendering:optimizeQuality; fill-rule:evenodd; clip-rule:evenodd"
viewBox="0 0 85.3 283.8"
 xmlns:xlink="http://www.w3.org/1999/xlink"
 xmlns:xodm="http://www.corel.com/coreldraw/odm/2003">
 <defs>
  <style type="text/css">
   <![CDATA[
    .fil0 {fill:black}
   ]]>
  </style>
 </defs>
 <g id="Layer_x0020_1">
  <metadata id="CorelCorpID_0Corel-Layer"/>
  <path class="fil0" d="M41.8 113.8c-1.7,-9.2 -4.2,-18.4 -7.6,-27.6 -3.3,-9.1 -7.5,-18.2 -12.5,-27.1 -5,-8.9 -10.8,-17.7 -17.3,-26.3 -1.7,-2.1 -2.9,-4.6 -3.6,-7.2 -0.7,-2.6 -0.9,-5.3 -0.5,-8 0.4,-2.7 1.2,-5.3 2.6,-7.5 1.3,-2.3 3.1,-4.3 5.3,-5.9l0 -0c1.7,-1.4 3.7,-2.4 5.7,-3.1 2.1,-0.7 4.2,-1.1 6.5,-1.1 3.2,0 6.3,0.7 9,2.1 2.8,1.4 5.2,3.4 7.2,5.9 16.1,21.2 28.3,43 36.4,65.2 8.1,22.3 12.2,45.1 12.2,68.3 0,23.2 -4.1,46.1 -12.2,68.5 -8.1,22.4 -20.2,44.3 -36.3,65.6 -2,2.6 -4.5,4.6 -7.3,6 -2.8,1.4 -6,2.2 -9.2,2.2 -2.2,0 -4.4,-0.4 -6.4,-1.1 -2.1,-0.7 -4,-1.7 -5.8,-3.1 -2.2,-1.6 -4,-3.7 -5.4,-5.9 -1.4,-2.3 -2.3,-4.8 -2.7,-7.5 -0.4,-2.7 -0.2,-5.4 0.5,-8 0.7,-2.6 1.9,-5 3.5,-7.2 13.3,-17.8 23.4,-36 30.1,-54.3 6.7,-18.3 10.1,-36.7 10.1,-55.3 0,-9.3 -0.8,-18.5 -2.5,-27.8z"/>
 </g>
</svg>
