<?xml version="1.0" encoding="UTF-8"?>
<!DOCTYPE svg PUBLIC "-//W3C//DTD SVG 1.1//EN" "http://www.w3.org/Graphics/SVG/1.1/DTD/svg11.dtd">
<!-- Creator: CorelDRAW (Versión OEM) -->
<svg xmlns="http://www.w3.org/2000/svg" xml:space="preserve" width="4.3924mm" height="14.5793mm" version="1.1" style="shape-rendering:geometricPrecision; text-rendering:geometricPrecision; image-rendering:optimizeQuality; fill-rule:evenodd; clip-rule:evenodd"
viewBox="0 0 56.34 187.01"
 xmlns:xlink="http://www.w3.org/1999/xlink"
 xmlns:xodm="http://www.corel.com/coreldraw/odm/2003">
 <defs>
  <style type="text/css">
   <![CDATA[
    .fil0 {fill:#319FD2}
   ]]>
  </style>
 </defs>
 <g id="Capa_x0020_1">
  <metadata id="CorelCorpID_0Corel-Layer"/>
  <g id="_3222903896480">
   <path class="fil0" d="M27.74 74.99c-1.12,-6.06 -2.77,-12.13 -5.01,-18.19 -2.17,-6 -4.94,-11.99 -8.24,-17.86 -3.3,-5.86 -7.12,-11.66 -11.4,-17.33 -1.12,-1.38 -1.91,-3.03 -2.37,-4.74 -0.46,-1.71 -0.59,-3.49 -0.33,-5.27 0.26,-1.78 0.79,-3.49 1.71,-4.94 0.86,-1.52 2.04,-2.83 3.49,-3.89l0 0c1.12,-0.92 2.44,-1.58 3.76,-2.04 1.38,-0.46 2.77,-0.72 4.28,-0.72 2.11,0 4.15,0.46 5.93,1.38 1.84,0.92 3.43,2.24 4.74,3.89 10.61,13.97 18.65,28.33 23.98,42.96 5.34,14.69 8.04,29.72 8.04,45.01 0,15.29 -2.7,30.38 -8.04,45.14 -5.34,14.76 -13.31,29.19 -23.92,43.23 -1.32,1.71 -2.97,3.03 -4.81,3.95 -1.84,0.92 -3.95,1.45 -6.06,1.45 -1.45,0 -2.9,-0.26 -4.22,-0.72 -1.38,-0.46 -2.64,-1.12 -3.82,-2.04 -1.45,-1.05 -2.64,-2.44 -3.56,-3.89 -0.92,-1.52 -1.52,-3.16 -1.78,-4.94 -0.26,-1.78 -0.13,-3.56 0.33,-5.27 0.46,-1.71 1.25,-3.3 2.31,-4.74 8.76,-11.73 15.42,-23.72 19.83,-35.78 4.42,-12.06 6.65,-24.18 6.65,-36.44 0,-6.13 -0.53,-12.19 -1.65,-18.32l0.13 0.13z"/>
  </g>
 </g>
</svg>
