<?xml version="1.0" encoding="UTF-8"?>
<!DOCTYPE svg PUBLIC "-//W3C//DTD SVG 1.1//EN" "http://www.w3.org/Graphics/SVG/1.1/DTD/svg11.dtd">
<!-- Creator: CorelDRAW (Versión OEM) -->
<svg xmlns="http://www.w3.org/2000/svg" xml:space="preserve" width="5.4362mm" height="19.3008mm" version="1.1" style="shape-rendering:geometricPrecision; text-rendering:geometricPrecision; image-rendering:optimizeQuality; fill-rule:evenodd; clip-rule:evenodd"
viewBox="0 0 16.73 59.41"
 xmlns:xlink="http://www.w3.org/1999/xlink"
 xmlns:xodm="http://www.corel.com/coreldraw/odm/2003">
 <defs>
  <style type="text/css">
   <![CDATA[
    .fil0 {fill:#319FD2}
   ]]>
  </style>
 </defs>
 <g id="Capa_x0020_1">
  <metadata id="CorelCorpID_0Corel-Layer"/>
  <g id="_3222904232368">
   <path class="fil0" d="M9.27 23.66c-0.36,-2.02 -0.91,-4.03 -1.65,-6.03 -0.75,-2.02 -1.71,-4.05 -2.86,-6.07 -1.15,-2.02 -2.51,-4.03 -4.05,-6.03 -0.28,-0.35 -0.48,-0.75 -0.6,-1.18 -0.12,-0.42 -0.15,-0.87 -0.09,-1.32 0.06,-0.46 0.2,-0.89 0.42,-1.28 0.22,-0.39 0.52,-0.73 0.88,-1.01 0.31,-0.24 0.65,-0.42 1,-0.54 0.35,-0.13 0.73,-0.19 1.12,-0.19 0.53,0 1.04,0.12 1.51,0.35 0.46,0.22 0.87,0.56 1.2,0.99 7.05,9.12 10.58,18.46 10.58,27.93 0,9.47 -3.51,19.07 -10.54,28.73 -0.32,0.45 -0.73,0.8 -1.2,1.04 -0.47,0.25 -1,0.38 -1.55,0.38 -0.36,0 -0.72,-0.06 -1.06,-0.18 -0.33,-0.11 -0.65,-0.28 -0.94,-0.49l-0.01 -0.01c-0.36,-0.26 -0.68,-0.58 -0.91,-0.95 -0.24,-0.36 -0.4,-0.79 -0.47,-1.24 -0.08,-0.46 -0.06,-0.92 0.04,-1.36 0.11,-0.45 0.29,-0.87 0.56,-1.25 1.48,-2.02 2.79,-4.06 3.92,-6.08 1.12,-2.02 2.07,-4.03 2.82,-6.02 0.76,-2.02 1.35,-4.06 1.75,-6.08 0.4,-2.02 0.61,-4.03 0.64,-6.02 0.02,-2.02 -0.14,-4.05 -0.51,-6.07l-0 0.01z"/>
  </g>
 </g>
</svg>
