<?xml version="1.0" encoding="UTF-8"?>
<!DOCTYPE svg PUBLIC "-//W3C//DTD SVG 1.1//EN" "http://www.w3.org/Graphics/SVG/1.1/DTD/svg11.dtd">
<!-- Creator: CorelDRAW -->
<svg xmlns="http://www.w3.org/2000/svg" xml:space="preserve" width="5.4362mm" height="19.3008mm" version="1.1" style="shape-rendering:geometricPrecision; text-rendering:geometricPrecision; image-rendering:optimizeQuality; fill-rule:evenodd; clip-rule:evenodd"
viewBox="0 0 142.2 505"
 xmlns:xlink="http://www.w3.org/1999/xlink"
 xmlns:xodm="http://www.corel.com/coreldraw/odm/2003">
 <defs>
  <style type="text/css">
   <![CDATA[
    .fil0 {fill:black}
   ]]>
  </style>
 </defs>
 <g id="Layer_x0020_1">
  <metadata id="CorelCorpID_0Corel-Layer"/>
  <path class="fil0" d="M78.9 201.1c-3.1,-17.2 -7.7,-34.3 -14,-51.3 -6.4,-17.2 -14.5,-34.4 -24.3,-51.6 -9.8,-17.2 -21.3,-34.3 -34.4,-51.3 -2.4,-3 -4.1,-6.4 -5.1,-10 -1,-3.6 -1.3,-7.4 -0.8,-11.2 0.5,-3.9 1.7,-7.6 3.6,-10.9 1.9,-3.3 4.4,-6.2 7.5,-8.6 2.6,-2 5.5,-3.6 8.5,-4.6 3,-1.1 6.2,-1.6 9.5,-1.6 4.5,0 8.8,1 12.8,3 3.9,1.9 7.4,4.8 10.2,8.4 59.9,77.5 89.9,156.9 89.9,237.4 0,80.5 -29.8,162.1 -89.6,244.2 -2.7,3.8 -6.2,6.8 -10.2,8.8 -4,2.1 -8.5,3.2 -13.2,3.2 -3.1,0 -6.1,-0.5 -9,-1.5 -2.8,-0.9 -5.5,-2.4 -8,-4.2l-0.1 -0.1c-3.1,-2.2 -5.8,-4.9 -7.7,-8.1 -2,-3.1 -3.4,-6.7 -4,-10.5 -0.7,-3.9 -0.5,-7.8 0.3,-11.6 0.9,-3.8 2.5,-7.4 4.8,-10.6 12.6,-17.2 23.7,-34.5 33.3,-51.7 9.5,-17.2 17.6,-34.3 24,-51.2 6.5,-17.2 11.5,-34.5 14.9,-51.7 3.4,-17.2 5.2,-34.3 5.4,-51.2 0.2,-17.2 -1.2,-34.4 -4.3,-51.6z"/>
 </g>
</svg>
