<?xml version="1.0" encoding="UTF-8"?>
<!DOCTYPE svg PUBLIC "-//W3C//DTD SVG 1.1//EN" "http://www.w3.org/Graphics/SVG/1.1/DTD/svg11.dtd">
<!-- Creator: CorelDRAW -->
<svg xmlns="http://www.w3.org/2000/svg" xml:space="preserve" width="9.9864mm" height="7.1419mm" version="1.1" style="shape-rendering:geometricPrecision; text-rendering:geometricPrecision; image-rendering:optimizeQuality; fill-rule:evenodd; clip-rule:evenodd"
viewBox="0 0 612.3 437.9"
 xmlns:xlink="http://www.w3.org/1999/xlink"
 xmlns:xodm="http://www.corel.com/coreldraw/odm/2003">
 <defs>
  <style type="text/css">
   <![CDATA[
    .fil0 {fill:black}
    .fil1 {fill:#FEFEFE;fill-rule:nonzero}
   ]]>
  </style>
 </defs>
 <g id="Layer_x0020_1">
  <metadata id="CorelCorpID_0Corel-Layer"/>
  <path class="fil0" d="M511.7 0l-62.4 0 -264.1 0 -185.2 218.3 185.2 219.6 326.5 0 100.5 0 0 -100.5 0 -197.3 0 -40.1c0,-54.7 -45.2,-99.9 -100.5,-99.9z"/>
  <path class="fil1" d="M399.5 356.5c63.1,0 116,-41.6 128.5,-99.8l-54.8 0c-9.4,29.9 -38.9,48.7 -73.7,48.7 -51.8,0 -85.8,-35.9 -85.8,-86.5 0,-51 34,-86.9 85.8,-86.9 34.8,0 64.2,19.3 73.7,49.1l54.8 0c-12.5,-58.6 -65.8,-99.8 -128.5,-99.8 -80.1,0 -137.6,60.1 -137.6,137.6 0,77.1 57.4,137.6 137.6,137.6z"/>
 </g>
</svg>
